G04*
G04 #@! TF.GenerationSoftware,Altium Limited,Altium Designer,19.1.6 (110)*
G04*
G04 Layer_Color=16711935*
%FSLAX25Y25*%
%MOIN*%
G70*
G01*
G75*
%ADD19R,0.03600X0.18800*%
%ADD25C,0.13005*%
%ADD26C,0.09068*%
%ADD27C,0.05524*%
%ADD28C,0.03950*%
%ADD29R,0.07099X0.07099*%
%ADD30C,0.07099*%
%ADD31R,0.06800X0.07800*%
%ADD32O,0.06800X0.07800*%
%ADD33O,0.07887X0.08674*%
%ADD63R,0.03600X0.13300*%
%ADD64R,0.06800X0.05800*%
%ADD65O,0.08674X0.20485*%
%ADD66R,0.13300X0.10737*%
D19*
X452987Y162632D02*
D03*
X449051D02*
D03*
X445115D02*
D03*
X441178D02*
D03*
X437242D02*
D03*
X433306D02*
D03*
X429369D02*
D03*
X417558D02*
D03*
X413622D02*
D03*
X409685D02*
D03*
X405748D02*
D03*
X401811D02*
D03*
X397873D02*
D03*
X393936D02*
D03*
X389999D02*
D03*
X386062D02*
D03*
X382125D02*
D03*
X456923D02*
D03*
X460860D02*
D03*
X464796D02*
D03*
X468732D02*
D03*
X472669D02*
D03*
X476605D02*
D03*
X480541D02*
D03*
X484477D02*
D03*
X488414D02*
D03*
X492350D02*
D03*
X496286D02*
D03*
X500222D02*
D03*
X508095D02*
D03*
X512031D02*
D03*
X515968D02*
D03*
X519904D02*
D03*
X523840D02*
D03*
X527776D02*
D03*
X531712D02*
D03*
X535649D02*
D03*
X539585D02*
D03*
X543521D02*
D03*
X547458D02*
D03*
X551394D02*
D03*
X555330D02*
D03*
X559266D02*
D03*
X563203D02*
D03*
X567139D02*
D03*
X504159D02*
D03*
X571075D02*
D03*
X575011D02*
D03*
D25*
X605626Y442406D02*
D03*
Y225984D02*
D03*
X451000Y405500D02*
D03*
X576984D02*
D03*
Y279516D02*
D03*
X451000D02*
D03*
X350900Y225984D02*
D03*
X439483Y442404D02*
D03*
D26*
X219602Y174094D02*
D03*
X245823D02*
D03*
D27*
X376378Y227560D02*
D03*
D28*
X581889D02*
D03*
D29*
X356693Y411417D02*
D03*
X356914Y332505D02*
D03*
D30*
X364567Y411417D02*
D03*
X364789Y332505D02*
D03*
D31*
X381339Y411024D02*
D03*
X381693Y332677D02*
D03*
D32*
X391339Y411024D02*
D03*
X391693Y332677D02*
D03*
D33*
X318415Y395660D02*
D03*
X318665Y326780D02*
D03*
X328665D02*
D03*
X286665D02*
D03*
X276165D02*
D03*
X328665Y395661D02*
D03*
X286665D02*
D03*
X276665D02*
D03*
D63*
X378188Y165382D02*
D03*
D64*
X308213Y421260D02*
D03*
X299213D02*
D03*
X308213Y433071D02*
D03*
X299213D02*
D03*
D65*
X328415Y401358D02*
D03*
X318415D02*
D03*
X286415D02*
D03*
X276665Y401221D02*
D03*
X328415Y321358D02*
D03*
X318415D02*
D03*
X286665Y321220D02*
D03*
X276165D02*
D03*
D66*
X344094Y351181D02*
D03*
Y365744D02*
D03*
M02*
