G04*
G04 #@! TF.GenerationSoftware,Altium Limited,Altium Designer,19.1.6 (110)*
G04*
G04 Layer_Color=32896*
%FSLAX25Y25*%
%MOIN*%
G70*
G01*
G75*
%ADD11C,0.01000*%
%ADD34C,0.01200*%
%ADD67C,0.00800*%
%ADD68C,0.00787*%
%ADD69C,0.00512*%
D11*
X376339Y406024D02*
X396339D01*
Y416024D01*
X376339D02*
X396339D01*
X376339Y406024D02*
Y416024D01*
X386339Y406024D02*
Y416024D01*
X376693Y327677D02*
X396693D01*
Y337677D01*
X376693D02*
X396693D01*
X376693Y327677D02*
Y337677D01*
X386693Y327677D02*
Y337677D01*
X322441Y351362D02*
X318442D01*
X310445D02*
X306446D01*
X294450Y358360D02*
X298449D01*
Y355361D01*
X296449Y356361D01*
X295450D01*
X294450Y355361D01*
Y353362D01*
X295450Y352362D01*
X297449D01*
X298449Y353362D01*
X292451Y358360D02*
Y354362D01*
X290451Y352362D01*
X288452Y354362D01*
Y358360D01*
X322441Y361205D02*
X318442D01*
X316443D02*
X312444D01*
X310445D02*
X306446D01*
X298449Y362205D02*
X296449D01*
X297449D01*
Y368203D01*
X298449Y367203D01*
X289452Y362205D02*
X293450D01*
X289452Y366203D01*
Y367203D01*
X290451Y368203D01*
X292451D01*
X293450Y367203D01*
X287452Y368203D02*
Y364204D01*
X285453Y362205D01*
X283453Y364204D01*
Y368203D01*
X401119Y361510D02*
X405118D01*
Y358511D01*
X403119Y359510D01*
X402119D01*
X401119Y358511D01*
Y356511D01*
X402119Y355512D01*
X404118D01*
X405118Y356511D01*
X399120Y361510D02*
Y357511D01*
X397121Y355512D01*
X395121Y357511D01*
Y361510D01*
X393122Y355512D02*
X389123Y359510D01*
X387124Y355512D02*
X385125D01*
X386124D01*
Y361510D01*
X387124Y360510D01*
X378127Y355512D02*
X382126D01*
X378127Y359510D01*
Y360510D01*
X379127Y361510D01*
X381126D01*
X382126Y360510D01*
X376128Y361510D02*
Y357511D01*
X374128Y355512D01*
X372129Y357511D01*
Y361510D01*
X364131Y358511D02*
X360133D01*
X358133Y355512D02*
X355134Y358511D01*
X358133Y361510D01*
X414112Y369747D02*
X417111D01*
X418110Y368747D01*
Y366748D01*
X417111Y365748D01*
X414112D01*
X412112Y371746D02*
Y365748D01*
Y368747D01*
X411112Y369747D01*
X409113D01*
X408113Y368747D01*
Y365748D01*
X405114D02*
X403115D01*
X402115Y366748D01*
Y368747D01*
X403115Y369747D01*
X405114D01*
X406114Y368747D01*
Y366748D01*
X405114Y365748D01*
X399116D02*
X397117D01*
X396117Y366748D01*
Y368747D01*
X397117Y369747D01*
X399116D01*
X400116Y368747D01*
Y366748D01*
X399116Y365748D01*
X394118D02*
X391119D01*
X390119Y366748D01*
X391119Y367747D01*
X393118D01*
X394118Y368747D01*
X393118Y369747D01*
X390119D01*
X385121Y365748D02*
X387120D01*
X388120Y366748D01*
Y368747D01*
X387120Y369747D01*
X385121D01*
X384121Y368747D01*
Y367747D01*
X388120D01*
X383465Y401424D02*
X379466D01*
X381465Y403424D02*
Y399425D01*
X368898Y381346D02*
X364899D01*
X366898Y383345D02*
Y379346D01*
X368898Y302212D02*
X364899D01*
X366898Y304211D02*
Y300212D01*
X383465Y323471D02*
X379466D01*
X381465Y325471D02*
Y321472D01*
X393701Y387795D02*
X391701D01*
X392701D01*
Y393793D01*
X393701Y392794D01*
X384704Y387795D02*
X388702D01*
X384704Y391794D01*
Y392794D01*
X385703Y393793D01*
X387703D01*
X388702Y392794D01*
X382704Y393793D02*
Y389795D01*
X380705Y387795D01*
X378706Y389795D01*
Y393793D01*
X401513Y316234D02*
X405512D01*
Y313235D01*
X403512Y314235D01*
X402513D01*
X401513Y313235D01*
Y311236D01*
X402513Y310236D01*
X404512D01*
X405512Y311236D01*
X399514Y310236D02*
X395515Y314235D01*
X393516Y310236D02*
X391516D01*
X392516D01*
Y316234D01*
X393516Y315235D01*
X384519Y310236D02*
X388517D01*
X384519Y314235D01*
Y315235D01*
X385518Y316234D01*
X387518D01*
X388517Y315235D01*
X382519Y316234D02*
Y312236D01*
X380520Y310236D01*
X378520Y312236D01*
Y316234D01*
X323828Y422361D02*
X324828Y423361D01*
X326827D01*
X327827Y422361D01*
Y418363D01*
X326827Y417363D01*
X324828D01*
X323828Y418363D01*
X317830Y417363D02*
X321829D01*
X317830Y421362D01*
Y422361D01*
X318830Y423361D01*
X320829D01*
X321829Y422361D01*
X323828Y434172D02*
X324828Y435172D01*
X326827D01*
X327827Y434172D01*
Y430174D01*
X326827Y429174D01*
X324828D01*
X323828Y430174D01*
X321829Y429174D02*
X319830D01*
X320829D01*
Y435172D01*
X321829Y434172D01*
D34*
X297427Y425774D02*
G03*
X294213Y422560I0J-3214D01*
G01*
Y419974D02*
G03*
X297427Y416760I3214J0D01*
G01*
X310013D02*
G03*
X313227Y419974I0J3214D01*
G01*
Y422560D02*
G03*
X310013Y425774I-3214J0D01*
G01*
X297427Y437585D02*
G03*
X294213Y434371I0J-3214D01*
G01*
Y431785D02*
G03*
X297427Y428571I3214J0D01*
G01*
X310013D02*
G03*
X313227Y431785I0J3214D01*
G01*
Y434371D02*
G03*
X310013Y437585I-3214J0D01*
G01*
X297413Y425760D02*
X301713D01*
X294213Y419974D02*
Y422460D01*
X313227Y420074D02*
Y422560D01*
X305713Y425760D02*
X310513D01*
X305713Y416760D02*
X310013D01*
X297427D02*
X301327D01*
X297413Y437571D02*
X301713D01*
X294213Y431785D02*
Y434271D01*
X313227Y431885D02*
Y434371D01*
X305713Y437571D02*
X310513D01*
X305713Y428571D02*
X310013D01*
X297427D02*
X301327D01*
X335595Y372713D02*
X352594D01*
X335595Y344213D02*
X352594D01*
Y365213D02*
Y372713D01*
X335595Y365213D02*
Y372713D01*
Y344213D02*
Y351713D01*
X352594Y344213D02*
Y351713D01*
D67*
X364764Y396063D02*
Y407874D01*
Y396063D02*
X368307D01*
Y398425D01*
Y410236D01*
X368504D01*
X362067Y386949D02*
Y398917D01*
X372244Y386614D02*
Y410236D01*
X368504D02*
X372244D01*
X356496Y396063D02*
Y407874D01*
X352953Y396063D02*
X356496D01*
X352953D02*
Y398425D01*
Y410236D01*
X352756D02*
X352953D01*
X359193Y386949D02*
Y398917D01*
X349016Y386614D02*
Y410236D01*
X352756D01*
X359193Y398917D02*
X362067D01*
X349016Y386614D02*
X372244D01*
X364985Y317151D02*
Y328962D01*
Y317151D02*
X368529D01*
Y319513D01*
Y331324D01*
X368725D01*
X362288Y308036D02*
Y320005D01*
X372466Y307702D02*
Y331324D01*
X368725D02*
X372466D01*
X356718Y317151D02*
Y328962D01*
X353174Y317151D02*
X356718D01*
X353174D02*
Y319513D01*
Y331324D01*
X352977D02*
X353174D01*
X359415Y308036D02*
Y320005D01*
X349237Y307702D02*
Y331324D01*
X352977D01*
X359415Y320005D02*
X362288D01*
X349237Y307702D02*
X372466D01*
D68*
X269415Y317858D02*
X335163D01*
X269415D02*
Y404472D01*
X335163D01*
Y317858D02*
Y404472D01*
D69*
X344034Y353413D02*
Y354576D01*
X342164Y362450D02*
X345904D01*
X342164Y354576D02*
X345904D01*
X342164D02*
Y362450D01*
X345904Y354576D02*
Y362450D01*
X344034D02*
Y363513D01*
M02*
