G04*
G04 #@! TF.GenerationSoftware,Altium Limited,Altium Designer,19.1.6 (110)*
G04*
G04 Layer_Physical_Order=1*
G04 Layer_Color=255*
%FSLAX25Y25*%
%MOIN*%
G70*
G01*
G75*
%ADD11C,0.01000*%
%ADD13R,0.02800X0.18000*%
%ADD14R,0.02800X0.12579*%
%ADD15R,0.01969X0.10236*%
%ADD16R,0.01969X0.11024*%
%ADD17R,0.01969X0.10236*%
%ADD18R,0.01969X0.11024*%
%ADD34C,0.01200*%
%ADD35C,0.10000*%
%ADD36C,0.01800*%
%ADD37C,0.09843*%
%ADD38C,0.02000*%
%ADD39C,0.08000*%
%ADD40C,0.08500*%
%ADD41C,0.02500*%
%ADD42C,0.04500*%
%ADD43C,0.04000*%
%ADD44R,0.06299X0.08268*%
%ADD45C,0.08268*%
%ADD46C,0.04724*%
%ADD47C,0.03150*%
%ADD48C,0.12205*%
%ADD49R,0.06299X0.06299*%
%ADD50C,0.06299*%
%ADD51R,0.06000X0.07000*%
%ADD52O,0.06000X0.07000*%
%ADD53O,0.07087X0.07874*%
%ADD54C,0.02362*%
%ADD55C,0.02800*%
G36*
X378351Y407536D02*
X378311Y407856D01*
X378191Y408142D01*
X377991Y408395D01*
X377711Y408614D01*
X377351Y408799D01*
X376911Y408951D01*
X376391Y409069D01*
X375791Y409153D01*
X375111Y409204D01*
X374351Y409221D01*
Y413221D01*
X375111Y413233D01*
X376391Y413337D01*
X376911Y413427D01*
X377351Y413543D01*
X377711Y413685D01*
X377991Y413853D01*
X378191Y414047D01*
X378311Y414266D01*
X378351Y414512D01*
Y407536D01*
D02*
G37*
G36*
X367010Y413428D02*
X367104Y413385D01*
X367231Y413346D01*
X367390Y413313D01*
X367583Y413285D01*
X368067Y413244D01*
X369039Y413221D01*
X368714Y409221D01*
X368355Y409219D01*
X366807Y409128D01*
X366731Y409106D01*
X366698Y409021D01*
X366667Y408897D01*
X366641Y408740D01*
X366600Y408325D01*
X366575Y407777D01*
X366567Y407094D01*
X362567D01*
X362565Y407452D01*
X362467Y408897D01*
X362436Y409021D01*
X362401Y409111D01*
X362362Y409168D01*
X366680D01*
X366950Y413477D01*
X367010Y413428D01*
D02*
G37*
G36*
X593126Y462704D02*
Y183396D01*
X591014Y181283D01*
X579173D01*
X578803Y181210D01*
X578489Y181000D01*
X576485Y178996D01*
X576275Y178682D01*
X576201Y178311D01*
Y170087D01*
X573025D01*
Y172182D01*
X572248D01*
Y177652D01*
X588805Y194210D01*
X589060Y194590D01*
X589149Y195039D01*
Y232405D01*
X589060Y232854D01*
X588805Y233235D01*
X585006Y237034D01*
X584626Y237288D01*
X584177Y237377D01*
X573582D01*
Y243070D01*
X570882D01*
Y243520D01*
X569398D01*
Y237008D01*
Y230496D01*
X570882D01*
Y230946D01*
X573582D01*
Y233394D01*
X573603Y233497D01*
X573582Y233601D01*
Y235032D01*
X583692D01*
X586804Y231920D01*
Y195525D01*
X570246Y178967D01*
X569992Y178586D01*
X569903Y178138D01*
Y172182D01*
X569125D01*
Y170087D01*
X565153D01*
Y172182D01*
X563282D01*
Y179853D01*
X563366Y179869D01*
X563939Y180252D01*
X564321Y180825D01*
X564456Y181500D01*
X564321Y182175D01*
X563939Y182748D01*
X563366Y183131D01*
X562691Y183265D01*
X562015Y183131D01*
X561443Y182748D01*
X561026D01*
X560454Y183131D01*
X559778Y183265D01*
X559103Y183131D01*
X558530Y182748D01*
X558148Y182175D01*
X558013Y181500D01*
X558148Y180825D01*
X558530Y180252D01*
X559103Y179869D01*
X559187Y179853D01*
Y172182D01*
X557316D01*
Y170087D01*
X549408D01*
Y172182D01*
X547537D01*
Y175853D01*
X547621Y175869D01*
X548194Y176252D01*
X548576Y176825D01*
X548711Y177500D01*
X548576Y178175D01*
X548194Y178748D01*
X547621Y179131D01*
X546946Y179265D01*
X546270Y179131D01*
X545697Y178748D01*
X545281D01*
X544709Y179131D01*
X544033Y179265D01*
X543358Y179131D01*
X542785Y178748D01*
X542403Y178175D01*
X542268Y177500D01*
X542403Y176825D01*
X542785Y176252D01*
X543358Y175869D01*
X543442Y175853D01*
Y172182D01*
X541571D01*
Y170087D01*
X533663D01*
Y172182D01*
X531792D01*
Y177753D01*
X531876Y177769D01*
X532448Y178152D01*
X532831Y178725D01*
X532966Y179400D01*
X532831Y180075D01*
X532448Y180648D01*
X531876Y181031D01*
X531201Y181165D01*
X530525Y181031D01*
X530081Y180734D01*
X529744Y180681D01*
X529408Y180734D01*
X528964Y181031D01*
X528288Y181165D01*
X527613Y181031D01*
X527040Y180648D01*
X526658Y180075D01*
X526523Y179400D01*
X526658Y178725D01*
X527040Y178152D01*
X527613Y177769D01*
X527697Y177753D01*
Y172182D01*
X525826D01*
Y170087D01*
X517917D01*
Y172182D01*
X516047D01*
Y177853D01*
X516131Y177869D01*
X516704Y178252D01*
X517086Y178825D01*
X517220Y179500D01*
X517086Y180175D01*
X516704Y180748D01*
X516131Y181131D01*
X515455Y181265D01*
X514780Y181131D01*
X514207Y180748D01*
X513791D01*
X513219Y181131D01*
X512543Y181265D01*
X511868Y181131D01*
X511295Y180748D01*
X510913Y180175D01*
X510778Y179500D01*
X510913Y178825D01*
X511295Y178252D01*
X511868Y177869D01*
X511952Y177853D01*
Y172182D01*
X510081D01*
Y170087D01*
X506109D01*
Y172182D01*
X502209D01*
Y172182D01*
X502172D01*
Y172182D01*
X498272D01*
Y170087D01*
X494300D01*
Y172182D01*
X492429D01*
Y174653D01*
X492513Y174669D01*
X493086Y175052D01*
X493469Y175625D01*
X493603Y176300D01*
X493469Y176975D01*
X493086Y177548D01*
X492513Y177931D01*
X491838Y178065D01*
X491162Y177931D01*
X490590Y177548D01*
X490174D01*
X489601Y177931D01*
X488926Y178065D01*
X488250Y177931D01*
X487677Y177548D01*
X487295Y176975D01*
X487161Y176300D01*
X487295Y175625D01*
X487677Y175052D01*
X488250Y174669D01*
X488334Y174653D01*
Y172182D01*
X486464D01*
Y170087D01*
X478555Y170087D01*
Y172182D01*
X476684D01*
Y176653D01*
X476768Y176669D01*
X477341Y177052D01*
X477723Y177625D01*
X477858Y178300D01*
X477723Y178975D01*
X477341Y179548D01*
X476768Y179931D01*
X476093Y180065D01*
X475417Y179931D01*
X474845Y179548D01*
X474429D01*
X473856Y179931D01*
X473180Y180065D01*
X472505Y179931D01*
X471933Y179548D01*
X471550Y178975D01*
X471416Y178300D01*
X471550Y177625D01*
X471933Y177052D01*
X472505Y176669D01*
X472589Y176653D01*
Y172182D01*
X470718D01*
Y170087D01*
X462810D01*
Y172182D01*
X460939D01*
Y180253D01*
X461023Y180269D01*
X461596Y180652D01*
X461978Y181225D01*
X462113Y181900D01*
X461978Y182575D01*
X461596Y183148D01*
X461023Y183531D01*
X460348Y183665D01*
X459672Y183531D01*
X459228Y183234D01*
X458891Y183181D01*
X458555Y183234D01*
X458111Y183531D01*
X457435Y183665D01*
X456760Y183531D01*
X456187Y183148D01*
X455805Y182575D01*
X455670Y181900D01*
X455805Y181225D01*
X456187Y180652D01*
X456760Y180269D01*
X456844Y180253D01*
Y172182D01*
X454973D01*
Y170087D01*
X451001D01*
Y172182D01*
X447101D01*
Y170087D01*
X443128D01*
Y172182D01*
X441258D01*
Y180242D01*
X441342Y180259D01*
X441914Y180642D01*
X442297Y181214D01*
X442431Y181890D01*
X442297Y182565D01*
X441914Y183138D01*
X441342Y183520D01*
X440666Y183655D01*
X439991Y183520D01*
X439418Y183138D01*
X439002D01*
X438429Y183520D01*
X437754Y183655D01*
X437079Y183520D01*
X436506Y183138D01*
X436123Y182565D01*
X435989Y181890D01*
X436123Y181214D01*
X436506Y180642D01*
X437079Y180259D01*
X437163Y180242D01*
Y172182D01*
X435292D01*
Y170087D01*
X431320D01*
Y172182D01*
X428134D01*
Y181693D01*
X428060Y182063D01*
X427850Y182378D01*
X427536Y182587D01*
X427165Y182661D01*
X419736D01*
X419366Y182587D01*
X419231Y182497D01*
X418731Y182729D01*
Y187373D01*
X422411Y191053D01*
X422500Y191035D01*
X423175Y191169D01*
X423748Y191552D01*
X424131Y192125D01*
X424265Y192800D01*
X424131Y193475D01*
X423748Y194048D01*
X423175Y194431D01*
X422500Y194565D01*
X421825Y194431D01*
X421252Y194048D01*
X420869Y193475D01*
X420735Y192800D01*
X420753Y192711D01*
X416729Y188688D01*
X416475Y188307D01*
X416386Y187858D01*
Y172182D01*
X415609D01*
X415202Y172407D01*
Y186079D01*
X415082Y186683D01*
X414739Y187196D01*
X406699Y195237D01*
Y212386D01*
X407768D01*
Y218504D01*
X408768D01*
Y212386D01*
X410917D01*
Y218504D01*
X411917D01*
Y212386D01*
X413111D01*
Y210501D01*
X410912Y208302D01*
X410183Y207352D01*
X409724Y206245D01*
X409587Y205206D01*
X409239Y205137D01*
X408594Y204706D01*
X408163Y204061D01*
X408012Y203300D01*
X408163Y202539D01*
X408594Y201894D01*
X409239Y201463D01*
X410000Y201312D01*
X410761Y201463D01*
X411085Y201679D01*
X411863Y201083D01*
X412969Y200624D01*
X414157Y200468D01*
X415345Y200624D01*
X416452Y201083D01*
X417029Y201525D01*
X417600Y201412D01*
X418361Y201563D01*
X419006Y201994D01*
X419437Y202639D01*
X419588Y203400D01*
X419489Y203899D01*
X420945Y205355D01*
X420945Y205355D01*
X421674Y206305D01*
X422133Y207412D01*
X422289Y208600D01*
Y212416D01*
X422481Y212836D01*
X425131D01*
X425550Y212836D01*
X426050Y212836D01*
X428281D01*
X428700Y212836D01*
X429200Y212836D01*
X431430D01*
X431849Y212836D01*
X432349Y212836D01*
X434795Y212836D01*
X434945Y212336D01*
X421941Y199332D01*
X421673Y199279D01*
X421100Y198896D01*
X420717Y198324D01*
X420583Y197648D01*
X420717Y196973D01*
X421100Y196400D01*
X421673Y196017D01*
X422348Y195883D01*
X423024Y196017D01*
X423596Y196400D01*
X423979Y196973D01*
X424032Y197241D01*
X437575Y210785D01*
X437896Y211264D01*
X438008Y211830D01*
Y212427D01*
X438230Y212836D01*
X438649Y212836D01*
X440879D01*
X441298Y212836D01*
X441798Y212836D01*
X444079D01*
Y212386D01*
X445563D01*
Y218504D01*
Y224622D01*
X444079D01*
Y224172D01*
X441798D01*
X441379Y224172D01*
X440879Y224172D01*
X438649D01*
X438230Y224172D01*
X437730Y224172D01*
X435499D01*
X435080Y224172D01*
X434580Y224172D01*
X432349D01*
X431930Y224172D01*
X431430Y224172D01*
X429200D01*
X428781Y224172D01*
X428281Y224172D01*
X426050D01*
X425631Y224172D01*
X425131Y224172D01*
X422481D01*
X422289Y224592D01*
Y228300D01*
X422289Y228300D01*
X422133Y229488D01*
X421900Y230051D01*
X422224Y230480D01*
X422257Y230496D01*
X423516D01*
Y237008D01*
Y243520D01*
X422031D01*
Y243070D01*
X419332D01*
X419332Y243070D01*
X418864Y243147D01*
X418411Y243495D01*
X417304Y243953D01*
X416117Y244110D01*
X414929Y243953D01*
X413822Y243495D01*
X413407Y243177D01*
X412952Y243070D01*
X412952Y243070D01*
X412952Y243070D01*
X410252D01*
Y243520D01*
X408768D01*
Y237008D01*
X407768D01*
Y243520D01*
X405618D01*
Y237008D01*
X404618D01*
Y243520D01*
X403134D01*
Y243070D01*
X400803D01*
Y243520D01*
X399319D01*
Y237008D01*
Y230496D01*
X400404D01*
Y228116D01*
X400524Y227511D01*
X400867Y226998D01*
X402781Y225084D01*
X402590Y224622D01*
X402468D01*
Y218504D01*
Y212386D01*
X403538D01*
Y194582D01*
X403658Y193977D01*
X404001Y193464D01*
X412041Y185424D01*
Y172407D01*
X411634Y172182D01*
X407734D01*
X407548Y172605D01*
Y184445D01*
X407408Y185148D01*
X407010Y185743D01*
X406022Y186731D01*
X405427Y187129D01*
X405335Y187147D01*
X404988Y187665D01*
X404416Y188048D01*
X403740Y188182D01*
X403065Y188048D01*
X402492Y187665D01*
X402109Y187093D01*
X401975Y186417D01*
X402109Y185742D01*
X402425Y185269D01*
X402465Y184941D01*
X402425Y184613D01*
X402109Y184140D01*
X401975Y183465D01*
X402109Y182789D01*
X402492Y182217D01*
X402607Y182140D01*
Y181640D01*
X402492Y181563D01*
X402109Y180990D01*
X401975Y180315D01*
X402109Y179639D01*
X402492Y179067D01*
X403065Y178684D01*
X403740Y178550D01*
X403877Y178438D01*
Y172182D01*
X403797D01*
Y170087D01*
X399823D01*
Y172182D01*
X395923D01*
Y172182D01*
X395886D01*
Y172182D01*
X391986D01*
Y170087D01*
X388012D01*
Y172182D01*
X387684D01*
Y174075D01*
X387851Y174325D01*
X387985Y175000D01*
X387851Y175675D01*
X387684Y175925D01*
Y177225D01*
X387851Y177474D01*
X387985Y178150D01*
X387851Y178825D01*
X387684Y179074D01*
Y180374D01*
X387851Y180624D01*
X387985Y181299D01*
X387851Y181975D01*
X387684Y182224D01*
Y183524D01*
X387851Y183773D01*
X387985Y184449D01*
X387851Y185124D01*
X387684Y185374D01*
Y195807D01*
X387494Y197256D01*
X386934Y198606D01*
X386045Y199765D01*
X384886Y200655D01*
X384674Y200743D01*
X376758Y208658D01*
X375599Y209548D01*
X374249Y210107D01*
X373204Y210245D01*
X373067Y210301D01*
X371639Y210489D01*
X353712D01*
X353653Y210989D01*
X355619Y211461D01*
X357833Y212378D01*
X359876Y213630D01*
X361698Y215187D01*
X363254Y217009D01*
X364506Y219052D01*
X365423Y221266D01*
X365982Y223595D01*
X366170Y225984D01*
X365982Y228373D01*
X365423Y230703D01*
X364506Y232917D01*
X363254Y234960D01*
X361698Y236782D01*
X359876Y238338D01*
X357833Y239590D01*
X355619Y240507D01*
X353289Y241067D01*
X350900Y241255D01*
X348511Y241067D01*
X346181Y240507D01*
X343967Y239590D01*
X341924Y238338D01*
X340102Y236782D01*
X338546Y234960D01*
X337294Y232917D01*
X336377Y230703D01*
X335818Y228373D01*
X335630Y225984D01*
X335818Y223595D01*
X336377Y221266D01*
X337294Y219052D01*
X338546Y217009D01*
X340102Y215187D01*
X341924Y213630D01*
X343967Y212378D01*
X346181Y211461D01*
X348147Y210989D01*
X348088Y210489D01*
X326915D01*
X323432Y213972D01*
Y238659D01*
X343878Y259105D01*
X370742Y232242D01*
X370742Y232242D01*
X371901Y231352D01*
X372692Y231025D01*
X373251Y230793D01*
X373976Y230697D01*
X374700Y230602D01*
X374700Y230602D01*
X374806D01*
X374909Y230103D01*
X374301Y229637D01*
X373834Y229028D01*
X373540Y228320D01*
X373440Y227560D01*
X373540Y226799D01*
X373834Y226091D01*
X374301Y225483D01*
X374909Y225016D01*
X375617Y224722D01*
X376378Y224622D01*
X377138Y224722D01*
X377846Y225016D01*
X378454Y225483D01*
X378921Y226091D01*
X379215Y226799D01*
X379315Y227560D01*
X379215Y228320D01*
X378921Y229028D01*
X378454Y229637D01*
X377846Y230103D01*
X377949Y230602D01*
X388400D01*
X389849Y230793D01*
X390219Y230946D01*
X390904Y230946D01*
Y230946D01*
X390985D01*
Y230946D01*
X393685D01*
Y230496D01*
X395169D01*
Y237008D01*
Y243520D01*
X393685D01*
Y243070D01*
X390985D01*
X390985Y243070D01*
X390904D01*
Y243070D01*
X390485Y243070D01*
X387836D01*
Y243070D01*
X387755D01*
Y243070D01*
X384686D01*
Y241798D01*
X377019D01*
X307960Y310857D01*
Y377007D01*
X345749D01*
X346744Y377205D01*
X347587Y377769D01*
X366405Y396587D01*
X366969Y397430D01*
X367167Y398425D01*
Y407477D01*
X367170Y407760D01*
X367194Y408283D01*
X367221Y408556D01*
X368318Y408621D01*
X374553D01*
X375082Y408609D01*
X375727Y408561D01*
X376283Y408483D01*
X376747Y408378D01*
X377116Y408250D01*
X377388Y408110D01*
X377568Y407970D01*
X377673Y407837D01*
X377730Y407701D01*
X377760Y407462D01*
X377789Y407411D01*
Y406974D01*
X378270D01*
X378351Y406940D01*
X378387Y406955D01*
X378424Y406945D01*
X378475Y406974D01*
X384889D01*
Y415074D01*
X378488D01*
X378446Y415099D01*
X378397Y415088D01*
X378351Y415107D01*
X378270Y415074D01*
X377789D01*
Y414649D01*
X377763Y414607D01*
X377739Y414463D01*
X377712Y414412D01*
X377626Y414328D01*
X377447Y414221D01*
X377165Y414110D01*
X376783Y414009D01*
X376315Y413928D01*
X375081Y413828D01*
X374619Y413820D01*
X368851D01*
X368099Y413838D01*
X367651Y413876D01*
X367495Y413899D01*
X367379Y413924D01*
X367324Y413940D01*
X367322Y413942D01*
X367313Y413944D01*
X367279Y413960D01*
X367206Y414056D01*
X366433Y414649D01*
X365533Y415022D01*
X364567Y415149D01*
X363601Y415022D01*
X362701Y414649D01*
X361928Y414056D01*
X361343Y413292D01*
X361312Y413289D01*
X360842Y413400D01*
Y415567D01*
X357193D01*
Y411417D01*
Y407268D01*
X360842D01*
Y409435D01*
X361312Y409546D01*
X361343Y409542D01*
X361854Y408876D01*
X361867Y408841D01*
X361876Y408805D01*
X361967Y407470D01*
Y399502D01*
X344672Y382207D01*
X313532D01*
X313341Y382669D01*
X320734Y390062D01*
X328664D01*
X328664Y390062D01*
X329389Y390158D01*
X330113Y390253D01*
X330672Y390485D01*
X331463Y390812D01*
X332623Y391702D01*
X332624Y391703D01*
X333513Y392863D01*
X334072Y394213D01*
X334263Y395661D01*
X334072Y397110D01*
X333513Y398460D01*
X332624Y399620D01*
X331464Y400509D01*
X330114Y401069D01*
X328665Y401259D01*
X328657Y401258D01*
X318415D01*
X316967Y401067D01*
X315616Y400508D01*
X314457Y399619D01*
X314457Y399619D01*
X298404Y383565D01*
X297514Y382406D01*
X296955Y381056D01*
X296860Y380332D01*
X296764Y379607D01*
X296764Y379607D01*
Y308538D01*
X296764Y308538D01*
X296860Y307813D01*
X296955Y307089D01*
X297187Y306530D01*
X297514Y305739D01*
X298404Y304579D01*
X336074Y266910D01*
X314011Y244847D01*
X313134Y243704D01*
X312583Y242373D01*
X312395Y240945D01*
Y211687D01*
X312583Y210258D01*
X313134Y208927D01*
X314011Y207785D01*
X320727Y201069D01*
X321379Y200568D01*
X321210Y200068D01*
X201756Y200068D01*
Y411236D01*
X287402Y411236D01*
X287772Y411310D01*
X288086Y411520D01*
X288296Y411834D01*
X288370Y412205D01*
Y462701D01*
X291040Y465370D01*
X590460D01*
X593126Y462704D01*
D02*
G37*
%LPC*%
G36*
X439483Y457674D02*
X437094Y457486D01*
X434764Y456927D01*
X432550Y456010D01*
X430507Y454758D01*
X428685Y453202D01*
X427129Y451380D01*
X425877Y449336D01*
X424960Y447123D01*
X424400Y444793D01*
X424212Y442404D01*
X424400Y440015D01*
X424960Y437685D01*
X425877Y435471D01*
X427129Y433428D01*
X428685Y431606D01*
X430507Y430050D01*
X432550Y428798D01*
X434764Y427881D01*
X437094Y427322D01*
X439483Y427134D01*
X441872Y427322D01*
X444202Y427881D01*
X446415Y428798D01*
X448458Y430050D01*
X450280Y431606D01*
X451837Y433428D01*
X453089Y435471D01*
X454006Y437685D01*
X454565Y440015D01*
X454753Y442404D01*
X454565Y444793D01*
X454006Y447123D01*
X453089Y449336D01*
X451837Y451380D01*
X450280Y453202D01*
X448458Y454758D01*
X446415Y456010D01*
X444202Y456927D01*
X441872Y457486D01*
X439483Y457674D01*
D02*
G37*
G36*
X356193Y415567D02*
X352543D01*
Y411917D01*
X356193D01*
Y415567D01*
D02*
G37*
G36*
X391839Y415492D02*
Y411524D01*
X395373D01*
X395236Y412568D01*
X394833Y413541D01*
X394191Y414376D01*
X393356Y415018D01*
X392383Y415421D01*
X391839Y415492D01*
D02*
G37*
G36*
X390839D02*
X390294Y415421D01*
X389321Y415018D01*
X388486Y414376D01*
X387845Y413541D01*
X387441Y412568D01*
X387304Y411524D01*
X390839D01*
Y415492D01*
D02*
G37*
G36*
X356193Y410917D02*
X352543D01*
Y407268D01*
X356193D01*
Y410917D01*
D02*
G37*
G36*
X395373Y410524D02*
X391839D01*
Y406555D01*
X392383Y406627D01*
X393356Y407030D01*
X394191Y407671D01*
X394833Y408506D01*
X395236Y409479D01*
X395373Y410524D01*
D02*
G37*
G36*
X390839D02*
X387304D01*
X387441Y409479D01*
X387845Y408506D01*
X388486Y407671D01*
X389321Y407030D01*
X390294Y406627D01*
X390839Y406555D01*
Y410524D01*
D02*
G37*
G36*
X576984Y420770D02*
X574595Y420582D01*
X572265Y420023D01*
X570052Y419106D01*
X568009Y417854D01*
X566187Y416298D01*
X564630Y414476D01*
X563378Y412433D01*
X562461Y410219D01*
X561902Y407889D01*
X561714Y405500D01*
X561902Y403111D01*
X562461Y400781D01*
X563378Y398567D01*
X563959Y397620D01*
X563568Y397301D01*
X562407Y398382D01*
X558298Y401693D01*
X553963Y404703D01*
X549424Y407396D01*
X544704Y409759D01*
X539829Y411778D01*
X534821Y413445D01*
X529707Y414750D01*
X524514Y415687D01*
X519266Y416251D01*
X513992Y416440D01*
X508718Y416251D01*
X503471Y415687D01*
X498277Y414750D01*
X493163Y413445D01*
X488156Y411778D01*
X483280Y409759D01*
X478560Y407396D01*
X474022Y404703D01*
X469687Y401693D01*
X465577Y398382D01*
X464416Y397301D01*
X464026Y397620D01*
X464606Y398567D01*
X465523Y400781D01*
X466082Y403111D01*
X466270Y405500D01*
X466082Y407889D01*
X465523Y410219D01*
X464606Y412433D01*
X463354Y414476D01*
X461798Y416298D01*
X459976Y417854D01*
X457933Y419106D01*
X455719Y420023D01*
X453389Y420582D01*
X451000Y420770D01*
X448611Y420582D01*
X446281Y420023D01*
X444067Y419106D01*
X442024Y417854D01*
X440202Y416298D01*
X438646Y414476D01*
X437394Y412433D01*
X436477Y410219D01*
X435918Y407889D01*
X435730Y405500D01*
X435918Y403111D01*
X436477Y400781D01*
X437394Y398567D01*
X438646Y396524D01*
X440202Y394702D01*
X442024Y393146D01*
X444067Y391894D01*
X446281Y390977D01*
X448611Y390418D01*
X451000Y390230D01*
X453389Y390418D01*
X455719Y390977D01*
X457933Y391894D01*
X458880Y392474D01*
X459199Y392084D01*
X458118Y390923D01*
X454807Y386813D01*
X451797Y382478D01*
X449104Y377940D01*
X446741Y373220D01*
X444722Y368344D01*
X443055Y363337D01*
X441750Y358223D01*
X440813Y353029D01*
X440249Y347782D01*
X440060Y342508D01*
X440249Y337234D01*
X440813Y331986D01*
X441750Y326793D01*
X443055Y321679D01*
X444722Y316671D01*
X446741Y311795D01*
X449104Y307076D01*
X451797Y302537D01*
X454807Y298202D01*
X458118Y294093D01*
X459199Y292932D01*
X458880Y292541D01*
X457933Y293122D01*
X455719Y294039D01*
X453389Y294598D01*
X451000Y294786D01*
X448611Y294598D01*
X446281Y294039D01*
X444067Y293122D01*
X442024Y291870D01*
X440202Y290314D01*
X438646Y288491D01*
X437394Y286448D01*
X436477Y284234D01*
X435918Y281905D01*
X435730Y279516D01*
X435918Y277127D01*
X436477Y274797D01*
X437394Y272583D01*
X438646Y270540D01*
X440202Y268718D01*
X442024Y267162D01*
X444067Y265910D01*
X446281Y264993D01*
X448611Y264433D01*
X451000Y264245D01*
X453389Y264433D01*
X455719Y264993D01*
X457933Y265910D01*
X459976Y267162D01*
X461798Y268718D01*
X463354Y270540D01*
X464606Y272583D01*
X465523Y274797D01*
X466082Y277127D01*
X466270Y279516D01*
X466082Y281905D01*
X465523Y284234D01*
X464606Y286448D01*
X464026Y287395D01*
X464416Y287715D01*
X465577Y286634D01*
X469687Y283322D01*
X474022Y280312D01*
X478560Y277620D01*
X483280Y275257D01*
X488156Y273237D01*
X493163Y271571D01*
X498277Y270266D01*
X503471Y269329D01*
X508718Y268764D01*
X513992Y268576D01*
X519266Y268764D01*
X524514Y269329D01*
X529707Y270266D01*
X534821Y271571D01*
X539829Y273237D01*
X544704Y275257D01*
X549424Y277620D01*
X553963Y280312D01*
X558298Y283322D01*
X562407Y286634D01*
X563568Y287715D01*
X563959Y287395D01*
X563378Y286448D01*
X562461Y284234D01*
X561902Y281905D01*
X561714Y279516D01*
X561902Y277127D01*
X562461Y274797D01*
X563378Y272583D01*
X564630Y270540D01*
X566187Y268718D01*
X568009Y267162D01*
X570052Y265910D01*
X572265Y264993D01*
X574595Y264433D01*
X576984Y264245D01*
X579373Y264433D01*
X581703Y264993D01*
X583917Y265910D01*
X585960Y267162D01*
X587782Y268718D01*
X589338Y270540D01*
X590590Y272583D01*
X591507Y274797D01*
X592067Y277127D01*
X592255Y279516D01*
X592067Y281905D01*
X591507Y284234D01*
X590590Y286448D01*
X589338Y288491D01*
X587782Y290314D01*
X585960Y291870D01*
X583917Y293122D01*
X581703Y294039D01*
X579373Y294598D01*
X576984Y294786D01*
X574595Y294598D01*
X572265Y294039D01*
X570052Y293122D01*
X569105Y292541D01*
X568785Y292932D01*
X569866Y294093D01*
X573177Y298202D01*
X576188Y302537D01*
X578881Y307076D01*
X581243Y311795D01*
X583262Y316671D01*
X584929Y321679D01*
X586234Y326793D01*
X587171Y331986D01*
X587736Y337234D01*
X587924Y342508D01*
X587736Y347782D01*
X587171Y353029D01*
X586234Y358223D01*
X584929Y363337D01*
X583262Y368344D01*
X581243Y373220D01*
X578881Y377940D01*
X576188Y382478D01*
X573177Y386813D01*
X569866Y390923D01*
X568785Y392084D01*
X569105Y392474D01*
X570052Y391894D01*
X572265Y390977D01*
X574595Y390418D01*
X576984Y390230D01*
X579373Y390418D01*
X581703Y390977D01*
X583917Y391894D01*
X585960Y393146D01*
X587782Y394702D01*
X589338Y396524D01*
X590590Y398567D01*
X591507Y400781D01*
X592067Y403111D01*
X592255Y405500D01*
X592067Y407889D01*
X591507Y410219D01*
X590590Y412433D01*
X589338Y414476D01*
X587782Y416298D01*
X585960Y417854D01*
X583917Y419106D01*
X581703Y420023D01*
X579373Y420582D01*
X576984Y420770D01*
D02*
G37*
G36*
X287165Y400572D02*
Y396161D01*
X291234D01*
X291092Y397241D01*
X290634Y398346D01*
X289906Y399295D01*
X288957Y400024D01*
X287851Y400482D01*
X287165Y400572D01*
D02*
G37*
G36*
X277165D02*
Y396161D01*
X281234D01*
X281092Y397241D01*
X280634Y398346D01*
X279906Y399295D01*
X278957Y400024D01*
X277851Y400482D01*
X277165Y400572D01*
D02*
G37*
G36*
X286165D02*
X285479Y400482D01*
X284374Y400024D01*
X283425Y399295D01*
X282697Y398346D01*
X282239Y397241D01*
X282097Y396161D01*
X286165D01*
Y400572D01*
D02*
G37*
G36*
X276165D02*
X275479Y400482D01*
X274374Y400024D01*
X273425Y399295D01*
X272697Y398346D01*
X272239Y397241D01*
X272097Y396161D01*
X276165D01*
Y400572D01*
D02*
G37*
G36*
X291234Y395161D02*
X287165D01*
Y390751D01*
X287851Y390841D01*
X288957Y391299D01*
X289906Y392027D01*
X290634Y392976D01*
X291092Y394082D01*
X291234Y395161D01*
D02*
G37*
G36*
X281234D02*
X277165D01*
Y390751D01*
X277851Y390841D01*
X278957Y391299D01*
X279906Y392027D01*
X280634Y392976D01*
X281092Y394082D01*
X281234Y395161D01*
D02*
G37*
G36*
X286165D02*
X282097D01*
X282239Y394082D01*
X282697Y392976D01*
X283425Y392027D01*
X284374Y391299D01*
X285479Y390841D01*
X286165Y390751D01*
Y395161D01*
D02*
G37*
G36*
X276165D02*
X272097D01*
X272239Y394082D01*
X272697Y392976D01*
X273425Y392027D01*
X274374Y391299D01*
X275479Y390841D01*
X276165Y390751D01*
Y395161D01*
D02*
G37*
G36*
X378705Y336760D02*
X378625Y336727D01*
X378143D01*
Y336312D01*
X378120Y336277D01*
X378097Y336155D01*
X378074Y336119D01*
X377971Y336034D01*
X377753Y335923D01*
X377419Y335811D01*
X376976Y335711D01*
X376436Y335631D01*
X375035Y335535D01*
X374196Y335522D01*
X374147Y335501D01*
X366961D01*
X366654Y335737D01*
X365754Y336109D01*
X364789Y336237D01*
X363823Y336109D01*
X362923Y335737D01*
X362150Y335144D01*
X361564Y334380D01*
X361534Y334376D01*
X361064Y334488D01*
Y336655D01*
X357415D01*
Y332505D01*
Y328355D01*
X361064D01*
Y330241D01*
X361564Y330458D01*
X361792Y330251D01*
Y324841D01*
X357492Y320541D01*
X338504D01*
X335812Y323233D01*
X335793Y323281D01*
X335334Y323762D01*
X334502Y324768D01*
X334141Y325275D01*
X333480Y326370D01*
X333203Y326919D01*
X332712Y328103D01*
X332509Y328718D01*
X332407Y328836D01*
X332241Y329238D01*
X331585Y330093D01*
X330730Y330749D01*
X329734Y331161D01*
X328665Y331302D01*
X327597Y331161D01*
X326601Y330749D01*
X326449Y330632D01*
X326351Y330610D01*
X326087Y330425D01*
X325796Y330271D01*
X325438Y330128D01*
X325014Y329999D01*
X324526Y329887D01*
X323987Y329796D01*
X323627Y329768D01*
X323350Y329795D01*
X322805Y329887D01*
X322316Y329999D01*
X321893Y330128D01*
X321535Y330271D01*
X321243Y330425D01*
X320979Y330610D01*
X320881Y330632D01*
X320730Y330749D01*
X319734Y331161D01*
X318665Y331302D01*
X317597Y331161D01*
X316601Y330749D01*
X315746Y330093D01*
X315090Y329238D01*
X314677Y328242D01*
X314537Y327173D01*
Y326386D01*
X314677Y325317D01*
X315090Y324322D01*
X315746Y323466D01*
X316601Y322810D01*
X317597Y322398D01*
X318665Y322257D01*
X319734Y322398D01*
X320730Y322810D01*
X320881Y322927D01*
X320979Y322949D01*
X321244Y323134D01*
X321535Y323288D01*
X321893Y323431D01*
X322316Y323560D01*
X322805Y323672D01*
X323344Y323763D01*
X323704Y323791D01*
X323981Y323764D01*
X324526Y323672D01*
X325014Y323560D01*
X325438Y323431D01*
X325796Y323288D01*
X326087Y323134D01*
X326351Y322949D01*
X326449Y322927D01*
X326601Y322810D01*
X326906Y322684D01*
X326921Y322655D01*
X327027Y322620D01*
X327111Y322546D01*
X327515Y322405D01*
X327914Y322230D01*
X328327Y322017D01*
X329234Y321444D01*
X329693Y321107D01*
X331228Y319785D01*
X331766Y319262D01*
X331815Y319242D01*
X335338Y315720D01*
X335923Y315271D01*
X336604Y314989D01*
X337335Y314892D01*
X358661D01*
X359392Y314989D01*
X360073Y315271D01*
X360658Y315720D01*
X366613Y321674D01*
X367062Y322259D01*
X367344Y322940D01*
X367441Y323672D01*
Y329853D01*
X374140D01*
X374187Y329832D01*
X375789Y329783D01*
X376429Y329724D01*
X376976Y329643D01*
X377419Y329544D01*
X377753Y329431D01*
X377971Y329320D01*
X378074Y329235D01*
X378097Y329200D01*
X378120Y329077D01*
X378143Y329043D01*
Y328627D01*
X378625D01*
X378705Y328594D01*
X378759Y328616D01*
X378817Y328604D01*
X378851Y328627D01*
X385243D01*
Y336727D01*
X378851D01*
X378817Y336750D01*
X378759Y336738D01*
X378705Y336760D01*
D02*
G37*
G36*
X392193Y337146D02*
Y333177D01*
X395727D01*
X395590Y334221D01*
X395187Y335194D01*
X394546Y336030D01*
X393710Y336671D01*
X392737Y337074D01*
X392193Y337146D01*
D02*
G37*
G36*
X391193D02*
X390649Y337074D01*
X389676Y336671D01*
X388840Y336030D01*
X388199Y335194D01*
X387796Y334221D01*
X387658Y333177D01*
X391193D01*
Y337146D01*
D02*
G37*
G36*
X356415Y336655D02*
X352765D01*
Y333005D01*
X356415D01*
Y336655D01*
D02*
G37*
G36*
Y332005D02*
X352765D01*
Y328355D01*
X356415D01*
Y332005D01*
D02*
G37*
G36*
X395727Y332177D02*
X392193D01*
Y328208D01*
X392737Y328280D01*
X393710Y328683D01*
X394546Y329324D01*
X395187Y330160D01*
X395590Y331133D01*
X395727Y332177D01*
D02*
G37*
G36*
X391193D02*
X387658D01*
X387796Y331133D01*
X388199Y330160D01*
X388840Y329324D01*
X389676Y328683D01*
X390649Y328280D01*
X391193Y328208D01*
Y332177D01*
D02*
G37*
G36*
X287165Y331690D02*
Y327279D01*
X291234D01*
X291092Y328359D01*
X290634Y329465D01*
X289906Y330414D01*
X288957Y331142D01*
X287851Y331600D01*
X287165Y331690D01*
D02*
G37*
G36*
X276665D02*
Y327279D01*
X280734D01*
X280592Y328359D01*
X280134Y329465D01*
X279406Y330414D01*
X278457Y331142D01*
X277351Y331600D01*
X276665Y331690D01*
D02*
G37*
G36*
X286165D02*
X285479Y331600D01*
X284374Y331142D01*
X283425Y330414D01*
X282697Y329465D01*
X282239Y328359D01*
X282097Y327279D01*
X286165D01*
Y331690D01*
D02*
G37*
G36*
X275665D02*
X274979Y331600D01*
X273874Y331142D01*
X272925Y330414D01*
X272197Y329465D01*
X271739Y328359D01*
X271597Y327279D01*
X275665D01*
Y331690D01*
D02*
G37*
G36*
X291234Y326279D02*
X287165D01*
Y321869D01*
X287851Y321959D01*
X288957Y322417D01*
X289906Y323146D01*
X290634Y324095D01*
X291092Y325200D01*
X291234Y326279D01*
D02*
G37*
G36*
X280734D02*
X276665D01*
Y321869D01*
X277351Y321959D01*
X278457Y322417D01*
X279406Y323146D01*
X280134Y324095D01*
X280592Y325200D01*
X280734Y326279D01*
D02*
G37*
G36*
X286165D02*
X282097D01*
X282239Y325200D01*
X282697Y324095D01*
X283425Y323146D01*
X284374Y322417D01*
X285479Y321959D01*
X286165Y321869D01*
Y326279D01*
D02*
G37*
G36*
X275665D02*
X271597D01*
X271739Y325200D01*
X272197Y324095D01*
X272925Y323146D01*
X273874Y322417D01*
X274979Y321959D01*
X275665Y321869D01*
Y326279D01*
D02*
G37*
G36*
X565248Y243520D02*
X563764D01*
Y243070D01*
X561484D01*
X561065Y243070D01*
Y243070D01*
X560984D01*
Y243070D01*
X558284D01*
Y243520D01*
X556800D01*
Y237008D01*
Y230496D01*
X558028D01*
X558299Y230002D01*
X558148Y229775D01*
X558013Y229100D01*
X558148Y228425D01*
X558530Y227852D01*
X559103Y227469D01*
X559778Y227335D01*
X560454Y227469D01*
X561026Y227852D01*
X561443D01*
X562015Y227469D01*
X562691Y227335D01*
X563366Y227469D01*
X563939Y227852D01*
X564321Y228425D01*
X564456Y229100D01*
X564321Y229775D01*
X564174Y229996D01*
X564441Y230496D01*
X565248D01*
Y237008D01*
Y243520D01*
D02*
G37*
G36*
X552650D02*
X551166D01*
Y243070D01*
X548466D01*
Y243070D01*
X548385D01*
Y243070D01*
X545686D01*
Y243520D01*
X544201D01*
Y237008D01*
Y230496D01*
X545183D01*
X545450Y229996D01*
X545369Y229875D01*
X545235Y229200D01*
X545369Y228525D01*
X545752Y227952D01*
X546325Y227569D01*
X547000Y227435D01*
X547675Y227569D01*
X548120Y227866D01*
X548456Y227919D01*
X548792Y227866D01*
X549237Y227569D01*
X549912Y227435D01*
X550588Y227569D01*
X551160Y227952D01*
X551543Y228525D01*
X551677Y229200D01*
X551543Y229875D01*
X551462Y229996D01*
X551729Y230496D01*
X552650D01*
Y237008D01*
Y243520D01*
D02*
G37*
G36*
X540052D02*
X538567D01*
Y243070D01*
X536287D01*
X535868Y243070D01*
Y243070D01*
X535787D01*
Y243070D01*
X533087D01*
Y243520D01*
X531603D01*
Y237008D01*
Y230496D01*
X532716D01*
X532984Y229996D01*
X532769Y229675D01*
X532635Y229000D01*
X532769Y228325D01*
X533152Y227752D01*
X533725Y227369D01*
X534400Y227235D01*
X535075Y227369D01*
X535648Y227752D01*
X536064D01*
X536637Y227369D01*
X537312Y227235D01*
X537988Y227369D01*
X538560Y227752D01*
X538943Y228325D01*
X539077Y229000D01*
X538943Y229675D01*
X538729Y229996D01*
X538996Y230496D01*
X540052D01*
Y237008D01*
Y243520D01*
D02*
G37*
G36*
X527453D02*
X525969D01*
Y243070D01*
X523269D01*
Y243070D01*
X523188D01*
Y243070D01*
X520489D01*
Y243520D01*
X519004D01*
Y237008D01*
Y230496D01*
X519983D01*
X520250Y229996D01*
X520169Y229875D01*
X520035Y229200D01*
X520169Y228525D01*
X520552Y227952D01*
X521125Y227569D01*
X521800Y227435D01*
X522475Y227569D01*
X523048Y227952D01*
X523464D01*
X524037Y227569D01*
X524712Y227435D01*
X525388Y227569D01*
X525960Y227952D01*
X526343Y228525D01*
X526477Y229200D01*
X526343Y229875D01*
X526262Y229996D01*
X526530Y230496D01*
X527453D01*
Y237008D01*
Y243520D01*
D02*
G37*
G36*
X514855D02*
X513371D01*
Y243070D01*
X510671D01*
Y243070D01*
X510590D01*
Y243070D01*
X507890D01*
Y243520D01*
X506406D01*
Y237008D01*
Y230496D01*
X507383D01*
X507650Y229996D01*
X507569Y229875D01*
X507435Y229200D01*
X507569Y228525D01*
X507952Y227952D01*
X508525Y227569D01*
X509200Y227435D01*
X509875Y227569D01*
X510448Y227952D01*
X510864D01*
X511437Y227569D01*
X512112Y227435D01*
X512788Y227569D01*
X513360Y227952D01*
X513743Y228525D01*
X513877Y229200D01*
X513743Y229875D01*
X513662Y229996D01*
X513930Y230496D01*
X514855D01*
Y237008D01*
Y243520D01*
D02*
G37*
G36*
X502256D02*
X500772D01*
Y243070D01*
X498072D01*
Y243070D01*
X497992D01*
Y243070D01*
X495292D01*
Y243520D01*
X493808D01*
Y237008D01*
Y230496D01*
X494783D01*
X495050Y229996D01*
X494969Y229875D01*
X494835Y229200D01*
X494969Y228525D01*
X495352Y227952D01*
X495925Y227569D01*
X496600Y227435D01*
X497275Y227569D01*
X497848Y227952D01*
X498264D01*
X498837Y227569D01*
X499512Y227435D01*
X500188Y227569D01*
X500760Y227952D01*
X501143Y228525D01*
X501277Y229200D01*
X501143Y229875D01*
X501062Y229996D01*
X501330Y230496D01*
X502256D01*
Y237008D01*
Y243520D01*
D02*
G37*
G36*
X489658D02*
X488174D01*
Y243070D01*
X485474D01*
Y243070D01*
X485393D01*
Y243070D01*
X482693D01*
Y243520D01*
X481209D01*
Y237008D01*
Y230496D01*
X482283D01*
X482550Y229996D01*
X482469Y229875D01*
X482335Y229200D01*
X482469Y228525D01*
X482852Y227952D01*
X483425Y227569D01*
X484100Y227435D01*
X484775Y227569D01*
X485220Y227866D01*
X485556Y227919D01*
X485892Y227866D01*
X486337Y227569D01*
X487012Y227435D01*
X487688Y227569D01*
X488260Y227952D01*
X488643Y228525D01*
X488777Y229200D01*
X488643Y229875D01*
X488562Y229996D01*
X488830Y230496D01*
X489658D01*
Y237008D01*
Y243520D01*
D02*
G37*
G36*
X477060D02*
X475575D01*
Y243070D01*
X472876D01*
Y243070D01*
X472795D01*
Y243070D01*
X470095D01*
Y243520D01*
X468611D01*
Y237008D01*
Y230496D01*
X469487D01*
X469754Y229996D01*
X469629Y229809D01*
X469495Y229134D01*
X469629Y228458D01*
X470012Y227886D01*
X470584Y227503D01*
X471260Y227369D01*
X471935Y227503D01*
X472380Y227800D01*
X472716Y227853D01*
X473052Y227800D01*
X473497Y227503D01*
X474172Y227369D01*
X474848Y227503D01*
X475420Y227886D01*
X475803Y228458D01*
X475937Y229134D01*
X475803Y229809D01*
X475678Y229996D01*
X475945Y230496D01*
X477060D01*
Y237008D01*
Y243520D01*
D02*
G37*
G36*
X464461D02*
X462977D01*
Y243070D01*
X460277D01*
Y243070D01*
X460196D01*
Y243070D01*
X457497D01*
Y243520D01*
X456012D01*
Y237008D01*
Y230496D01*
X457016D01*
X457283Y229996D01*
X457269Y229975D01*
X457135Y229300D01*
X457269Y228625D01*
X457652Y228052D01*
X458225Y227669D01*
X458900Y227535D01*
X459575Y227669D01*
X460020Y227966D01*
X460356Y228019D01*
X460692Y227966D01*
X461137Y227669D01*
X461812Y227535D01*
X462488Y227669D01*
X463060Y228052D01*
X463443Y228625D01*
X463577Y229300D01*
X463443Y229975D01*
X463390Y230055D01*
X463625Y230496D01*
X464461D01*
Y237008D01*
Y243520D01*
D02*
G37*
G36*
X451863D02*
X450378D01*
Y243070D01*
X448097D01*
X447679Y243070D01*
X447179Y243070D01*
X444898D01*
Y243520D01*
X443413D01*
Y237008D01*
Y230496D01*
X444898D01*
Y230946D01*
X447179D01*
X447597Y230946D01*
X448097Y230946D01*
X450378D01*
Y230496D01*
X451863D01*
Y237008D01*
Y243520D01*
D02*
G37*
G36*
X442413D02*
X440929D01*
Y243070D01*
X438649D01*
X438230Y243070D01*
X437730Y243070D01*
X435499D01*
X435080Y243070D01*
X434580Y243070D01*
X432349D01*
X431930Y243070D01*
X431430Y243070D01*
X429200D01*
X428781Y243070D01*
X428281Y243070D01*
X426000D01*
Y243520D01*
X424516D01*
Y237008D01*
Y230496D01*
X426000D01*
Y230946D01*
X428281D01*
X428700Y230946D01*
X429200Y230946D01*
X431430D01*
X431849Y230946D01*
X432349Y230946D01*
X434580D01*
X434999Y230946D01*
X435442Y230808D01*
Y229600D01*
X434814Y228973D01*
X431898D01*
X431848Y229048D01*
X431275Y229431D01*
X430600Y229565D01*
X429925Y229431D01*
X429352Y229048D01*
X428969Y228475D01*
X428835Y227800D01*
X428969Y227125D01*
X429352Y226552D01*
X429925Y226169D01*
X430600Y226035D01*
X431275Y226169D01*
X431848Y226552D01*
X431898Y226627D01*
X435300D01*
X435749Y226717D01*
X436129Y226971D01*
X437443Y228285D01*
X437698Y228665D01*
X437787Y229114D01*
Y230808D01*
X438230Y230946D01*
X438649Y230946D01*
X440929D01*
Y230496D01*
X442413D01*
Y237008D01*
Y243520D01*
D02*
G37*
G36*
X568398D02*
X566249D01*
Y237008D01*
Y230496D01*
X568398D01*
Y237008D01*
Y243520D01*
D02*
G37*
G36*
X555800D02*
X553650D01*
Y237008D01*
Y230496D01*
X555800D01*
Y237008D01*
Y243520D01*
D02*
G37*
G36*
X543201D02*
X541052D01*
Y237008D01*
Y230496D01*
X543201D01*
Y237008D01*
Y243520D01*
D02*
G37*
G36*
X530603D02*
X528453D01*
Y237008D01*
Y230496D01*
X530603D01*
Y237008D01*
Y243520D01*
D02*
G37*
G36*
X518005D02*
X515855D01*
Y237008D01*
Y230496D01*
X518005D01*
Y237008D01*
Y243520D01*
D02*
G37*
G36*
X505406D02*
X503256D01*
Y237008D01*
Y230496D01*
X505406D01*
Y237008D01*
Y243520D01*
D02*
G37*
G36*
X492808D02*
X490658D01*
Y237008D01*
Y230496D01*
X492808D01*
Y237008D01*
Y243520D01*
D02*
G37*
G36*
X480209D02*
X478060D01*
Y237008D01*
Y230496D01*
X480209D01*
Y237008D01*
Y243520D01*
D02*
G37*
G36*
X467611D02*
X465461D01*
Y237008D01*
Y230496D01*
X467611D01*
Y237008D01*
Y243520D01*
D02*
G37*
G36*
X455012D02*
X452863D01*
Y237008D01*
Y230496D01*
X455012D01*
Y237008D01*
Y243520D01*
D02*
G37*
G36*
X398319D02*
X396169D01*
Y237008D01*
Y230496D01*
X398319D01*
Y237008D01*
Y243520D01*
D02*
G37*
G36*
X581889Y229726D02*
X581061Y229561D01*
X580358Y229092D01*
X579888Y228389D01*
X579723Y227560D01*
X579888Y226731D01*
X580358Y226028D01*
X581061Y225558D01*
X581889Y225393D01*
X582719Y225558D01*
X583421Y226028D01*
X583891Y226731D01*
X584056Y227560D01*
X583891Y228389D01*
X583421Y229092D01*
X582719Y229561D01*
X581889Y229726D01*
D02*
G37*
G36*
X470760Y224622D02*
X469276D01*
Y224172D01*
X466995D01*
X466576Y224172D01*
X466077Y224172D01*
X463796D01*
Y224622D01*
X462312D01*
Y218504D01*
Y212386D01*
X463796D01*
Y212836D01*
X466077D01*
X466495Y212836D01*
X466995Y212836D01*
X469276D01*
Y212386D01*
X470760D01*
Y218504D01*
Y224622D01*
D02*
G37*
G36*
X458162D02*
X456678D01*
Y224172D01*
X454397D01*
X453978Y224172D01*
X453478Y224172D01*
X451197D01*
Y224622D01*
X449713D01*
Y218504D01*
Y212386D01*
X451197D01*
Y212836D01*
X453478D01*
X453897Y212836D01*
X454397Y212836D01*
X456678D01*
Y212386D01*
X458162D01*
Y218504D01*
Y224622D01*
D02*
G37*
G36*
X398319D02*
X396835D01*
Y224172D01*
X394135D01*
X394135Y224172D01*
X394054D01*
Y224172D01*
X393635Y224172D01*
X391404D01*
X390985Y224172D01*
Y224172D01*
X390904D01*
Y224172D01*
X388255D01*
X387836Y224172D01*
Y224172D01*
X387755D01*
Y224172D01*
X384686D01*
Y213600D01*
X382809Y211723D01*
X382600Y211765D01*
X381925Y211631D01*
X381352Y211248D01*
X380969Y210675D01*
X380835Y210000D01*
X380969Y209325D01*
X381352Y208752D01*
X381925Y208369D01*
X382600Y208235D01*
X383275Y208369D01*
X383848Y208752D01*
X384231Y209325D01*
X384365Y210000D01*
X384323Y210209D01*
X386950Y212836D01*
X387559D01*
Y210600D01*
X387239Y210537D01*
X386594Y210106D01*
X386163Y209461D01*
X386012Y208700D01*
X386163Y207939D01*
X386594Y207294D01*
X387143Y206927D01*
X387188Y206699D01*
Y206600D01*
X387143Y206372D01*
X386594Y206006D01*
X386163Y205361D01*
X386012Y204600D01*
X386163Y203839D01*
X386594Y203194D01*
X387239Y202763D01*
X388000Y202612D01*
X388026Y202617D01*
X388207Y202179D01*
X388977Y201177D01*
X389979Y200407D01*
X391147Y199924D01*
X392400Y199759D01*
X393653Y199924D01*
X394821Y200407D01*
X395823Y201177D01*
X396593Y202179D01*
X396774Y202617D01*
X396800Y202612D01*
X397561Y202763D01*
X398206Y203194D01*
X398637Y203839D01*
X398788Y204600D01*
X398637Y205361D01*
X398206Y206006D01*
X397732Y206322D01*
X397728Y206334D01*
Y206866D01*
X397732Y206878D01*
X398206Y207194D01*
X398637Y207839D01*
X398788Y208600D01*
X398637Y209361D01*
X398206Y210006D01*
X397561Y210437D01*
X397241Y210500D01*
Y212386D01*
X398319D01*
Y218504D01*
Y224622D01*
D02*
G37*
G36*
X571548Y224622D02*
X570063D01*
Y224172D01*
X567364D01*
Y224172D01*
X567283D01*
Y224172D01*
X564583D01*
Y224622D01*
X563099D01*
Y218504D01*
Y212386D01*
X564583D01*
Y212836D01*
X565276D01*
Y199578D01*
X565254D01*
X565429Y198253D01*
X565941Y197018D01*
X566754Y195957D01*
X566754Y195957D01*
X566995Y195557D01*
X567051Y195274D01*
X567060D01*
Y188747D01*
X566976Y188731D01*
X566403Y188348D01*
X566020Y187775D01*
X565886Y187100D01*
X566020Y186425D01*
X566403Y185852D01*
X566976Y185469D01*
X567651Y185335D01*
X568326Y185469D01*
X568899Y185852D01*
X569315D01*
X569888Y185469D01*
X570563Y185335D01*
X571239Y185469D01*
X571811Y185852D01*
X572194Y186425D01*
X572328Y187100D01*
X572194Y187775D01*
X571811Y188348D01*
X571239Y188731D01*
X571155Y188747D01*
Y195281D01*
X571176D01*
X571002Y196597D01*
X570494Y197823D01*
X569686Y198877D01*
X569686Y198877D01*
X569441Y199275D01*
X569379Y199587D01*
X569371D01*
Y212836D01*
X570063D01*
Y212386D01*
X571548D01*
Y218504D01*
Y224622D01*
D02*
G37*
G36*
X558949D02*
X557465D01*
Y224172D01*
X554765D01*
Y224172D01*
X554684D01*
Y224172D01*
X551985D01*
Y224622D01*
X550500D01*
Y218504D01*
Y212386D01*
X551985D01*
Y212836D01*
X552677D01*
Y183401D01*
X551988Y182501D01*
X551469Y181251D01*
X551293Y179908D01*
X551314D01*
X551314Y179908D01*
Y176247D01*
X551230Y176231D01*
X550658Y175848D01*
X550275Y175275D01*
X550141Y174600D01*
X550275Y173925D01*
X550658Y173352D01*
X551230Y172969D01*
X551906Y172835D01*
X552581Y172969D01*
X553154Y173352D01*
X553570D01*
X554143Y172969D01*
X554818Y172835D01*
X555494Y172969D01*
X556066Y173352D01*
X556449Y173925D01*
X556583Y174600D01*
X556449Y175275D01*
X556066Y175848D01*
X555494Y176231D01*
X555410Y176247D01*
Y179900D01*
X555416D01*
X555489Y180268D01*
X555735Y180666D01*
X555735Y180666D01*
X556302Y181405D01*
X556659Y182265D01*
X556780Y183189D01*
X556773D01*
Y212836D01*
X557465D01*
Y212386D01*
X558949D01*
Y218504D01*
Y224622D01*
D02*
G37*
G36*
X546351D02*
X544867D01*
Y224172D01*
X542167D01*
Y224172D01*
X542086D01*
Y224172D01*
X539386D01*
Y224622D01*
X537902D01*
Y218504D01*
Y212386D01*
X539386D01*
Y212836D01*
X540079D01*
Y190605D01*
X540083Y190584D01*
X539951Y189241D01*
X539553Y187930D01*
X538907Y186721D01*
X538346Y186038D01*
X538016Y185675D01*
X537709Y185301D01*
X536970Y184399D01*
X536192Y182945D01*
X535713Y181366D01*
X535551Y179725D01*
X535569D01*
Y176547D01*
X535485Y176531D01*
X534913Y176148D01*
X534530Y175575D01*
X534396Y174900D01*
X534530Y174225D01*
X534913Y173652D01*
X535485Y173269D01*
X536161Y173135D01*
X536836Y173269D01*
X537409Y173652D01*
X537825D01*
X538398Y173269D01*
X539073Y173135D01*
X539748Y173269D01*
X540321Y173652D01*
X540704Y174225D01*
X540838Y174900D01*
X540704Y175575D01*
X540321Y176148D01*
X539748Y176531D01*
X539665Y176547D01*
Y179219D01*
X539665Y179227D01*
X539665Y179718D01*
X539718Y180196D01*
X539802Y180838D01*
X540235Y181881D01*
X540629Y182395D01*
X540941Y182766D01*
X540940Y182766D01*
X542070Y184088D01*
X542978Y185570D01*
X543643Y187177D01*
X544049Y188867D01*
X544186Y190600D01*
X544174D01*
Y212836D01*
X544867D01*
Y212386D01*
X546351D01*
Y218504D01*
Y224622D01*
D02*
G37*
G36*
X533752D02*
X532268D01*
Y224172D01*
X529569D01*
Y224172D01*
X529488D01*
Y224172D01*
X526788D01*
Y224622D01*
X525304D01*
Y218504D01*
Y212386D01*
X526788D01*
Y212836D01*
X527481D01*
Y197909D01*
X527485Y197888D01*
X527352Y196544D01*
X526954Y195232D01*
X526308Y194022D01*
X525451Y192978D01*
X525433Y192966D01*
X521767Y189300D01*
X521761Y189307D01*
X520934Y188300D01*
X520321Y187152D01*
X519943Y185906D01*
X519839Y184850D01*
X519740Y184831D01*
X519168Y184448D01*
X518785Y183875D01*
X518651Y183200D01*
X518785Y182525D01*
X519168Y181952D01*
X519740Y181569D01*
X520416Y181435D01*
X521091Y181569D01*
X521664Y181952D01*
X522080D01*
X522652Y181569D01*
X523328Y181435D01*
X524003Y181569D01*
X524576Y181952D01*
X524959Y182525D01*
X525093Y183200D01*
X524959Y183875D01*
X524576Y184448D01*
X524003Y184831D01*
X523945Y184842D01*
X524093Y185589D01*
X524386Y186026D01*
X524668Y186409D01*
X525016Y186758D01*
X528343Y190085D01*
X528343Y190085D01*
X528352Y190077D01*
X529477Y191395D01*
X530383Y192873D01*
X531046Y194475D01*
X531451Y196160D01*
X531587Y197889D01*
X531576D01*
Y212836D01*
X532268D01*
Y212386D01*
X533752D01*
Y218504D01*
Y224622D01*
D02*
G37*
G36*
X521154D02*
X519670D01*
Y224172D01*
X516970D01*
Y224172D01*
X516889D01*
Y224172D01*
X514189D01*
Y224622D01*
X512705D01*
Y218504D01*
Y212386D01*
X514189D01*
Y212836D01*
X514882D01*
Y203072D01*
X514892Y203021D01*
X514727Y201347D01*
X514224Y199688D01*
X513407Y198159D01*
X512340Y196859D01*
X512297Y196830D01*
X501963Y186496D01*
X501944Y186514D01*
X500695Y184992D01*
X499766Y183255D01*
X499195Y181370D01*
X499025Y179647D01*
X498944Y179631D01*
X498371Y179248D01*
X497988Y178675D01*
X497854Y178000D01*
X497988Y177325D01*
X498371Y176752D01*
X498944Y176369D01*
X499619Y176235D01*
X500294Y176369D01*
X500867Y176752D01*
X501283D01*
X501856Y176369D01*
X502531Y176235D01*
X503206Y176369D01*
X503779Y176752D01*
X504162Y177325D01*
X504296Y178000D01*
X504162Y178675D01*
X503779Y179248D01*
X503206Y179631D01*
X503145Y179643D01*
X503236Y180562D01*
X503574Y181677D01*
X504123Y182705D01*
X504556Y183232D01*
X504863Y183605D01*
X505212Y183954D01*
X515197Y193939D01*
X515209Y193927D01*
X516526Y195469D01*
X517586Y197198D01*
X518362Y199071D01*
X518835Y201043D01*
X518995Y203065D01*
X518977D01*
Y212836D01*
X519670D01*
Y212386D01*
X521154D01*
Y218504D01*
Y224622D01*
D02*
G37*
G36*
X508556D02*
X507071D01*
Y224172D01*
X504372D01*
Y224172D01*
X504291D01*
Y224172D01*
X501591D01*
Y224622D01*
X500107D01*
Y218504D01*
Y212386D01*
X501591D01*
Y212836D01*
X502284D01*
Y206173D01*
X502294Y206122D01*
X502129Y204448D01*
X501626Y202789D01*
X500809Y201261D01*
X499741Y199960D01*
X499698Y199931D01*
X483698Y183931D01*
X483627Y183979D01*
X482952Y184113D01*
X482276Y183979D01*
X481704Y183596D01*
X481321Y183024D01*
X481187Y182348D01*
X481321Y181673D01*
X481704Y181100D01*
X482276Y180718D01*
X482952Y180583D01*
X483276Y180138D01*
X483380Y179614D01*
X483763Y179041D01*
X484336Y178658D01*
X485011Y178524D01*
X485686Y178658D01*
X486259Y179041D01*
X486642Y179614D01*
X486776Y180289D01*
X486642Y180965D01*
X486594Y181036D01*
X502598Y197040D01*
X502611Y197028D01*
X503928Y198570D01*
X504987Y200299D01*
X505763Y202173D01*
X506237Y204145D01*
X506396Y206167D01*
X506379D01*
Y212836D01*
X507071D01*
Y212386D01*
X508556D01*
Y218504D01*
Y224622D01*
D02*
G37*
G36*
X495957D02*
X494473D01*
Y224172D01*
X491773D01*
Y224172D01*
X491692D01*
Y224172D01*
X488993D01*
Y224622D01*
X487508D01*
Y218504D01*
Y212386D01*
X488993D01*
Y212386D01*
X489061Y212408D01*
X489465Y212122D01*
X489517Y212031D01*
X489027Y210416D01*
X488210Y208887D01*
X487143Y207587D01*
X487100Y207558D01*
X469802Y190260D01*
X469576Y190109D01*
X467898Y188431D01*
X467827Y188479D01*
X467152Y188613D01*
X466476Y188479D01*
X465904Y188096D01*
X465521Y187524D01*
X465387Y186848D01*
X465521Y186173D01*
X465904Y185600D01*
X466476Y185218D01*
X467152Y185083D01*
X467476Y184638D01*
X467580Y184114D01*
X467963Y183541D01*
X468536Y183158D01*
X469211Y183024D01*
X469886Y183158D01*
X470459Y183541D01*
X470842Y184114D01*
X470976Y184789D01*
X470842Y185465D01*
X470794Y185536D01*
X471809Y186550D01*
X472034Y186701D01*
X490000Y204667D01*
X490012Y204655D01*
X491329Y206197D01*
X492389Y207926D01*
X493165Y209800D01*
X493639Y211772D01*
X493722Y212836D01*
X494473D01*
Y212386D01*
X495957D01*
Y218504D01*
Y224622D01*
D02*
G37*
G36*
X574032D02*
X572548D01*
Y219004D01*
X574032D01*
Y224622D01*
D02*
G37*
G36*
X473910Y224622D02*
X471760D01*
Y218504D01*
Y212386D01*
X473910D01*
Y218504D01*
Y224622D01*
D02*
G37*
G36*
X461311D02*
X459162D01*
Y218504D01*
Y212386D01*
X461311D01*
Y218504D01*
Y224622D01*
D02*
G37*
G36*
X448713D02*
X446563D01*
Y218504D01*
Y212386D01*
X448713D01*
Y218504D01*
Y224622D01*
D02*
G37*
G36*
X401469D02*
X399319D01*
Y218504D01*
Y212386D01*
X401469D01*
Y218504D01*
Y224622D01*
D02*
G37*
G36*
X574032Y218004D02*
X572548D01*
Y212386D01*
X574032D01*
Y218004D01*
D02*
G37*
G36*
X562099Y224622D02*
X559949D01*
Y218504D01*
Y212386D01*
X562099D01*
Y218504D01*
Y224622D01*
D02*
G37*
G36*
X549501D02*
X547351D01*
Y218504D01*
Y212386D01*
X549501D01*
Y218504D01*
Y224622D01*
D02*
G37*
G36*
X536902D02*
X534753D01*
Y218504D01*
Y212386D01*
X536902D01*
Y218504D01*
Y224622D01*
D02*
G37*
G36*
X524304D02*
X522154D01*
Y218504D01*
Y212386D01*
X524304D01*
Y218504D01*
Y224622D01*
D02*
G37*
G36*
X511705D02*
X509556D01*
Y218504D01*
Y212386D01*
X511705D01*
Y218504D01*
Y224622D01*
D02*
G37*
G36*
X499107D02*
X496957D01*
Y218504D01*
Y212386D01*
X499107D01*
Y218504D01*
Y224622D01*
D02*
G37*
G36*
X486508D02*
X484359D01*
Y218504D01*
Y212386D01*
X486508D01*
Y218504D01*
Y224622D01*
D02*
G37*
G36*
X476394Y224622D02*
X474910D01*
Y218504D01*
Y212386D01*
X475374D01*
X475566Y211924D01*
X472517Y208875D01*
X472096Y208686D01*
Y208686D01*
X470654Y208544D01*
X469267Y208123D01*
X467989Y207440D01*
X466869Y206521D01*
X466878Y206511D01*
X466878Y206511D01*
X449407Y189041D01*
X449407Y189041D01*
X449395Y189053D01*
X448369Y187803D01*
X447607Y186377D01*
X447138Y184829D01*
X446979Y183220D01*
X446996D01*
Y181047D01*
X446912Y181031D01*
X446340Y180648D01*
X445957Y180075D01*
X445823Y179400D01*
X445957Y178725D01*
X446340Y178152D01*
X446912Y177769D01*
X447588Y177635D01*
X448263Y177769D01*
X448836Y178152D01*
X449252D01*
X449825Y177769D01*
X450500Y177635D01*
X451175Y177769D01*
X451748Y178152D01*
X452131Y178725D01*
X452265Y179400D01*
X452131Y180075D01*
X451748Y180648D01*
X451175Y181031D01*
X451091Y181047D01*
Y182359D01*
X451091Y182366D01*
X451091Y182857D01*
X451139Y183337D01*
X451247Y184158D01*
X451749Y185371D01*
X452253Y186028D01*
X452559Y186401D01*
X452909Y186750D01*
X469771Y203613D01*
X469772Y203615D01*
X470453Y204137D01*
X471247Y204466D01*
X471625Y204516D01*
X472107Y204560D01*
Y204560D01*
X473301Y204718D01*
X474413Y205179D01*
X475369Y205912D01*
X475369Y205912D01*
X475710Y206277D01*
X481505Y212072D01*
X481875Y212386D01*
X483359D01*
Y218504D01*
Y224622D01*
X481875D01*
Y224172D01*
X479594D01*
X479102Y224172D01*
X479094Y224172D01*
Y224172D01*
X476394D01*
Y224622D01*
D02*
G37*
G36*
X454200Y178224D02*
Y176600D01*
X455824D01*
X455755Y176951D01*
X455272Y177673D01*
X454551Y178155D01*
X454200Y178224D01*
D02*
G37*
G36*
X453200D02*
X452849Y178155D01*
X452128Y177673D01*
X451645Y176951D01*
X451576Y176600D01*
X453200D01*
Y178224D01*
D02*
G37*
G36*
X455824Y175600D02*
X454200D01*
Y173976D01*
X454551Y174046D01*
X455272Y174528D01*
X455755Y175249D01*
X455824Y175600D01*
D02*
G37*
G36*
X453200D02*
X451576D01*
X451645Y175249D01*
X452128Y174528D01*
X452849Y174046D01*
X453200Y173976D01*
Y175600D01*
D02*
G37*
%LPD*%
G36*
X378705Y329189D02*
X378660Y329424D01*
X378525Y329635D01*
X378300Y329821D01*
X377985Y329981D01*
X377580Y330118D01*
X377085Y330229D01*
X376500Y330316D01*
X375825Y330378D01*
X374205Y330427D01*
Y334927D01*
X375060Y334940D01*
X376500Y335039D01*
X377085Y335125D01*
X377580Y335237D01*
X377985Y335373D01*
X378300Y335534D01*
X378525Y335719D01*
X378660Y335930D01*
X378705Y336165D01*
Y329189D01*
D02*
G37*
G36*
X326694Y323435D02*
X326399Y323643D01*
X326046Y323829D01*
X325635Y323993D01*
X325168Y324136D01*
X324642Y324256D01*
X324060Y324355D01*
X323709Y324389D01*
X323271Y324355D01*
X322688Y324256D01*
X322163Y324136D01*
X321695Y323993D01*
X321285Y323829D01*
X320932Y323643D01*
X320637Y323435D01*
Y330124D01*
X320932Y329916D01*
X321285Y329730D01*
X321695Y329566D01*
X322163Y329423D01*
X322688Y329303D01*
X323271Y329205D01*
X323621Y329170D01*
X324060Y329205D01*
X324642Y329303D01*
X325168Y329423D01*
X325635Y329566D01*
X326046Y329730D01*
X326399Y329916D01*
X326694Y330124D01*
Y323435D01*
D02*
G37*
G36*
X332154Y327895D02*
X332661Y326670D01*
X332959Y326081D01*
X333643Y324949D01*
X334029Y324406D01*
X334889Y323367D01*
X335363Y322870D01*
X332181Y319688D01*
X331631Y320224D01*
X330064Y321573D01*
X329570Y321936D01*
X328623Y322534D01*
X328170Y322768D01*
X327732Y322959D01*
X327307Y323108D01*
X331944Y328531D01*
X332154Y327895D01*
D02*
G37*
D11*
X386221Y213620D02*
Y218084D01*
X382600Y210000D02*
X386221Y213620D01*
X572048Y233981D02*
X572532Y233497D01*
D13*
X437242Y162632D02*
D03*
X441178D02*
D03*
X452987D02*
D03*
X445115D02*
D03*
X433306D02*
D03*
X429369D02*
D03*
X417558D02*
D03*
X413622D02*
D03*
X409685D02*
D03*
X405748D02*
D03*
X401811D02*
D03*
X397873D02*
D03*
X393936D02*
D03*
X389999D02*
D03*
X386062D02*
D03*
X382125D02*
D03*
X378188D02*
D03*
X456923D02*
D03*
X460860D02*
D03*
X464796D02*
D03*
X468732D02*
D03*
X472669D02*
D03*
X476605D02*
D03*
X480541D02*
D03*
X484477D02*
D03*
X488414D02*
D03*
X492350D02*
D03*
X496286D02*
D03*
X500222D02*
D03*
X508095D02*
D03*
X512031D02*
D03*
X515968D02*
D03*
X519904D02*
D03*
X523840D02*
D03*
X527776D02*
D03*
X531712D02*
D03*
X535649D02*
D03*
X539585D02*
D03*
X543521D02*
D03*
X547458D02*
D03*
X551394D02*
D03*
X555330D02*
D03*
X559266D02*
D03*
X563203D02*
D03*
X567139D02*
D03*
X575011D02*
D03*
D14*
X449051Y165342D02*
D03*
X504159D02*
D03*
X571075D02*
D03*
D15*
X502756Y218504D02*
D03*
X505906D02*
D03*
X490158D02*
D03*
X493308D02*
D03*
X477560Y218504D02*
D03*
X480709Y218504D02*
D03*
X446063Y218504D02*
D03*
X442913D02*
D03*
X436614D02*
D03*
X433465D02*
D03*
X430315D02*
D03*
X427165D02*
D03*
X424016D02*
D03*
X420866D02*
D03*
X417717D02*
D03*
X414567D02*
D03*
X411417D02*
D03*
X408268D02*
D03*
X405118D02*
D03*
X401968D02*
D03*
X398819D02*
D03*
X395669D02*
D03*
X392520D02*
D03*
X389370D02*
D03*
X386221D02*
D03*
X449213D02*
D03*
X452363D02*
D03*
X455512D02*
D03*
X458662D02*
D03*
X461811D02*
D03*
X464961D02*
D03*
X468111D02*
D03*
X471260D02*
D03*
X474410D02*
D03*
X483859Y218504D02*
D03*
X487008D02*
D03*
X496457D02*
D03*
X499607D02*
D03*
X509056D02*
D03*
X512205D02*
D03*
X515355D02*
D03*
X518504D02*
D03*
X521654D02*
D03*
X524804D02*
D03*
X527953D02*
D03*
X531103D02*
D03*
X534253D02*
D03*
X537402D02*
D03*
X540552D02*
D03*
X543701D02*
D03*
X546851D02*
D03*
X550000D02*
D03*
X553150D02*
D03*
X556300D02*
D03*
X559449D02*
D03*
X562599D02*
D03*
X565749D02*
D03*
X568898D02*
D03*
X572048D02*
D03*
D16*
X446063Y237008D02*
D03*
X442913D02*
D03*
X439764D02*
D03*
X436614D02*
D03*
X433465D02*
D03*
X424016D02*
D03*
X414567D02*
D03*
X411417D02*
D03*
X401968D02*
D03*
X395669D02*
D03*
X392520D02*
D03*
X386220D02*
D03*
X449213D02*
D03*
X452363D02*
D03*
X455512D02*
D03*
X458662D02*
D03*
X461811D02*
D03*
X464961D02*
D03*
X468111D02*
D03*
X471260D02*
D03*
X474410D02*
D03*
X477560D02*
D03*
X480709D02*
D03*
X483859D02*
D03*
X487008D02*
D03*
X490158D02*
D03*
X493308D02*
D03*
X496457D02*
D03*
X499607D02*
D03*
X502756D02*
D03*
X505906D02*
D03*
X509056D02*
D03*
X512205D02*
D03*
X515355D02*
D03*
X518504D02*
D03*
X521654D02*
D03*
X524804D02*
D03*
X527953D02*
D03*
X531103D02*
D03*
X534253D02*
D03*
X537402D02*
D03*
X540552D02*
D03*
X543701D02*
D03*
X546851D02*
D03*
X550000D02*
D03*
X553150D02*
D03*
X556300D02*
D03*
X559449D02*
D03*
X562599D02*
D03*
X565749D02*
D03*
X568898D02*
D03*
X572048D02*
D03*
D17*
X439764Y218504D02*
D03*
D18*
X430315Y237008D02*
D03*
X427165D02*
D03*
X420866D02*
D03*
X417717D02*
D03*
X408268D02*
D03*
X405118D02*
D03*
X398819D02*
D03*
X389370D02*
D03*
D34*
X472107Y205750D02*
G03*
X474528Y206753I0J3424D01*
G01*
X472100Y205750D02*
G03*
X468942Y204442I0J-4466D01*
G01*
X450500Y179400D02*
G03*
X450279Y179936I-759J0D01*
G01*
D02*
G03*
X450278Y179937I-538J-536D01*
G01*
X451730Y187230D02*
G03*
X449919Y182857I4373J-4373D01*
G01*
X449919Y180707D02*
G03*
X450210Y180005I992J0D01*
G01*
X472100Y207500D02*
G03*
X473294Y207995I0J1690D01*
G01*
X472096Y207500D02*
G03*
X467707Y205682I0J-6206D01*
G01*
X450237Y188211D02*
G03*
X448169Y183220I4992J-4992D01*
G01*
X447878Y180005D02*
G03*
X448169Y180707I-701J701D01*
G01*
X447810Y179937D02*
G03*
X447588Y179400I537J-537D01*
G01*
X568198Y199587D02*
G03*
X568842Y198033I2198J0D01*
G01*
X569982Y195281D02*
G03*
X568842Y198033I-3892J0D01*
G01*
X568232Y195274D02*
G03*
X567602Y196798I-2158J0D01*
G01*
X554901Y181501D02*
G03*
X555600Y183189I-1688J1688D01*
G01*
X566448Y199578D02*
G03*
X567598Y196802I3927J0D01*
G01*
X565749Y215652D02*
G03*
X566098Y214807I1195J0D01*
G01*
X566448Y213963D02*
G03*
X566098Y214807I-1195J0D01*
G01*
X567873Y187637D02*
G03*
X568232Y188503I-866J866D01*
G01*
X567873Y187637D02*
G03*
X567651Y187100I537J-537D01*
G01*
X568548Y214807D02*
G03*
X568898Y215652I-845J845D01*
G01*
X568548Y214808D02*
G03*
X568198Y213963I845J-845D01*
G01*
X569982Y188503D02*
G03*
X570341Y187637I1225J0D01*
G01*
X570563Y187100D02*
G03*
X570341Y187637I-759J0D01*
G01*
X540103Y183603D02*
G03*
X543002Y190600I-6997J6997D01*
G01*
X538863Y184837D02*
G03*
X541252Y190605I-5767J5767D01*
G01*
X522597Y188471D02*
G03*
X520997Y184610I3862J-3862D01*
G01*
X527514Y190914D02*
G03*
X530403Y197889I-6974J6974D01*
G01*
X523839Y187239D02*
G03*
X522747Y184603I2636J-2636D01*
G01*
X513126Y196001D02*
G03*
X516055Y203072I-7071J7071D01*
G01*
X502792Y185667D02*
G03*
X500200Y179410I6257J-6257D01*
G01*
X514368Y194768D02*
G03*
X517805Y203065I-8297J8297D01*
G01*
X504034Y184434D02*
G03*
X501950Y179403I5031J-5031D01*
G01*
X500527Y199102D02*
G03*
X503456Y206173I-7071J7071D01*
G01*
X501769Y197869D02*
G03*
X505206Y206167I-8297J8297D01*
G01*
X458781Y235933D02*
G03*
X458662Y236220I-406J0D01*
G01*
X458781Y229587D02*
G03*
X458900Y229300I406J0D01*
G01*
X555950Y214807D02*
G03*
X556300Y215652I-845J845D01*
G01*
X555950Y214808D02*
G03*
X555600Y213963I845J-845D01*
G01*
X554900Y181500D02*
G03*
X554237Y179900I1601J-1601D01*
G01*
X554237Y176003D02*
G03*
X554596Y175137I1225J0D01*
G01*
X554818Y174600D02*
G03*
X554596Y175137I-759J0D01*
G01*
X553150Y215652D02*
G03*
X553500Y214807I1195J0D01*
G01*
X553850Y213963D02*
G03*
X553500Y214807I-1195J0D01*
G01*
X553656Y182731D02*
G03*
X553850Y183199I-468J468D01*
G01*
X553656Y182731D02*
G03*
X552487Y179908I2823J-2823D01*
G01*
X552128Y175137D02*
G03*
X552487Y176003I-866J866D01*
G01*
X552128Y175137D02*
G03*
X551906Y174600I537J-537D01*
G01*
X562599Y236220D02*
G03*
X562215Y235293I928J-928D01*
G01*
X562162Y231446D02*
G03*
X562215Y231572I-127J127D01*
G01*
X562162Y231446D02*
G03*
X562110Y231319I127J-127D01*
G01*
X562110Y230503D02*
G03*
X562468Y229637I1225J0D01*
G01*
X562691Y229100D02*
G03*
X562468Y229637I-759J0D01*
G01*
X562400Y180895D02*
G03*
X562110Y180193I701J-701D01*
G01*
X562110Y172098D02*
G03*
X562656Y170779I1866J0D01*
G01*
X563203Y169459D02*
G03*
X562656Y170779I-1866J0D01*
G01*
X559449Y233124D02*
G03*
X559904Y232025I1554J0D01*
G01*
X560360Y230926D02*
G03*
X559904Y232025I-1554J0D01*
G01*
X560001Y229637D02*
G03*
X560360Y230503I-866J866D01*
G01*
X560001Y229637D02*
G03*
X559778Y229100I537J-537D01*
G01*
X560000Y180964D02*
G03*
X560001Y180963I538J536D01*
G01*
X559778Y181500D02*
G03*
X560000Y180964I759J0D01*
G01*
X560360Y180193D02*
G03*
X560069Y180895I-992J0D01*
G01*
X559813Y170779D02*
G03*
X560359Y172098I-1319J1319D01*
G01*
X559813Y170779D02*
G03*
X559266Y169459I1319J-1319D01*
G01*
X562468Y180963D02*
G03*
X562691Y181500I-537J537D01*
G01*
X543351Y214807D02*
G03*
X543701Y215652I-845J845D01*
G01*
X543351Y214808D02*
G03*
X543002Y213963I845J-845D01*
G01*
X540096Y183596D02*
G03*
X538492Y179718I3886J-3878D01*
G01*
X538492Y176303D02*
G03*
X538851Y175437I1225J0D01*
G01*
X539073Y174900D02*
G03*
X538851Y175437I-759J0D01*
G01*
X540552Y215652D02*
G03*
X540902Y214807I1195J0D01*
G01*
X541252Y213963D02*
G03*
X540902Y214807I-1195J0D01*
G01*
X538858Y184833D02*
G03*
X536742Y179725I5108J-5108D01*
G01*
X536383Y175437D02*
G03*
X536742Y176303I-866J866D01*
G01*
X536383Y175437D02*
G03*
X536161Y174900I537J-537D01*
G01*
X530753Y214807D02*
G03*
X531103Y215652I-845J845D01*
G01*
X530753Y214808D02*
G03*
X530403Y213963I845J-845D01*
G01*
X522747Y184603D02*
G03*
X523106Y183737I1225J0D01*
G01*
X523328Y183200D02*
G03*
X523106Y183737I-759J0D01*
G01*
X527953Y215652D02*
G03*
X528303Y214807I1195J0D01*
G01*
X528653Y213963D02*
G03*
X528303Y214807I-1195J0D01*
G01*
X526263Y192137D02*
G03*
X528653Y197909I-5771J5771D01*
G01*
X520638Y183737D02*
G03*
X520997Y184603I-866J866D01*
G01*
X520638Y183737D02*
G03*
X520416Y183200I537J-537D01*
G01*
X518155Y214807D02*
G03*
X518504Y215652I-845J845D01*
G01*
X518155Y214807D02*
G03*
X517805Y213963I845J-845D01*
G01*
X501950Y179403D02*
G03*
X502309Y178537I1225J0D01*
G01*
X502531Y178000D02*
G03*
X502309Y178537I-759J0D01*
G01*
X515355Y215652D02*
G03*
X515705Y214807I1195J0D01*
G01*
X516055Y213963D02*
G03*
X515705Y214807I-1195J0D01*
G01*
X499841Y178537D02*
G03*
X500200Y179403I-866J866D01*
G01*
X499841Y178537D02*
G03*
X499619Y178000I537J-537D01*
G01*
X505556Y214807D02*
G03*
X505906Y215652I-845J845D01*
G01*
X505556Y214808D02*
G03*
X505206Y213963I845J-845D01*
G01*
X485011Y180289D02*
G03*
X485233Y180826I-537J537D01*
G01*
X485524Y181624D02*
G03*
X485233Y180922I701J-701D01*
G01*
X502756Y215652D02*
G03*
X503106Y214807I1195J0D01*
G01*
X503456Y213963D02*
G03*
X503106Y214807I-1195J0D01*
G01*
X483489Y182571D02*
G03*
X482952Y182348I0J-759D01*
G01*
X483585Y182571D02*
G03*
X484286Y182861I0J992D01*
G01*
X490858Y213963D02*
G03*
X490508Y214807I-1195J0D01*
G01*
X490158Y215652D02*
G03*
X490508Y214807I1195J0D01*
G01*
X487929Y206729D02*
G03*
X490858Y213800I-7071J7071D01*
G01*
X492958Y214807D02*
G03*
X493308Y215652I-845J845D01*
G01*
X492958Y214808D02*
G03*
X492608Y213963I845J-845D01*
G01*
X489171Y205496D02*
G03*
X492608Y213793I-8297J8297D01*
G01*
X547458Y169459D02*
G03*
X546911Y170779I-1866J0D01*
G01*
X546655Y176895D02*
G03*
X546364Y176193I701J-701D01*
G01*
X546364Y172098D02*
G03*
X546911Y170779I1866J0D01*
G01*
X550000Y236220D02*
G03*
X549956Y236114I107J-107D01*
G01*
X549912Y229200D02*
G03*
X549956Y229307I-107J107D01*
G01*
X544615Y176193D02*
G03*
X544324Y176895I-992J0D01*
G01*
X544255Y176964D02*
G03*
X544256Y176963I538J536D01*
G01*
X544068Y170779D02*
G03*
X544615Y172098I-1319J1319D01*
G01*
X544033Y177500D02*
G03*
X544255Y176964I759J0D01*
G01*
X544068Y170779D02*
G03*
X543521Y169459I1319J-1319D01*
G01*
X546925Y236040D02*
G03*
X546851Y236220I-255J0D01*
G01*
X546925Y229380D02*
G03*
X547000Y229200I255J0D01*
G01*
X546723Y176963D02*
G03*
X546946Y177500I-537J537D01*
G01*
X531712Y169459D02*
G03*
X531166Y170779I-1866J0D01*
G01*
X530910Y178795D02*
G03*
X530619Y178094I701J-701D01*
G01*
X530619Y172098D02*
G03*
X531166Y170779I1866J0D01*
G01*
X537402Y236220D02*
G03*
X537018Y235293I928J-928D01*
G01*
X536874Y231536D02*
G03*
X537018Y231883I-346J346D01*
G01*
X536874Y231537D02*
G03*
X536731Y231190I346J-346D01*
G01*
X536731Y230403D02*
G03*
X537090Y229537I1225J0D01*
G01*
X537312Y229000D02*
G03*
X537090Y229537I-759J0D01*
G01*
X528510Y178864D02*
G03*
X528511Y178863I538J536D01*
G01*
X528869Y178094D02*
G03*
X528579Y178795I-992J0D01*
G01*
X528323Y170779D02*
G03*
X528869Y172098I-1319J1319D01*
G01*
X528288Y179400D02*
G03*
X528510Y178864I759J0D01*
G01*
X528323Y170779D02*
G03*
X527776Y169459I1319J-1319D01*
G01*
X534253Y232996D02*
G03*
X534617Y232116I1244J0D01*
G01*
X534981Y231237D02*
G03*
X534617Y232116I-1244J0D01*
G01*
X534622Y229537D02*
G03*
X534981Y230403I-866J866D01*
G01*
X534622Y229537D02*
G03*
X534400Y229000I537J-537D01*
G01*
X530978Y178863D02*
G03*
X531201Y179400I-537J537D01*
G01*
X524804Y236220D02*
G03*
X524758Y236110I111J-111D01*
G01*
X524712Y229200D02*
G03*
X524758Y229310I-111J111D01*
G01*
X515165Y178895D02*
G03*
X514874Y178193I701J-701D01*
G01*
X514874Y172098D02*
G03*
X515421Y170779I1866J0D01*
G01*
X515968Y169459D02*
G03*
X515421Y170779I-1866J0D01*
G01*
X521727Y236044D02*
G03*
X521654Y236220I-249J0D01*
G01*
X521727Y229376D02*
G03*
X521800Y229200I249J0D01*
G01*
X512765Y178964D02*
G03*
X512766Y178963I538J536D01*
G01*
X512543Y179500D02*
G03*
X512765Y178964I759J0D01*
G01*
X513124Y178193D02*
G03*
X512834Y178895I-992J0D01*
G01*
X512578Y170779D02*
G03*
X513124Y172098I-1319J1319D01*
G01*
X512578Y170779D02*
G03*
X512031Y169459I1319J-1319D01*
G01*
X515233Y178963D02*
G03*
X515455Y179500I-537J537D01*
G01*
X492350Y169459D02*
G03*
X491803Y170779I-1866J0D01*
G01*
X491547Y175695D02*
G03*
X491257Y174994I701J-701D01*
G01*
X491257Y172098D02*
G03*
X491803Y170779I1866J0D01*
G01*
X512205Y236220D02*
G03*
X512159Y236108I112J-112D01*
G01*
X512112Y229200D02*
G03*
X512159Y229312I-112J112D01*
G01*
X489147Y175764D02*
G03*
X489148Y175763I538J536D01*
G01*
X489507Y174994D02*
G03*
X489216Y175695I-992J0D01*
G01*
X488960Y170779D02*
G03*
X489507Y172098I-1319J1319D01*
G01*
X488926Y176300D02*
G03*
X489147Y175764I759J0D01*
G01*
X488960Y170779D02*
G03*
X488414Y169459I1319J-1319D01*
G01*
X509128Y236046D02*
G03*
X509056Y236220I-246J0D01*
G01*
X509128Y229374D02*
G03*
X509200Y229200I246J0D01*
G01*
X491615Y175763D02*
G03*
X491838Y176300I-537J537D01*
G01*
X499607Y236220D02*
G03*
X499559Y236106I114J-114D01*
G01*
X499512Y229200D02*
G03*
X499559Y229314I-114J114D01*
G01*
X475802Y177695D02*
G03*
X475512Y176994I701J-701D01*
G01*
X475512Y172098D02*
G03*
X476058Y170779I1866J0D01*
G01*
X476605Y169459D02*
G03*
X476058Y170779I-1866J0D01*
G01*
X496529Y236048D02*
G03*
X496457Y236220I-244J0D01*
G01*
X496529Y229372D02*
G03*
X496600Y229200I244J0D01*
G01*
X473402Y177764D02*
G03*
X473403Y177763I538J536D01*
G01*
X473180Y178300D02*
G03*
X473402Y177764I759J0D01*
G01*
X473762Y176994D02*
G03*
X473471Y177695I-992J0D01*
G01*
X473215Y170779D02*
G03*
X473762Y172098I-1319J1319D01*
G01*
X473215Y170779D02*
G03*
X472669Y169459I1319J-1319D01*
G01*
X475870Y177763D02*
G03*
X476093Y178300I-537J537D01*
G01*
X460057Y181295D02*
G03*
X459767Y180594I701J-701D01*
G01*
X459766Y172098D02*
G03*
X460313Y170779I1866J0D01*
G01*
X460860Y169459D02*
G03*
X460313Y170779I-1866J0D01*
G01*
X483979Y235929D02*
G03*
X483859Y236220I-412J0D01*
G01*
X483979Y229491D02*
G03*
X484100Y229200I412J0D01*
G01*
X457657Y181364D02*
G03*
X457658Y181363I538J536D01*
G01*
X457435Y181900D02*
G03*
X457657Y181364I759J0D01*
G01*
X458016Y180594D02*
G03*
X457726Y181295I-992J0D01*
G01*
X457470Y170779D02*
G03*
X458016Y172098I-1319J1319D01*
G01*
X457470Y170779D02*
G03*
X456923Y169459I1319J-1319D01*
G01*
X460125Y181363D02*
G03*
X460348Y181900I-537J537D01*
G01*
X474410Y236220D02*
G03*
X474291Y235933I287J-287D01*
G01*
X474172Y229134D02*
G03*
X474291Y229421I-287J287D01*
G01*
X440376Y181285D02*
G03*
X440085Y180583I701J-701D01*
G01*
X440085Y172098D02*
G03*
X440632Y170779I1866J0D01*
G01*
X441178Y169459D02*
G03*
X440632Y170779I-1866J0D01*
G01*
X437976Y181354D02*
G03*
X437977Y181353I538J536D01*
G01*
X437754Y181890D02*
G03*
X437976Y181354I759J0D01*
G01*
X438335Y180583D02*
G03*
X438045Y181285I-992J0D01*
G01*
X437789Y170779D02*
G03*
X438335Y172098I-1319J1319D01*
G01*
X437789Y170779D02*
G03*
X437242Y169459I1319J-1319D01*
G01*
X440444Y181353D02*
G03*
X440666Y181890I-537J537D01*
G01*
X572835Y236205D02*
X584177D01*
X587976Y232405D01*
Y195039D02*
Y232405D01*
X571075Y178138D02*
X587976Y195039D01*
X571075Y165342D02*
Y178138D01*
X474528Y206753D02*
X480983Y213209D01*
X472100Y205750D02*
X472107D01*
X451730Y187230D02*
X468942Y204442D01*
X450278Y179937D02*
X450279Y179936D01*
X450210Y180005D02*
X450278Y179937D01*
X449919Y180707D02*
Y182857D01*
X480983Y213209D02*
Y217836D01*
X480709Y218110D02*
X480983Y217836D01*
X473294Y207995D02*
X477398Y212098D01*
X472096Y207500D02*
X472100D01*
X448169Y180707D02*
Y183220D01*
X447810Y179937D02*
X447878Y180005D01*
X447588Y179400D02*
X447588D01*
X477398Y212098D02*
Y216342D01*
X569982Y188503D02*
Y195281D01*
X568232Y188503D02*
Y195274D01*
X568198Y199587D02*
Y213963D01*
X555600Y183189D02*
Y213963D01*
X553850Y183199D02*
Y213963D01*
X566448Y199578D02*
Y213963D01*
X565749Y215652D02*
Y218898D01*
X567598Y196802D02*
X567602Y196798D01*
X567873Y187637D02*
X567873Y187637D01*
X567651Y187100D02*
X567651D01*
X568898Y215652D02*
X568898D01*
X568548Y214807D02*
X568548Y214807D01*
X560360Y172098D02*
Y180193D01*
X562110Y172098D02*
Y180193D01*
X546364Y172098D02*
Y176193D01*
X544615Y172098D02*
Y176193D01*
X543002Y190600D02*
Y213963D01*
X541252Y190605D02*
Y213963D01*
X530619Y172098D02*
Y178094D01*
X528869Y172098D02*
Y178094D01*
X522597Y188471D02*
X526263Y192137D01*
X523839Y187239D02*
X527514Y190914D01*
X530403Y197889D02*
Y213963D01*
X514874Y172098D02*
Y178193D01*
X513124Y172098D02*
Y178193D01*
X504034Y184434D02*
X514368Y194768D01*
X502792Y185667D02*
X513126Y196001D01*
X516055Y203072D02*
Y213963D01*
X517805Y203065D02*
Y213963D01*
X491257Y172098D02*
Y174994D01*
X489507Y172098D02*
Y174994D01*
X485524Y181624D02*
X501769Y197869D01*
X484286Y182861D02*
X500527Y199102D01*
X503456Y206173D02*
Y213963D01*
X505206Y206167D02*
Y213963D01*
X475512Y172098D02*
Y176994D01*
X473762Y172098D02*
Y176994D01*
X469433Y185833D02*
X471130Y187530D01*
X468196Y187071D02*
X470405Y189280D01*
X459766Y172098D02*
Y180594D01*
X458016Y172098D02*
Y180594D01*
X450237Y188211D02*
X467707Y205682D01*
X440085Y172098D02*
Y180583D01*
X438335Y172098D02*
Y180583D01*
X435300Y227800D02*
X436614Y229114D01*
Y236220D01*
X430600Y227800D02*
X435300D01*
X422497Y192797D02*
X422500D01*
X417558Y162632D02*
Y187858D01*
Y162482D02*
Y162632D01*
Y187858D02*
X422497Y192797D01*
X417523Y162447D02*
X417558Y162482D01*
X422500Y192797D02*
Y192800D01*
X458781Y229587D02*
Y235933D01*
X461811Y236220D02*
X461812Y236220D01*
Y229300D02*
Y236220D01*
Y229300D02*
X461812Y229300D01*
X555950Y214807D02*
X555950Y214807D01*
X554900Y181500D02*
X554901Y181501D01*
X554237Y176003D02*
Y179900D01*
X553150Y215652D02*
Y218898D01*
X553656Y182731D02*
X553656Y182731D01*
X552128Y175137D02*
X552128Y175137D01*
X551906Y174600D02*
X551906D01*
X556300Y215652D02*
Y218898D01*
X552487Y176003D02*
Y179908D01*
X562599Y236220D02*
X562599Y236220D01*
X562162Y231446D02*
X562162Y231446D01*
X562110Y230503D02*
Y231319D01*
X562400Y180895D02*
X562468Y180963D01*
X563203Y162632D02*
Y169459D01*
X559449Y233124D02*
Y236220D01*
X560360Y230503D02*
Y230926D01*
X560001Y229637D02*
X560001Y229637D01*
X559778Y229100D02*
X559778D01*
X560001Y180963D02*
X560069Y180895D01*
X560000Y180964D02*
X560001Y180963D01*
X559813Y170779D02*
X559813Y170778D01*
X562215Y231572D02*
Y235293D01*
X562691Y181500D02*
X562691D01*
X559266Y162632D02*
Y169459D01*
X543351Y214807D02*
X543351Y214807D01*
X540096Y183596D02*
X540103Y183603D01*
X538492Y176303D02*
Y179718D01*
X540552Y215652D02*
Y218898D01*
X538858Y184833D02*
X538863Y184837D01*
X536742Y176303D02*
Y179725D01*
X536383Y175437D02*
X536383Y175437D01*
X536161Y174900D02*
X536161D01*
X543701Y215652D02*
Y218898D01*
X530753Y214807D02*
X530753Y214807D01*
X522747Y184603D02*
X522747D01*
X527953Y215652D02*
Y218898D01*
X528653Y197909D02*
Y213963D01*
X526263Y192137D02*
X526263Y192137D01*
X520997Y184603D02*
Y184610D01*
X520638Y183737D02*
X520638Y183737D01*
X520416Y183200D02*
X520416D01*
X531103Y215652D02*
Y218898D01*
X518155Y214807D02*
X518155Y214807D01*
X501950Y179403D02*
X501950D01*
X515355Y215652D02*
Y218898D01*
X500200Y179403D02*
Y179410D01*
X499841Y178537D02*
X499841Y178537D01*
X499619Y178000D02*
X499619D01*
X518504Y215652D02*
Y218898D01*
X505556Y214808D02*
X505556Y214807D01*
X485011Y180289D02*
X485011Y180289D01*
X485233Y180826D02*
Y180922D01*
X502756Y215652D02*
Y218898D01*
X483489Y182571D02*
X483585D01*
X505906Y215652D02*
Y218898D01*
X490858Y213800D02*
Y213963D01*
X490158Y215652D02*
Y218898D01*
X470480Y189280D02*
X487929Y206729D01*
X492958Y214808D02*
X492958Y214807D01*
X493308Y215652D02*
Y218898D01*
X492608Y213793D02*
Y213963D01*
X471205Y187530D02*
X489171Y205496D01*
X471130Y187530D02*
X471205D01*
X469433Y185011D02*
Y185833D01*
X469211Y184789D02*
X469433Y185011D01*
X470405Y189280D02*
X470480D01*
X467374Y187071D02*
X468196D01*
X467152Y186848D02*
X467374Y187071D01*
X547458Y162632D02*
Y169459D01*
X546655Y176895D02*
X546723Y176963D01*
X550000Y236220D02*
X550000Y236220D01*
X549912Y229200D02*
X549912Y229200D01*
X544256Y176963D02*
X544324Y176895D01*
X544255Y176964D02*
X544256Y176963D01*
X544068Y170779D02*
X544068Y170778D01*
X546925Y229380D02*
Y236040D01*
X546946Y177500D02*
X546946D01*
X543521Y162632D02*
Y169459D01*
X549956Y229307D02*
Y236114D01*
X531712Y162632D02*
Y169459D01*
X530910Y178795D02*
X530978Y178863D01*
X537402Y236220D02*
X537402Y236220D01*
X536874Y231537D02*
X536874Y231536D01*
X536731Y230403D02*
Y231190D01*
X528510Y178864D02*
X528511Y178863D01*
X528579Y178795D01*
X528323Y170779D02*
X528323Y170778D01*
X534253Y232996D02*
Y236220D01*
X534981Y230403D02*
Y231237D01*
X534622Y229537D02*
X534622Y229537D01*
X534400Y229000D02*
X534400D01*
X531201Y179400D02*
X531201D01*
X527776Y162632D02*
Y169459D01*
X537018Y231883D02*
Y235293D01*
X524804Y236220D02*
X524804Y236220D01*
X524712Y229200D02*
X524712Y229200D01*
X515165Y178895D02*
X515233Y178963D01*
X515968Y162632D02*
Y169459D01*
X521727Y229376D02*
Y236044D01*
X512766Y178963D02*
X512834Y178895D01*
X512765Y178964D02*
X512766Y178963D01*
X512578Y170779D02*
X512578Y170778D01*
X524758Y229310D02*
Y236110D01*
X515455Y179500D02*
X515455D01*
X512031Y162632D02*
Y169459D01*
X492350Y162632D02*
Y169459D01*
X491547Y175695D02*
X491615Y175763D01*
X512205Y236220D02*
X512205Y236220D01*
X512159Y229312D02*
Y236108D01*
X512112Y229200D02*
X512112Y229200D01*
X489148Y175763D02*
X489216Y175695D01*
X489147Y175764D02*
X489148Y175763D01*
X488960Y170779D02*
X488960Y170778D01*
X509128Y229374D02*
Y236046D01*
X491838Y176300D02*
X491838D01*
X488414Y162632D02*
Y169459D01*
X499607Y236220D02*
X499607Y236220D01*
X499559Y229314D02*
Y236106D01*
X499512Y229200D02*
X499512Y229200D01*
X475802Y177695D02*
X475870Y177763D01*
X476605Y162632D02*
Y169459D01*
X496529Y229372D02*
Y236048D01*
X473403Y177763D02*
X473471Y177695D01*
X473402Y177764D02*
X473403Y177763D01*
X473215Y170779D02*
X473215Y170778D01*
X476093Y178300D02*
X476093D01*
X472669Y162632D02*
Y169459D01*
X471260Y229134D02*
X471260Y229134D01*
Y236220D01*
X471260Y236220D01*
X460057Y181295D02*
X460125Y181363D01*
X460860Y162632D02*
Y169459D01*
X483979Y229491D02*
Y235929D01*
X457658Y181363D02*
X457726Y181295D01*
X457657Y181364D02*
X457658Y181363D01*
X457470Y170779D02*
X457470Y170778D01*
X487008Y236220D02*
X487010Y236219D01*
Y229202D02*
Y236219D01*
Y229202D02*
X487012Y229200D01*
X460348Y181900D02*
X460348D01*
X456923Y162632D02*
Y169459D01*
X474410Y236220D02*
X474410Y236220D01*
X474291Y229421D02*
Y235933D01*
X474172Y229134D02*
X474172Y229134D01*
X440376Y181285D02*
X440444Y181353D01*
X441178Y162632D02*
Y169459D01*
X437977Y181353D02*
X438045Y181285D01*
X437976Y181354D02*
X437977Y181353D01*
X437789Y170779D02*
X437789Y170778D01*
X440666Y181890D02*
X440666D01*
X437242Y162632D02*
Y169459D01*
D35*
X374700Y236200D02*
X388400D01*
X382087Y184449D02*
Y195807D01*
Y178150D02*
Y181299D01*
Y175000D02*
Y178150D01*
Y181299D02*
Y184449D01*
Y162844D02*
Y175000D01*
X372800Y204700D02*
X381693Y195807D01*
X302362Y308538D02*
X374700Y236200D01*
X302362Y308538D02*
Y379607D01*
X328664Y395660D02*
X328665Y395661D01*
X318415Y395660D02*
X328664D01*
X302362Y379607D02*
X318415Y395660D01*
D36*
X422348Y197648D02*
X436530Y211830D01*
Y218813D01*
X436614Y218898D01*
X408268D02*
Y226532D01*
X405202Y229598D02*
X408268Y226532D01*
X405202Y229598D02*
Y236136D01*
X411417Y218898D02*
Y225683D01*
X408352Y228748D02*
X411417Y225683D01*
X408352Y228748D02*
Y236136D01*
X405118Y236220D02*
X405202Y236136D01*
X408268Y236220D02*
X408352Y236136D01*
D37*
X371910Y204700D02*
X372800D01*
X371639Y204971D02*
X371910Y204700D01*
X324629Y204971D02*
X371639D01*
X317913Y211687D02*
X324629Y204971D01*
X317913Y240945D02*
X340354Y263386D01*
X317913Y211687D02*
Y240945D01*
D38*
X405118Y218898D02*
Y224982D01*
X401984Y228116D02*
X405118Y224982D01*
X401984Y228116D02*
Y236205D01*
X401968Y236220D02*
X401984Y236205D01*
X405118Y194582D02*
Y218898D01*
Y194582D02*
X413622Y186079D01*
Y162632D02*
Y186079D01*
D39*
X417700Y208600D02*
Y228300D01*
X416117Y229883D02*
X417700Y228300D01*
X416117Y229883D02*
Y239520D01*
X416700Y207600D02*
X417700Y208600D01*
X414157Y205057D02*
X416700Y207600D01*
D40*
X392400Y204600D02*
Y218778D01*
X392520Y218898D01*
D41*
X405712Y162447D02*
Y184445D01*
X404724Y185433D02*
X405712Y184445D01*
D42*
X364789Y332505D02*
X364961Y332677D01*
X364616Y332333D02*
X364789Y332505D01*
X364961Y332677D02*
X381693D01*
X318665Y326780D02*
X328665D01*
X337335Y317717D02*
X358661D01*
X328665Y326386D02*
X337335Y317717D01*
X328665Y326386D02*
Y326780D01*
X358661Y317717D02*
X364616Y323672D01*
Y332333D01*
D43*
X364567Y411417D02*
X364764Y411221D01*
X381142D01*
X381339Y411024D01*
X302362Y379607D02*
X345749D01*
X364567Y398425D01*
Y411417D01*
D44*
X420472Y219094D02*
D03*
D45*
X219602Y174094D02*
D03*
X245823D02*
D03*
D46*
X376378Y227560D02*
D03*
D47*
X581889D02*
D03*
D48*
X451000Y405500D02*
D03*
X576984D02*
D03*
Y279516D02*
D03*
X451000D02*
D03*
X350900Y225984D02*
D03*
X439483Y442404D02*
D03*
D49*
X356693Y411417D02*
D03*
X356914Y332505D02*
D03*
D50*
X364567Y411417D02*
D03*
X364789Y332505D02*
D03*
D51*
X381339Y411024D02*
D03*
X381693Y332677D02*
D03*
D52*
X391339Y411024D02*
D03*
X391693Y332677D02*
D03*
D53*
X318415Y395660D02*
D03*
X318665Y326780D02*
D03*
X328665D02*
D03*
X286665D02*
D03*
X276165D02*
D03*
X328665Y395661D02*
D03*
X286665D02*
D03*
X276665D02*
D03*
D54*
X422348Y197648D02*
D03*
X382600Y210000D02*
D03*
X385700Y227500D02*
D03*
X567651Y187100D02*
D03*
X570563D02*
D03*
X453700Y176100D02*
D03*
X430600Y227800D02*
D03*
X422500Y192800D02*
D03*
X458900Y229300D02*
D03*
X461812D02*
D03*
X554818Y174600D02*
D03*
X551906D02*
D03*
X562691Y229100D02*
D03*
X559778D02*
D03*
X562691Y181500D02*
D03*
X559778D02*
D03*
X539073Y174900D02*
D03*
X536161D02*
D03*
X523328Y183200D02*
D03*
X520416D02*
D03*
X499619Y178000D02*
D03*
X502531D02*
D03*
X485011Y180289D02*
D03*
X482952Y182348D02*
D03*
X469211Y184789D02*
D03*
X467152Y186848D02*
D03*
X450500Y179400D02*
D03*
X447588D02*
D03*
X546946Y177500D02*
D03*
X544033D02*
D03*
X547000Y229200D02*
D03*
X549912D02*
D03*
X534400Y229000D02*
D03*
X537312D02*
D03*
X531201Y179400D02*
D03*
X528288D02*
D03*
X521800Y229200D02*
D03*
X524712D02*
D03*
X515455Y179500D02*
D03*
X512543D02*
D03*
X509200Y229200D02*
D03*
X512112D02*
D03*
X488926Y176300D02*
D03*
X491838D02*
D03*
X496600Y229200D02*
D03*
X499512D02*
D03*
X476093Y178300D02*
D03*
X473180D02*
D03*
X471260Y229134D02*
D03*
X484100Y229200D02*
D03*
X487012D02*
D03*
X460348Y181900D02*
D03*
X457435D02*
D03*
X474172Y229134D02*
D03*
X440666Y181890D02*
D03*
X437754D02*
D03*
X381693Y184449D02*
D03*
Y181299D02*
D03*
Y178150D02*
D03*
Y175000D02*
D03*
X386221D02*
D03*
Y178150D02*
D03*
Y181299D02*
D03*
Y184449D02*
D03*
X403740Y180315D02*
D03*
Y183465D02*
D03*
Y186417D02*
D03*
D55*
X438900Y194100D02*
D03*
X450900Y206200D02*
D03*
X424400Y187500D02*
D03*
X448000Y227700D02*
D03*
X576000Y203900D02*
D03*
X575800Y227600D02*
D03*
X388000Y204600D02*
D03*
X396800D02*
D03*
Y208600D02*
D03*
X392400Y204600D02*
D03*
X392500Y208600D02*
D03*
X388000Y208700D02*
D03*
X410000Y203300D02*
D03*
X413800Y207000D02*
D03*
X417700Y210700D02*
D03*
Y207000D02*
D03*
X413800Y203300D02*
D03*
X414466Y259800D02*
D03*
X417600Y203400D02*
D03*
X450230Y259800D02*
D03*
X489600D02*
D03*
X525266D02*
D03*
X560866D02*
D03*
M02*
