G04*
G04 #@! TF.GenerationSoftware,Altium Limited,Altium Designer,19.1.6 (110)*
G04*
G04 Layer_Color=16711935*
%FSLAX25Y25*%
%MOIN*%
G70*
G01*
G75*
%ADD10C,0.00799*%
%ADD11C,0.01000*%
%ADD70C,0.01039*%
D10*
X360827Y165748D02*
Y190551D01*
X331299Y165748D02*
X360827D01*
X577165Y150000D02*
Y178374D01*
X579106Y180315D01*
X591315D01*
X238189Y419685D02*
X239764Y421260D01*
X286260D01*
X238189Y414173D02*
Y419685D01*
X220079Y414173D02*
X238189D01*
X287402Y422402D02*
Y463202D01*
X286260Y421260D02*
X287402Y422402D01*
Y463202D02*
X290735Y466535D01*
X590665D01*
X594095Y183095D02*
Y463105D01*
X590665Y466535D02*
X594095Y463105D01*
X591315Y180315D02*
X594095Y183095D01*
X575335Y148169D02*
X577165Y150000D01*
X428842Y148169D02*
X575335D01*
X200787Y167323D02*
X202362Y165748D01*
X259449D01*
X200787Y167323D02*
Y420079D01*
X375984Y150024D02*
Y190551D01*
X259449Y165748D02*
Y198228D01*
X329331D01*
X200787Y420079D02*
X201969Y421260D01*
X218504D01*
X220079Y419685D01*
Y414173D02*
Y419685D01*
X427165Y149846D02*
X428842Y148169D01*
X427165Y149846D02*
Y177370D01*
X419685Y149520D02*
Y177362D01*
X418433Y148268D02*
X419685Y149520D01*
X377740Y148268D02*
X418433D01*
X375984Y150024D02*
X377740Y148268D01*
X331299Y165748D02*
Y196260D01*
X329331Y198228D02*
X331299Y196260D01*
D11*
X368472Y197496D02*
G03*
X360827Y190551I-350J-7295D01*
G01*
X375984D02*
G03*
X368472Y197496I-7228J-283D01*
G01*
X582890Y342508D02*
G03*
X582890Y342508I-68898J0D01*
G01*
D70*
X427165Y177362D02*
G03*
X419685Y177362I-3740J0D01*
G01*
M02*
