G04*
G04 #@! TF.GenerationSoftware,Altium Limited,Altium Designer,19.1.6 (110)*
G04*
G04 Layer_Color=2752767*
%FSLAX25Y25*%
%MOIN*%
G70*
G01*
G75*
%ADD72C,0.00200*%
%ADD73C,0.00267*%
D72*
X604826Y441606D02*
Y443205D01*
X606426D01*
Y441606D01*
X604826D01*
Y225184D02*
Y226784D01*
X606426D01*
Y225184D01*
X604826D01*
X376378Y226760D02*
X375577Y228360D01*
X377178D01*
X376378Y226760D01*
X581889D02*
X582290Y227160D01*
X582690D01*
X582290Y227560D01*
X582690Y227960D01*
X582290D01*
X581889Y228360D01*
X581490Y227960D01*
X581089D01*
X581490Y227560D01*
X581089Y227160D01*
X581490D01*
X581889Y226760D01*
X450200Y404700D02*
Y406300D01*
X451800D01*
Y404700D01*
X450200D01*
X576184D02*
Y406300D01*
X577784D01*
Y404700D01*
X576184D01*
Y278716D02*
Y280316D01*
X577784D01*
Y278716D01*
X576184D01*
X450200D02*
Y280316D01*
X451800D01*
Y278716D01*
X450200D01*
X350100Y225184D02*
Y226784D01*
X351700D01*
Y225184D01*
X350100D01*
X438683Y441604D02*
Y443204D01*
X440283D01*
Y441604D01*
X438683D01*
X355893Y410617D02*
X356293Y411417D01*
X355893Y412217D01*
X356693Y411817D01*
X357493Y412217D01*
X357093Y411417D01*
X357493Y410617D01*
X356693Y411017D01*
X355893Y410617D01*
X363767D02*
X364167Y411417D01*
X363767Y412217D01*
X364567Y411817D01*
X365367Y412217D01*
X364967Y411417D01*
X365367Y410617D01*
X364567Y411017D01*
X363767Y410617D01*
X380939Y410624D02*
Y410224D01*
X381739D01*
Y410624D01*
X382139D01*
Y411424D01*
X381739D01*
Y411824D01*
X380939D01*
Y411424D01*
X380539D01*
Y410624D01*
X380939D01*
X390939D02*
Y410224D01*
X391739D01*
Y410624D01*
X392139D01*
Y411424D01*
X391739D01*
Y411824D01*
X390939D01*
Y411424D01*
X390539D01*
Y410624D01*
X390939D01*
X356115Y331705D02*
X356515Y332505D01*
X356115Y333305D01*
X356914Y332905D01*
X357715Y333305D01*
X357314Y332505D01*
X357715Y331705D01*
X356914Y332105D01*
X356115Y331705D01*
X363988D02*
X364388Y332505D01*
X363988Y333305D01*
X364789Y332905D01*
X365588Y333305D01*
X365189Y332505D01*
X365588Y331705D01*
X364789Y332105D01*
X363988Y331705D01*
X381293Y332277D02*
Y331877D01*
X382093D01*
Y332277D01*
X382493D01*
Y333077D01*
X382093D01*
Y333477D01*
X381293D01*
Y333077D01*
X380893D01*
Y332277D01*
X381293D01*
X391293D02*
Y331877D01*
X392093D01*
Y332277D01*
X392493D01*
Y333077D01*
X392093D01*
Y333477D01*
X391293D01*
Y333077D01*
X390893D01*
Y332277D01*
X391293D01*
X317615Y394860D02*
X318015D01*
X318415Y395260D01*
X318815Y394860D01*
X319215D01*
Y395260D01*
X318815Y395660D01*
X319215Y396060D01*
Y396460D01*
X318815D01*
X318415Y396060D01*
X318015Y396460D01*
X317615D01*
Y396060D01*
X318015Y395660D01*
X317615Y395260D01*
Y394860D01*
X317865Y325979D02*
X318265D01*
X318665Y326379D01*
X319065Y325979D01*
X319465D01*
Y326379D01*
X319065Y326780D01*
X319465Y327180D01*
Y327579D01*
X319065D01*
X318665Y327180D01*
X318265Y327579D01*
X317865D01*
Y327180D01*
X318265Y326780D01*
X317865Y326379D01*
Y325979D01*
X327865D02*
X328265D01*
X328665Y326379D01*
X329065Y325979D01*
X329465D01*
Y326379D01*
X329065Y326780D01*
X329465Y327180D01*
Y327579D01*
X329065D01*
X328665Y327180D01*
X328265Y327579D01*
X327865D01*
Y327180D01*
X328265Y326780D01*
X327865Y326379D01*
Y325979D01*
X285865D02*
X286265D01*
X286665Y326379D01*
X287065Y325979D01*
X287465D01*
Y326379D01*
X287065Y326780D01*
X287465Y327180D01*
Y327579D01*
X287065D01*
X286665Y327180D01*
X286265Y327579D01*
X285865D01*
Y327180D01*
X286265Y326780D01*
X285865Y326379D01*
Y325979D01*
X275365D02*
X275765D01*
X276165Y326379D01*
X276565Y325979D01*
X276965D01*
Y326379D01*
X276565Y326780D01*
X276965Y327180D01*
Y327579D01*
X276565D01*
X276165Y327180D01*
X275765Y327579D01*
X275365D01*
Y327180D01*
X275765Y326780D01*
X275365Y326379D01*
Y325979D01*
X327865Y394861D02*
X328265D01*
X328665Y395261D01*
X329065Y394861D01*
X329465D01*
Y395261D01*
X329065Y395661D01*
X329465Y396061D01*
Y396461D01*
X329065D01*
X328665Y396061D01*
X328265Y396461D01*
X327865D01*
Y396061D01*
X328265Y395661D01*
X327865Y395261D01*
Y394861D01*
X285865D02*
X286265D01*
X286665Y395261D01*
X287065Y394861D01*
X287465D01*
Y395261D01*
X287065Y395661D01*
X287465Y396061D01*
Y396461D01*
X287065D01*
X286665Y396061D01*
X286265Y396461D01*
X285865D01*
Y396061D01*
X286265Y395661D01*
X285865Y395261D01*
Y394861D01*
X275865D02*
X276265D01*
X276665Y395261D01*
X277065Y394861D01*
X277465D01*
Y395261D01*
X277065Y395661D01*
X277465Y396061D01*
Y396461D01*
X277065D01*
X276665Y396061D01*
X276265Y396461D01*
X275865D01*
Y396061D01*
X276265Y395661D01*
X275865Y395261D01*
Y394861D01*
X421548Y197648D02*
X422348Y198448D01*
X423148Y197648D01*
X422348Y196848D01*
X421548Y197648D01*
X438100Y193300D02*
Y194900D01*
X439700D01*
Y193300D01*
X438100D01*
X438500Y193700D02*
Y194500D01*
X439300D01*
Y193700D01*
X438500D01*
X450100Y205400D02*
Y207000D01*
X451700D01*
Y205400D01*
X450100D01*
X450500Y205800D02*
Y206600D01*
X451300D01*
Y205800D01*
X450500D01*
X423600Y186700D02*
Y188300D01*
X425200D01*
Y186700D01*
X423600D01*
X424000Y187100D02*
Y187900D01*
X424800D01*
Y187100D01*
X424000D01*
X447200Y226900D02*
Y228500D01*
X448800D01*
Y226900D01*
X447200D01*
X447600Y227300D02*
Y228100D01*
X448400D01*
Y227300D01*
X447600D01*
X575200Y203100D02*
Y204700D01*
X576800D01*
Y203100D01*
X575200D01*
X575600Y203500D02*
Y204300D01*
X576400D01*
Y203500D01*
X575600D01*
X575000Y226800D02*
Y228400D01*
X576600D01*
Y226800D01*
X575000D01*
X575400Y227200D02*
Y228000D01*
X576200D01*
Y227200D01*
X575400D01*
X381800Y210000D02*
X382600Y210800D01*
X383400Y210000D01*
X382600Y209200D01*
X381800Y210000D01*
X384900Y227500D02*
X385700Y228300D01*
X386500Y227500D01*
X385700Y226700D01*
X384900Y227500D01*
X566851Y187100D02*
X567651Y187900D01*
X568451Y187100D01*
X567651Y186300D01*
X566851Y187100D01*
X569763D02*
X570563Y187900D01*
X571363Y187100D01*
X570563Y186300D01*
X569763Y187100D01*
X452900Y176100D02*
X453700Y176900D01*
X454500Y176100D01*
X453700Y175300D01*
X452900Y176100D01*
X429800Y227800D02*
X430600Y228600D01*
X431400Y227800D01*
X430600Y227000D01*
X429800Y227800D01*
X421700Y192800D02*
X422500Y193600D01*
X423300Y192800D01*
X422500Y192000D01*
X421700Y192800D01*
X387200Y203800D02*
Y205400D01*
X388800D01*
Y203800D01*
X387200D01*
X387600Y204200D02*
Y205000D01*
X388400D01*
Y204200D01*
X387600D01*
X396000Y203800D02*
Y205400D01*
X397600D01*
Y203800D01*
X396000D01*
X396400Y204200D02*
Y205000D01*
X397200D01*
Y204200D01*
X396400D01*
X396000Y207800D02*
Y209400D01*
X397600D01*
Y207800D01*
X396000D01*
X396400Y208200D02*
Y209000D01*
X397200D01*
Y208200D01*
X396400D01*
X391600Y203800D02*
Y205400D01*
X393200D01*
Y203800D01*
X391600D01*
X392000Y204200D02*
Y205000D01*
X392800D01*
Y204200D01*
X392000D01*
X391700Y207800D02*
Y209400D01*
X393300D01*
Y207800D01*
X391700D01*
X392100Y208200D02*
Y209000D01*
X392900D01*
Y208200D01*
X392100D01*
X387200Y207900D02*
Y209500D01*
X388800D01*
Y207900D01*
X387200D01*
X387600Y208300D02*
Y209100D01*
X388400D01*
Y208300D01*
X387600D01*
X409200Y202500D02*
Y204100D01*
X410800D01*
Y202500D01*
X409200D01*
X409600Y202900D02*
Y203700D01*
X410400D01*
Y202900D01*
X409600D01*
X413000Y206200D02*
Y207800D01*
X414600D01*
Y206200D01*
X413000D01*
X413400Y206600D02*
Y207400D01*
X414200D01*
Y206600D01*
X413400D01*
X416900Y209900D02*
Y211500D01*
X418500D01*
Y209900D01*
X416900D01*
X417300Y210300D02*
Y211100D01*
X418100D01*
Y210300D01*
X417300D01*
X416900Y206200D02*
Y207800D01*
X418500D01*
Y206200D01*
X416900D01*
X417300Y206600D02*
Y207400D01*
X418100D01*
Y206600D01*
X417300D01*
X413000Y202500D02*
Y204100D01*
X414600D01*
Y202500D01*
X413000D01*
X413400Y202900D02*
Y203700D01*
X414200D01*
Y202900D01*
X413400D01*
X458100Y229300D02*
X458900Y230100D01*
X459700Y229300D01*
X458900Y228500D01*
X458100Y229300D01*
X461012D02*
X461812Y230100D01*
X462612Y229300D01*
X461812Y228500D01*
X461012Y229300D01*
X554018Y174600D02*
X554818Y175400D01*
X555618Y174600D01*
X554818Y173800D01*
X554018Y174600D01*
X551106D02*
X551906Y175400D01*
X552706Y174600D01*
X551906Y173800D01*
X551106Y174600D01*
X561891Y229100D02*
X562691Y229900D01*
X563491Y229100D01*
X562691Y228300D01*
X561891Y229100D01*
X558979D02*
X559778Y229900D01*
X560578Y229100D01*
X559778Y228300D01*
X558979Y229100D01*
X561891Y181500D02*
X562691Y182300D01*
X563491Y181500D01*
X562691Y180700D01*
X561891Y181500D01*
X558979D02*
X559778Y182300D01*
X560578Y181500D01*
X559778Y180700D01*
X558979Y181500D01*
X538273Y174900D02*
X539073Y175700D01*
X539873Y174900D01*
X539073Y174100D01*
X538273Y174900D01*
X535361D02*
X536161Y175700D01*
X536961Y174900D01*
X536161Y174100D01*
X535361Y174900D01*
X522528Y183200D02*
X523328Y184000D01*
X524128Y183200D01*
X523328Y182400D01*
X522528Y183200D01*
X519616D02*
X520416Y184000D01*
X521216Y183200D01*
X520416Y182400D01*
X519616Y183200D01*
X498819Y178000D02*
X499619Y178800D01*
X500419Y178000D01*
X499619Y177200D01*
X498819Y178000D01*
X501731D02*
X502531Y178800D01*
X503331Y178000D01*
X502531Y177200D01*
X501731Y178000D01*
X484211Y180289D02*
X485011Y181089D01*
X485811Y180289D01*
X485011Y179489D01*
X484211Y180289D01*
X482152Y182348D02*
X482952Y183148D01*
X483752Y182348D01*
X482952Y181548D01*
X482152Y182348D01*
X468411Y184789D02*
X469211Y185589D01*
X470011Y184789D01*
X469211Y183989D01*
X468411Y184789D01*
X466352Y186848D02*
X467152Y187648D01*
X467952Y186848D01*
X467152Y186048D01*
X466352Y186848D01*
X449700Y179400D02*
X450500Y180200D01*
X451300Y179400D01*
X450500Y178600D01*
X449700Y179400D01*
X446788D02*
X447588Y180200D01*
X448388Y179400D01*
X447588Y178600D01*
X446788Y179400D01*
X546146Y177500D02*
X546946Y178300D01*
X547746Y177500D01*
X546946Y176700D01*
X546146Y177500D01*
X543233D02*
X544033Y178300D01*
X544833Y177500D01*
X544033Y176700D01*
X543233Y177500D01*
X546200Y229200D02*
X547000Y230000D01*
X547800Y229200D01*
X547000Y228400D01*
X546200Y229200D01*
X549112D02*
X549912Y230000D01*
X550712Y229200D01*
X549912Y228400D01*
X549112Y229200D01*
X533600Y229000D02*
X534400Y229800D01*
X535200Y229000D01*
X534400Y228200D01*
X533600Y229000D01*
X536512D02*
X537312Y229800D01*
X538112Y229000D01*
X537312Y228200D01*
X536512Y229000D01*
X530401Y179400D02*
X531201Y180200D01*
X532000Y179400D01*
X531201Y178600D01*
X530401Y179400D01*
X527488D02*
X528288Y180200D01*
X529088Y179400D01*
X528288Y178600D01*
X527488Y179400D01*
X521000Y229200D02*
X521800Y230000D01*
X522600Y229200D01*
X521800Y228400D01*
X521000Y229200D01*
X523912D02*
X524712Y230000D01*
X525512Y229200D01*
X524712Y228400D01*
X523912Y229200D01*
X514655Y179500D02*
X515455Y180300D01*
X516255Y179500D01*
X515455Y178700D01*
X514655Y179500D01*
X511743D02*
X512543Y180300D01*
X513343Y179500D01*
X512543Y178700D01*
X511743Y179500D01*
X508400Y229200D02*
X509200Y230000D01*
X510000Y229200D01*
X509200Y228400D01*
X508400Y229200D01*
X511312D02*
X512112Y230000D01*
X512912Y229200D01*
X512112Y228400D01*
X511312Y229200D01*
X488126Y176300D02*
X488926Y177100D01*
X489726Y176300D01*
X488926Y175500D01*
X488126Y176300D01*
X491038D02*
X491838Y177100D01*
X492638Y176300D01*
X491838Y175500D01*
X491038Y176300D01*
X495800Y229200D02*
X496600Y230000D01*
X497400Y229200D01*
X496600Y228400D01*
X495800Y229200D01*
X498712D02*
X499512Y230000D01*
X500312Y229200D01*
X499512Y228400D01*
X498712Y229200D01*
X475293Y178300D02*
X476093Y179100D01*
X476893Y178300D01*
X476093Y177500D01*
X475293Y178300D01*
X472380D02*
X473180Y179100D01*
X473981Y178300D01*
X473180Y177500D01*
X472380Y178300D01*
X470460Y229134D02*
X471260Y229934D01*
X472060Y229134D01*
X471260Y228334D01*
X470460Y229134D01*
X483300Y229200D02*
X484100Y230000D01*
X484900Y229200D01*
X484100Y228400D01*
X483300Y229200D01*
X486212D02*
X487012Y230000D01*
X487812Y229200D01*
X487012Y228400D01*
X486212Y229200D01*
X459548Y181900D02*
X460348Y182700D01*
X461148Y181900D01*
X460348Y181100D01*
X459548Y181900D01*
X456635D02*
X457435Y182700D01*
X458235Y181900D01*
X457435Y181100D01*
X456635Y181900D01*
X473372Y229134D02*
X474172Y229934D01*
X474972Y229134D01*
X474172Y228334D01*
X473372Y229134D01*
X439866Y181890D02*
X440666Y182690D01*
X441466Y181890D01*
X440666Y181090D01*
X439866Y181890D01*
X436954D02*
X437754Y182690D01*
X438554Y181890D01*
X437754Y181090D01*
X436954Y181890D01*
X413666Y259000D02*
Y260600D01*
X415266D01*
Y259000D01*
X413666D01*
X414066Y259400D02*
Y260200D01*
X414866D01*
Y259400D01*
X414066D01*
X416800Y202600D02*
Y204200D01*
X418400D01*
Y202600D01*
X416800D01*
X417200Y203000D02*
Y203800D01*
X418000D01*
Y203000D01*
X417200D01*
X449430Y259000D02*
Y260600D01*
X451030D01*
Y259000D01*
X449430D01*
X449830Y259400D02*
Y260200D01*
X450630D01*
Y259400D01*
X449830D01*
X488800Y259000D02*
Y260600D01*
X490400D01*
Y259000D01*
X488800D01*
X489200Y259400D02*
Y260200D01*
X490000D01*
Y259400D01*
X489200D01*
X524466Y259000D02*
Y260600D01*
X526066D01*
Y259000D01*
X524466D01*
X524866Y259400D02*
Y260200D01*
X525666D01*
Y259400D01*
X524866D01*
X560066Y259000D02*
Y260600D01*
X561666D01*
Y259000D01*
X560066D01*
X560466Y259400D02*
Y260200D01*
X561266D01*
Y259400D01*
X560466D01*
X380893Y184449D02*
X381693Y185249D01*
X382493Y184449D01*
X381693Y183649D01*
X380893Y184449D01*
Y181299D02*
X381693Y182099D01*
X382493Y181299D01*
X381693Y180499D01*
X380893Y181299D01*
Y178150D02*
X381693Y178950D01*
X382493Y178150D01*
X381693Y177350D01*
X380893Y178150D01*
Y175000D02*
X381693Y175800D01*
X382493Y175000D01*
X381693Y174200D01*
X380893Y175000D01*
X385420D02*
X386221Y175800D01*
X387020Y175000D01*
X386221Y174200D01*
X385420Y175000D01*
Y178150D02*
X386221Y178950D01*
X387020Y178150D01*
X386221Y177350D01*
X385420Y178150D01*
Y181299D02*
X386221Y182099D01*
X387020Y181299D01*
X386221Y180499D01*
X385420Y181299D01*
Y184449D02*
X386221Y185249D01*
X387020Y184449D01*
X386221Y183649D01*
X385420Y184449D01*
X402940Y180315D02*
X403740Y181115D01*
X404540Y180315D01*
X403740Y179515D01*
X402940Y180315D01*
Y183465D02*
X403740Y184265D01*
X404540Y183465D01*
X403740Y182665D01*
X402940Y183465D01*
Y186417D02*
X403740Y187217D01*
X404540Y186417D01*
X403740Y185617D01*
X402940Y186417D01*
D73*
X220402Y174094D02*
G03*
X220402Y174094I-800J0D01*
G01*
X246623D02*
G03*
X246623Y174094I-800J0D01*
G01*
M02*
