G04*
G04 #@! TF.GenerationSoftware,Altium Limited,Altium Designer,19.1.6 (110)*
G04*
G04 Layer_Color=128*
%FSLAX25Y25*%
%MOIN*%
G70*
G01*
G75*
%ADD13R,0.02800X0.18000*%
%ADD56R,0.02800X0.12500*%
%ADD57R,0.06000X0.05000*%
%ADD58O,0.07874X0.19685*%
%ADD59R,0.12500X0.09937*%
D13*
X452987Y162632D02*
D03*
X449051D02*
D03*
X445115D02*
D03*
X441178D02*
D03*
X437242D02*
D03*
X433306D02*
D03*
X429369D02*
D03*
X417558D02*
D03*
X413622D02*
D03*
X409685D02*
D03*
X405748D02*
D03*
X401811D02*
D03*
X397873D02*
D03*
X393936D02*
D03*
X389999D02*
D03*
X386062D02*
D03*
X382125D02*
D03*
X456923D02*
D03*
X460860D02*
D03*
X464796D02*
D03*
X468732D02*
D03*
X472669D02*
D03*
X476605D02*
D03*
X480541D02*
D03*
X484477D02*
D03*
X488414D02*
D03*
X492350D02*
D03*
X496286D02*
D03*
X500222D02*
D03*
X508095D02*
D03*
X512031D02*
D03*
X515968D02*
D03*
X519904D02*
D03*
X523840D02*
D03*
X527776D02*
D03*
X531712D02*
D03*
X535649D02*
D03*
X539585D02*
D03*
X543521D02*
D03*
X547458D02*
D03*
X551394D02*
D03*
X555330D02*
D03*
X559266D02*
D03*
X563203D02*
D03*
X567139D02*
D03*
X504159D02*
D03*
X571075D02*
D03*
X575011D02*
D03*
D56*
X378188Y165382D02*
D03*
D57*
X308213Y421260D02*
D03*
X299213D02*
D03*
X308213Y433071D02*
D03*
X299213D02*
D03*
D58*
X328415Y401358D02*
D03*
X318415D02*
D03*
X286415D02*
D03*
X276665Y401221D02*
D03*
X328415Y321358D02*
D03*
X318415D02*
D03*
X286665Y321220D02*
D03*
X276165D02*
D03*
D59*
X344094Y351181D02*
D03*
Y365744D02*
D03*
M02*
