G04*
G04 #@! TF.GenerationSoftware,Altium Limited,Altium Designer,19.1.6 (110)*
G04*
G04 Layer_Physical_Order=2*
G04 Layer_Color=16711680*
%FSLAX25Y25*%
%MOIN*%
G70*
G01*
G75*
%ADD11C,0.01000*%
%ADD13R,0.02800X0.18000*%
%ADD34C,0.01200*%
%ADD35C,0.10000*%
%ADD40C,0.08500*%
%ADD41C,0.02500*%
%ADD45C,0.08268*%
%ADD46C,0.04724*%
%ADD47C,0.03150*%
%ADD48C,0.12205*%
%ADD49R,0.06299X0.06299*%
%ADD50C,0.06299*%
%ADD51R,0.06000X0.07000*%
%ADD52O,0.06000X0.07000*%
%ADD53O,0.07087X0.07874*%
%ADD54C,0.02362*%
%ADD55C,0.02800*%
%ADD56R,0.02800X0.12500*%
%ADD57R,0.06000X0.05000*%
%ADD58O,0.07874X0.19685*%
%ADD59R,0.12500X0.09937*%
%ADD60C,0.06500*%
%ADD61C,0.07087*%
%ADD62C,0.06000*%
G36*
X593126Y462704D02*
Y183396D01*
X591014Y181283D01*
X579173D01*
X578803Y181210D01*
X578489Y181000D01*
X576485Y178996D01*
X576275Y178682D01*
X576201Y178311D01*
Y170524D01*
X575847Y170171D01*
X573025Y170172D01*
Y172182D01*
X571155D01*
Y174533D01*
X571155Y174533D01*
Y185453D01*
X571239Y185469D01*
X571811Y185852D01*
X572194Y186425D01*
X572328Y187100D01*
X572194Y187775D01*
X571811Y188348D01*
X571239Y188731D01*
X570563Y188865D01*
X569888Y188731D01*
X569315Y188348D01*
X568899D01*
X568326Y188731D01*
X567651Y188865D01*
X566976Y188731D01*
X566403Y188348D01*
X566020Y187775D01*
X565886Y187100D01*
X566020Y186425D01*
X566403Y185852D01*
X566976Y185469D01*
X567060Y185453D01*
Y175258D01*
X567060Y175258D01*
Y172182D01*
X565189D01*
Y170531D01*
X564835Y170177D01*
X557280Y170182D01*
Y172182D01*
X555409D01*
Y172953D01*
X555494Y172969D01*
X556066Y173352D01*
X556449Y173925D01*
X556583Y174600D01*
X556449Y175275D01*
X556066Y175848D01*
X555494Y176231D01*
X554818Y176365D01*
X554143Y176231D01*
X553698Y175934D01*
X553362Y175881D01*
X553026Y175934D01*
X552581Y176231D01*
X551906Y176365D01*
X551230Y176231D01*
X550658Y175848D01*
X550275Y175275D01*
X550141Y174600D01*
X550275Y173925D01*
X550658Y173352D01*
X551230Y172969D01*
X551314Y172953D01*
Y172182D01*
X549444D01*
Y170540D01*
X549090Y170186D01*
X541535Y170191D01*
Y172182D01*
X539665D01*
Y173253D01*
X539748Y173269D01*
X540321Y173652D01*
X540704Y174225D01*
X540838Y174900D01*
X540704Y175575D01*
X540321Y176148D01*
X539748Y176531D01*
X539073Y176665D01*
X538398Y176531D01*
X537825Y176148D01*
X537409D01*
X536836Y176531D01*
X536161Y176665D01*
X535485Y176531D01*
X534913Y176148D01*
X534530Y175575D01*
X534396Y174900D01*
X534530Y174225D01*
X534913Y173652D01*
X535485Y173269D01*
X535569Y173253D01*
Y172182D01*
X533699D01*
Y170549D01*
X533345Y170195D01*
X525790Y170200D01*
Y172182D01*
X523919D01*
Y181553D01*
X524003Y181569D01*
X524576Y181952D01*
X524959Y182525D01*
X525093Y183200D01*
X524959Y183875D01*
X524576Y184448D01*
X524003Y184831D01*
X523328Y184965D01*
X522652Y184831D01*
X522208Y184534D01*
X521872Y184481D01*
X521536Y184534D01*
X521091Y184831D01*
X520416Y184965D01*
X519740Y184831D01*
X519168Y184448D01*
X518785Y183875D01*
X518651Y183200D01*
X518785Y182525D01*
X519168Y181952D01*
X519740Y181569D01*
X519824Y181553D01*
Y172182D01*
X517954D01*
Y170558D01*
X517600Y170205D01*
X513981Y170207D01*
Y172182D01*
X510081D01*
Y172182D01*
X510045D01*
Y172182D01*
X506145D01*
Y170565D01*
X505791Y170212D01*
X502172Y170214D01*
Y172182D01*
X500947D01*
X500740Y172682D01*
X501615Y173557D01*
X501631Y173542D01*
X502452Y174612D01*
X502968Y175858D01*
X503031Y176334D01*
X503206Y176369D01*
X503779Y176752D01*
X504162Y177325D01*
X504296Y178000D01*
X504162Y178675D01*
X503779Y179248D01*
X503206Y179631D01*
X502531Y179765D01*
X501856Y179631D01*
X501411Y179334D01*
X501075Y179281D01*
X500739Y179334D01*
X500294Y179631D01*
X499619Y179765D01*
X498944Y179631D01*
X498371Y179248D01*
X497988Y178675D01*
X497854Y178000D01*
X497988Y177325D01*
X498371Y176752D01*
X498399Y176132D01*
X497863Y175596D01*
X497498Y175253D01*
X497497Y175252D01*
X497203Y174869D01*
X496789Y174329D01*
X496343Y173253D01*
X496202Y172182D01*
X494336D01*
Y170572D01*
X493982Y170218D01*
X486427Y170223D01*
Y172182D01*
X484557D01*
Y177765D01*
X484559D01*
X484602Y178096D01*
X485011Y178524D01*
X485686Y178658D01*
X486259Y179041D01*
X486642Y179614D01*
X486776Y180289D01*
X486642Y180965D01*
X486259Y181537D01*
X485686Y181920D01*
X485011Y182054D01*
X484687Y182499D01*
X484582Y183024D01*
X484200Y183596D01*
X483627Y183979D01*
X482952Y184113D01*
X482276Y183979D01*
X481704Y183596D01*
X481321Y183024D01*
X481187Y182348D01*
X481321Y181673D01*
X481491Y181419D01*
X480988Y180477D01*
X480586Y179153D01*
X480450Y177776D01*
X480462D01*
X480462Y177776D01*
Y172182D01*
X478591D01*
Y170581D01*
X478237Y170228D01*
X470682Y170232D01*
Y172182D01*
X468812D01*
Y182397D01*
X468815D01*
X468865Y182776D01*
X469211Y183024D01*
X469886Y183158D01*
X470459Y183541D01*
X470842Y184114D01*
X470976Y184789D01*
X470842Y185465D01*
X470459Y186037D01*
X469886Y186420D01*
X469211Y186554D01*
X468887Y186999D01*
X468782Y187524D01*
X468400Y188096D01*
X467827Y188479D01*
X467152Y188613D01*
X466476Y188479D01*
X465904Y188096D01*
X465521Y187524D01*
X465387Y186848D01*
X465521Y186173D01*
X465696Y185911D01*
X465229Y185037D01*
X464838Y183748D01*
X464706Y182408D01*
X464716D01*
X464716Y182408D01*
Y172182D01*
X462846D01*
Y170590D01*
X462492Y170237D01*
X458873Y170239D01*
Y172182D01*
X454973D01*
Y170595D01*
X454620Y170241D01*
X451001Y170243D01*
Y172182D01*
X449130D01*
Y173262D01*
X449130Y173263D01*
X449240Y174097D01*
X449562Y174874D01*
X449781Y175159D01*
X450079Y175536D01*
X450079Y175536D01*
X450632Y176257D01*
X450980Y177096D01*
X451066Y177747D01*
X451175Y177769D01*
X451748Y178152D01*
X452131Y178725D01*
X452265Y179400D01*
X452131Y180075D01*
X451748Y180648D01*
X451175Y181031D01*
X450500Y181165D01*
X449825Y181031D01*
X449252Y180648D01*
X448836D01*
X448263Y181031D01*
X447588Y181165D01*
X446912Y181031D01*
X446340Y180648D01*
X445957Y180075D01*
X445823Y179400D01*
X445957Y178725D01*
X446340Y178152D01*
X446349Y177551D01*
X445761Y176785D01*
X445201Y175432D01*
X445010Y173980D01*
X445035D01*
X445035Y173980D01*
Y172182D01*
X443165D01*
Y170602D01*
X442811Y170248D01*
X439192Y170250D01*
Y172182D01*
X437714D01*
X437345Y172496D01*
X437163Y173876D01*
X436630Y175162D01*
X435783Y176266D01*
X435783Y176266D01*
X435454Y176630D01*
X434940Y177299D01*
X434430Y178530D01*
X434263Y179802D01*
X434272Y179851D01*
Y194982D01*
X434272Y194986D01*
X434387Y195567D01*
X434716Y196059D01*
X434720Y196062D01*
X460585Y221926D01*
X460590Y221921D01*
X461363Y222864D01*
X461938Y223938D01*
X462292Y225105D01*
X462411Y226318D01*
X462404D01*
Y227653D01*
X462488Y227669D01*
X463060Y228052D01*
X463443Y228625D01*
X463577Y229300D01*
X463443Y229975D01*
X463060Y230548D01*
X462488Y230931D01*
X461812Y231065D01*
X461137Y230931D01*
X460564Y230548D01*
X460148D01*
X459575Y230931D01*
X458900Y231065D01*
X458225Y230931D01*
X457652Y230548D01*
X457269Y229975D01*
X457135Y229300D01*
X457269Y228625D01*
X457652Y228052D01*
X458225Y227669D01*
X458309Y227653D01*
Y226680D01*
X458307D01*
X458205Y225907D01*
X457906Y225186D01*
X457431Y224567D01*
X457433Y224566D01*
X457433Y224566D01*
X431818Y198951D01*
X431800Y198970D01*
X430906Y197804D01*
X430344Y196447D01*
X430152Y194990D01*
X430177D01*
Y178198D01*
X430155D01*
X430333Y176848D01*
X430854Y175592D01*
X431682Y174512D01*
X431982Y174136D01*
X432238Y173753D01*
X432368Y173101D01*
X432383Y172621D01*
X432227Y172182D01*
X431356D01*
Y170608D01*
X431002Y170255D01*
X428134Y170257D01*
Y181693D01*
X428060Y182063D01*
X427850Y182378D01*
X427536Y182587D01*
X427165Y182661D01*
X419736D01*
X419366Y182587D01*
X419231Y182497D01*
X418731Y182729D01*
Y192373D01*
X422259Y195901D01*
X422348Y195883D01*
X423024Y196017D01*
X423596Y196400D01*
X423979Y196973D01*
X424113Y197648D01*
X423979Y198324D01*
X423596Y198896D01*
X423024Y199279D01*
X422348Y199413D01*
X421673Y199279D01*
X421100Y198896D01*
X420717Y198324D01*
X420583Y197648D01*
X420601Y197559D01*
X416729Y193688D01*
X416475Y193307D01*
X416386Y192859D01*
Y172182D01*
X415609D01*
X415447Y172615D01*
Y183465D01*
Y200927D01*
X416386Y201866D01*
X416839Y201563D01*
X417600Y201412D01*
X418361Y201563D01*
X419006Y201994D01*
X419437Y202639D01*
X419588Y203400D01*
X419437Y204161D01*
X419134Y204614D01*
X419410Y204890D01*
X420019Y205684D01*
X420402Y206608D01*
X420533Y207600D01*
X420402Y208592D01*
X420019Y209516D01*
X419569Y210103D01*
X419688Y210700D01*
X419537Y211461D01*
X419106Y212106D01*
X418461Y212537D01*
X417700Y212688D01*
X416939Y212537D01*
X416294Y212106D01*
X415863Y211461D01*
X415835Y211319D01*
X415708Y211302D01*
X414784Y210919D01*
X413990Y210310D01*
X408904Y205224D01*
X408295Y204431D01*
X407912Y203506D01*
X407781Y202514D01*
Y187297D01*
X405234D01*
X404988Y187665D01*
X404416Y188048D01*
X403740Y188182D01*
X403065Y188048D01*
X402492Y187665D01*
X402109Y187093D01*
X402068Y186885D01*
X401824Y186784D01*
X401030Y186175D01*
X400421Y185381D01*
X400038Y184457D01*
X399907Y183465D01*
X400038Y182473D01*
X400421Y181548D01*
X401030Y180754D01*
X401824Y180145D01*
X402026Y180062D01*
X402109Y179639D01*
X402492Y179067D01*
X403065Y178684D01*
X403740Y178550D01*
X404416Y178684D01*
X404988Y179067D01*
X405366Y179632D01*
X407781D01*
Y172647D01*
X407697Y172182D01*
X403797D01*
Y172182D01*
X403760D01*
Y172182D01*
X399861D01*
Y172182D01*
X399823D01*
Y172182D01*
X395923D01*
Y172182D01*
X395886D01*
Y172182D01*
X391986D01*
Y170632D01*
X391633Y170278D01*
X388012Y170280D01*
Y172182D01*
X387931D01*
Y174727D01*
X387985Y175000D01*
X387931Y175273D01*
Y177877D01*
X387985Y178150D01*
X387931Y178422D01*
Y181027D01*
X387985Y181299D01*
X387931Y181572D01*
Y183902D01*
X387910Y184067D01*
X387985Y184449D01*
X387851Y185124D01*
X387469Y185697D01*
X387468Y185697D01*
X387418Y185818D01*
X386809Y186612D01*
X386015Y187221D01*
X385090Y187604D01*
X384099Y187734D01*
X383106Y187604D01*
X382182Y187221D01*
X381388Y186612D01*
X380940Y186028D01*
X380445Y185697D01*
X380062Y185124D01*
X379928Y184449D01*
X380062Y183773D01*
X380266Y183469D01*
Y182279D01*
X380062Y181975D01*
X379928Y181299D01*
X380062Y180624D01*
X380266Y180319D01*
Y179130D01*
X380062Y178825D01*
X379928Y178150D01*
X380062Y177474D01*
X380266Y177170D01*
Y175980D01*
X380062Y175675D01*
X379928Y175000D01*
X380062Y174325D01*
X380266Y174020D01*
Y172629D01*
X380138Y172182D01*
X379315D01*
Y205201D01*
X382391Y208277D01*
X382600Y208235D01*
X383275Y208369D01*
X383848Y208752D01*
X384231Y209325D01*
X384365Y210000D01*
X384231Y210675D01*
X383848Y211248D01*
X383275Y211631D01*
X382600Y211765D01*
X381925Y211631D01*
X381352Y211248D01*
X380969Y210675D01*
X380835Y210000D01*
X380877Y209791D01*
X377487Y206401D01*
X377255Y206054D01*
X377174Y205644D01*
Y193119D01*
X376674Y192967D01*
X376602Y193074D01*
X375581Y194095D01*
Y194836D01*
X370069Y200348D01*
X201756D01*
Y411236D01*
X273135Y411236D01*
X273295Y410763D01*
X273144Y410647D01*
X272353Y409616D01*
X271855Y408415D01*
X271686Y407126D01*
Y401721D01*
X276665D01*
Y401221D01*
X277165D01*
Y390401D01*
X277954Y390505D01*
X279155Y391002D01*
X280187Y391794D01*
X280978Y392825D01*
X281298Y393599D01*
X281839D01*
X282103Y392963D01*
X282894Y391931D01*
X283926Y391140D01*
X285126Y390642D01*
X285915Y390539D01*
Y401358D01*
X286415D01*
Y401858D01*
X291395D01*
Y407263D01*
X291225Y408552D01*
X290728Y409753D01*
X289936Y410784D01*
X288905Y411576D01*
X288298Y411827D01*
X288296Y411834D01*
X288370Y412205D01*
Y462701D01*
X291040Y465370D01*
X590460D01*
X593126Y462704D01*
D02*
G37*
%LPC*%
G36*
X312213Y436571D02*
X308713D01*
Y433571D01*
X312213D01*
Y436571D01*
D02*
G37*
G36*
X307713D02*
X304213D01*
Y433571D01*
X307713D01*
Y436571D01*
D02*
G37*
G36*
X312213Y432571D02*
X308713D01*
Y429571D01*
X312213D01*
Y432571D01*
D02*
G37*
G36*
X307713D02*
X304213D01*
Y429571D01*
X307713D01*
Y432571D01*
D02*
G37*
G36*
X439483Y457674D02*
X437094Y457486D01*
X434764Y456927D01*
X432550Y456010D01*
X430507Y454758D01*
X428685Y453202D01*
X427129Y451380D01*
X425877Y449336D01*
X424960Y447123D01*
X424400Y444793D01*
X424212Y442404D01*
X424400Y440015D01*
X424960Y437685D01*
X425877Y435471D01*
X427129Y433428D01*
X428685Y431606D01*
X430507Y430050D01*
X432550Y428798D01*
X434764Y427881D01*
X437094Y427322D01*
X439483Y427134D01*
X441872Y427322D01*
X444202Y427881D01*
X446415Y428798D01*
X448458Y430050D01*
X450280Y431606D01*
X451837Y433428D01*
X453089Y435471D01*
X454006Y437685D01*
X454565Y440015D01*
X454753Y442404D01*
X454565Y444793D01*
X454006Y447123D01*
X453089Y449336D01*
X451837Y451380D01*
X450280Y453202D01*
X448458Y454758D01*
X446415Y456010D01*
X444202Y456927D01*
X441872Y457486D01*
X439483Y457674D01*
D02*
G37*
G36*
X312213Y424760D02*
X308713D01*
Y421760D01*
X312213D01*
Y424760D01*
D02*
G37*
G36*
X307713D02*
X304213D01*
Y421760D01*
X307713D01*
Y424760D01*
D02*
G37*
G36*
X312213Y420760D02*
X308713D01*
Y417760D01*
X312213D01*
Y420760D01*
D02*
G37*
G36*
X307713D02*
X304213D01*
Y417760D01*
X307713D01*
Y420760D01*
D02*
G37*
G36*
X356193Y415567D02*
X352543D01*
Y411917D01*
X356193D01*
Y415567D01*
D02*
G37*
G36*
X391839Y415492D02*
Y411524D01*
X395373D01*
X395236Y412568D01*
X394833Y413541D01*
X394191Y414376D01*
X393356Y415018D01*
X392383Y415421D01*
X391839Y415492D01*
D02*
G37*
G36*
X390839D02*
X390294Y415421D01*
X389321Y415018D01*
X388486Y414376D01*
X387845Y413541D01*
X387441Y412568D01*
X387304Y411524D01*
X390839D01*
Y415492D01*
D02*
G37*
G36*
X360842Y415567D02*
X357193D01*
Y411417D01*
Y407268D01*
X360842D01*
Y409435D01*
X361312Y409546D01*
X361343Y409542D01*
X361928Y408779D01*
X362701Y408186D01*
X363601Y407813D01*
X364567Y407686D01*
X365533Y407813D01*
X366433Y408186D01*
X367206Y408779D01*
X367798Y409552D01*
X368171Y410452D01*
X368299Y411417D01*
X368171Y412383D01*
X367798Y413283D01*
X367206Y414056D01*
X366433Y414649D01*
X365533Y415022D01*
X364567Y415149D01*
X363601Y415022D01*
X362701Y414649D01*
X361928Y414056D01*
X361343Y413292D01*
X361312Y413289D01*
X360842Y413400D01*
Y415567D01*
D02*
G37*
G36*
X356193Y410917D02*
X352543D01*
Y407268D01*
X356193D01*
Y410917D01*
D02*
G37*
G36*
X384889Y415074D02*
X377789D01*
Y406974D01*
X384889D01*
Y415074D01*
D02*
G37*
G36*
X395373Y410524D02*
X391839D01*
Y406555D01*
X392383Y406627D01*
X393356Y407030D01*
X394191Y407671D01*
X394833Y408506D01*
X395236Y409479D01*
X395373Y410524D01*
D02*
G37*
G36*
X390839D02*
X387304D01*
X387441Y409479D01*
X387845Y408506D01*
X388486Y407671D01*
X389321Y407030D01*
X390294Y406627D01*
X390839Y406555D01*
Y410524D01*
D02*
G37*
G36*
X576984Y420770D02*
X574595Y420582D01*
X572265Y420023D01*
X570052Y419106D01*
X568009Y417854D01*
X566187Y416298D01*
X564630Y414476D01*
X563378Y412433D01*
X562461Y410219D01*
X561902Y407889D01*
X561714Y405500D01*
X561902Y403111D01*
X562461Y400781D01*
X563378Y398567D01*
X563959Y397620D01*
X563568Y397301D01*
X562407Y398382D01*
X558298Y401693D01*
X553963Y404703D01*
X549424Y407396D01*
X544704Y409759D01*
X539829Y411778D01*
X534821Y413445D01*
X529707Y414750D01*
X524514Y415687D01*
X519266Y416251D01*
X513992Y416440D01*
X508718Y416251D01*
X503471Y415687D01*
X498277Y414750D01*
X493163Y413445D01*
X488156Y411778D01*
X483280Y409759D01*
X478560Y407396D01*
X474022Y404703D01*
X469687Y401693D01*
X465577Y398382D01*
X464416Y397301D01*
X464026Y397620D01*
X464606Y398567D01*
X465523Y400781D01*
X466082Y403111D01*
X466270Y405500D01*
X466082Y407889D01*
X465523Y410219D01*
X464606Y412433D01*
X463354Y414476D01*
X461798Y416298D01*
X459976Y417854D01*
X457933Y419106D01*
X455719Y420023D01*
X453389Y420582D01*
X451000Y420770D01*
X448611Y420582D01*
X446281Y420023D01*
X444067Y419106D01*
X442024Y417854D01*
X440202Y416298D01*
X438646Y414476D01*
X437394Y412433D01*
X436477Y410219D01*
X435918Y407889D01*
X435730Y405500D01*
X435918Y403111D01*
X436477Y400781D01*
X437394Y398567D01*
X438646Y396524D01*
X440202Y394702D01*
X442024Y393146D01*
X444067Y391894D01*
X446281Y390977D01*
X448611Y390418D01*
X451000Y390230D01*
X453389Y390418D01*
X455719Y390977D01*
X457933Y391894D01*
X458880Y392474D01*
X459199Y392084D01*
X458118Y390923D01*
X454807Y386813D01*
X451797Y382478D01*
X449104Y377940D01*
X446741Y373220D01*
X444722Y368344D01*
X443055Y363337D01*
X441750Y358223D01*
X440813Y353029D01*
X440249Y347782D01*
X440060Y342508D01*
X440249Y337234D01*
X440813Y331986D01*
X441750Y326793D01*
X443055Y321679D01*
X444722Y316671D01*
X446741Y311795D01*
X449104Y307076D01*
X451797Y302537D01*
X454807Y298202D01*
X458118Y294093D01*
X459199Y292932D01*
X458880Y292541D01*
X457933Y293122D01*
X455719Y294039D01*
X453389Y294598D01*
X451000Y294786D01*
X448611Y294598D01*
X446281Y294039D01*
X444067Y293122D01*
X442024Y291870D01*
X440202Y290314D01*
X438646Y288491D01*
X437394Y286448D01*
X436477Y284234D01*
X435918Y281905D01*
X435730Y279516D01*
X435918Y277127D01*
X436477Y274797D01*
X437394Y272583D01*
X438646Y270540D01*
X440202Y268718D01*
X442024Y267162D01*
X444067Y265910D01*
X446281Y264993D01*
X448611Y264433D01*
X451000Y264245D01*
X453389Y264433D01*
X455719Y264993D01*
X457933Y265910D01*
X459976Y267162D01*
X461798Y268718D01*
X463354Y270540D01*
X464606Y272583D01*
X465523Y274797D01*
X466082Y277127D01*
X466270Y279516D01*
X466082Y281905D01*
X465523Y284234D01*
X464606Y286448D01*
X464026Y287395D01*
X464416Y287715D01*
X465577Y286634D01*
X469687Y283322D01*
X474022Y280312D01*
X478560Y277620D01*
X483280Y275257D01*
X488156Y273237D01*
X493163Y271571D01*
X498277Y270266D01*
X503471Y269329D01*
X508718Y268764D01*
X513992Y268576D01*
X519266Y268764D01*
X524514Y269329D01*
X529707Y270266D01*
X534821Y271571D01*
X539829Y273237D01*
X544704Y275257D01*
X549424Y277620D01*
X553963Y280312D01*
X558298Y283322D01*
X562407Y286634D01*
X563568Y287715D01*
X563959Y287395D01*
X563378Y286448D01*
X562461Y284234D01*
X561902Y281905D01*
X561714Y279516D01*
X561902Y277127D01*
X562461Y274797D01*
X563378Y272583D01*
X564630Y270540D01*
X566187Y268718D01*
X568009Y267162D01*
X570052Y265910D01*
X572265Y264993D01*
X574595Y264433D01*
X576984Y264245D01*
X579373Y264433D01*
X581703Y264993D01*
X583917Y265910D01*
X585960Y267162D01*
X587782Y268718D01*
X589338Y270540D01*
X590590Y272583D01*
X591507Y274797D01*
X592067Y277127D01*
X592255Y279516D01*
X592067Y281905D01*
X591507Y284234D01*
X590590Y286448D01*
X589338Y288491D01*
X587782Y290314D01*
X585960Y291870D01*
X583917Y293122D01*
X581703Y294039D01*
X579373Y294598D01*
X576984Y294786D01*
X574595Y294598D01*
X572265Y294039D01*
X570052Y293122D01*
X569105Y292541D01*
X568785Y292932D01*
X569866Y294093D01*
X573177Y298202D01*
X576188Y302537D01*
X578881Y307076D01*
X581243Y311795D01*
X583262Y316671D01*
X584929Y321679D01*
X586234Y326793D01*
X587171Y331986D01*
X587736Y337234D01*
X587924Y342508D01*
X587736Y347782D01*
X587171Y353029D01*
X586234Y358223D01*
X584929Y363337D01*
X583262Y368344D01*
X581243Y373220D01*
X578881Y377940D01*
X576188Y382478D01*
X573177Y386813D01*
X569866Y390923D01*
X568785Y392084D01*
X569105Y392474D01*
X570052Y391894D01*
X572265Y390977D01*
X574595Y390418D01*
X576984Y390230D01*
X579373Y390418D01*
X581703Y390977D01*
X583917Y391894D01*
X585960Y393146D01*
X587782Y394702D01*
X589338Y396524D01*
X590590Y398567D01*
X591507Y400781D01*
X592067Y403111D01*
X592255Y405500D01*
X592067Y407889D01*
X591507Y410219D01*
X590590Y412433D01*
X589338Y414476D01*
X587782Y416298D01*
X585960Y417854D01*
X583917Y419106D01*
X581703Y420023D01*
X579373Y420582D01*
X576984Y420770D01*
D02*
G37*
G36*
X291395Y400858D02*
X286915D01*
Y390539D01*
X287704Y390642D01*
X288905Y391140D01*
X289936Y391931D01*
X290728Y392963D01*
X291225Y394163D01*
X291395Y395452D01*
Y400858D01*
D02*
G37*
G36*
X276165Y400721D02*
X271686D01*
Y395315D01*
X271855Y394026D01*
X272353Y392825D01*
X273144Y391794D01*
X274176Y391002D01*
X275377Y390505D01*
X276165Y390401D01*
Y400721D01*
D02*
G37*
G36*
X299128Y437199D02*
X298060Y437059D01*
X297064Y436646D01*
X296379Y436121D01*
X295663D01*
Y435279D01*
X295553Y435135D01*
X295140Y434139D01*
X294999Y433071D01*
Y409663D01*
X294999Y409663D01*
X295140Y408595D01*
X295553Y407599D01*
X296209Y406744D01*
X300360Y402593D01*
X300360Y402592D01*
X301215Y401936D01*
X302211Y401524D01*
X303279Y401383D01*
X313890D01*
Y395452D01*
X314044Y394281D01*
X314496Y393189D01*
X315215Y392252D01*
X316153Y391533D01*
X317244Y391081D01*
X318415Y390927D01*
X319587Y391081D01*
X320678Y391533D01*
X321616Y392252D01*
X322335Y393189D01*
X322568Y393751D01*
X323067Y393652D01*
Y383892D01*
X323067Y383892D01*
X323258Y382443D01*
X323817Y381093D01*
X324707Y379933D01*
X330439Y374201D01*
X332889Y371640D01*
X334845Y369339D01*
X335602Y368327D01*
X336218Y367403D01*
X336688Y366573D01*
X337015Y365845D01*
X337200Y365227D01*
X337265Y364657D01*
X337295Y364604D01*
Y360226D01*
X350894D01*
Y370524D01*
X350905Y370538D01*
X350894Y370629D01*
Y371263D01*
X350509D01*
X350495Y371273D01*
X350252Y371342D01*
X340757Y379727D01*
X339268Y381206D01*
X334263Y386210D01*
Y395661D01*
X334072Y397110D01*
X333513Y398460D01*
X332941Y399206D01*
Y407263D01*
X332787Y408435D01*
X332335Y409526D01*
X331615Y410463D01*
X330678Y411183D01*
X329587Y411635D01*
X328415Y411789D01*
X327244Y411635D01*
X326152Y411183D01*
X325215Y410463D01*
X324584Y409640D01*
X322247D01*
X321616Y410463D01*
X320678Y411183D01*
X319587Y411635D01*
X318415Y411789D01*
X317244Y411635D01*
X316153Y411183D01*
X315215Y410463D01*
X314584Y409640D01*
X304989D01*
X303257Y411373D01*
Y433071D01*
X303116Y434139D01*
X302763Y434993D01*
Y436121D01*
X301877D01*
X301192Y436646D01*
X300197Y437059D01*
X299128Y437199D01*
D02*
G37*
G36*
X392193Y337146D02*
Y333177D01*
X395727D01*
X395590Y334221D01*
X395187Y335194D01*
X394546Y336030D01*
X393710Y336671D01*
X392737Y337074D01*
X392193Y337146D01*
D02*
G37*
G36*
X391193D02*
X390649Y337074D01*
X389676Y336671D01*
X388840Y336030D01*
X388199Y335194D01*
X387796Y334221D01*
X387658Y333177D01*
X391193D01*
Y337146D01*
D02*
G37*
G36*
X356415Y336655D02*
X352765D01*
Y333005D01*
X356415D01*
Y336655D01*
D02*
G37*
G36*
X361064D02*
X357415D01*
Y332505D01*
Y328355D01*
X361064D01*
Y330522D01*
X361534Y330634D01*
X361564Y330630D01*
X362150Y329867D01*
X362923Y329274D01*
X363823Y328901D01*
X364789Y328773D01*
X365754Y328901D01*
X366654Y329274D01*
X367427Y329867D01*
X368020Y330639D01*
X368393Y331539D01*
X368520Y332505D01*
X368393Y333471D01*
X368020Y334371D01*
X367427Y335144D01*
X366654Y335737D01*
X365754Y336109D01*
X364789Y336237D01*
X363823Y336109D01*
X362923Y335737D01*
X362150Y335144D01*
X361564Y334380D01*
X361534Y334376D01*
X361064Y334488D01*
Y336655D01*
D02*
G37*
G36*
X385243Y336727D02*
X378143D01*
Y328627D01*
X385243D01*
Y336727D01*
D02*
G37*
G36*
X356415Y332005D02*
X352765D01*
Y328355D01*
X356415D01*
Y332005D01*
D02*
G37*
G36*
X395727Y332177D02*
X392193D01*
Y328208D01*
X392737Y328280D01*
X393710Y328683D01*
X394546Y329324D01*
X395187Y330160D01*
X395590Y331133D01*
X395727Y332177D01*
D02*
G37*
G36*
X391193D02*
X387658D01*
X387796Y331133D01*
X388199Y330160D01*
X388840Y329324D01*
X389676Y328683D01*
X390649Y328280D01*
X391193Y328208D01*
Y332177D01*
D02*
G37*
G36*
X287165Y332040D02*
Y321721D01*
X291645D01*
Y327126D01*
X291475Y328415D01*
X290978Y329616D01*
X290187Y330647D01*
X289155Y331438D01*
X287954Y331936D01*
X287165Y332040D01*
D02*
G37*
G36*
X276665D02*
Y321721D01*
X281145D01*
Y327126D01*
X280975Y328415D01*
X280478Y329616D01*
X279686Y330647D01*
X278655Y331438D01*
X277454Y331936D01*
X276665Y332040D01*
D02*
G37*
G36*
X286165D02*
X285377Y331936D01*
X284175Y331438D01*
X283144Y330647D01*
X282353Y329616D01*
X281855Y328415D01*
X281686Y327126D01*
Y321721D01*
X286165D01*
Y332040D01*
D02*
G37*
G36*
X275665D02*
X274876Y331936D01*
X273675Y331438D01*
X272644Y330647D01*
X271853Y329616D01*
X271355Y328415D01*
X271186Y327126D01*
Y321721D01*
X275665D01*
Y332040D01*
D02*
G37*
G36*
X318415Y331789D02*
X317244Y331635D01*
X316153Y331183D01*
X315215Y330464D01*
X314496Y329526D01*
X314044Y328435D01*
X313890Y327263D01*
Y315452D01*
X314044Y314281D01*
X314496Y313189D01*
X315215Y312252D01*
X316153Y311533D01*
X317244Y311081D01*
X318415Y310927D01*
X319587Y311081D01*
X320678Y311533D01*
X321616Y312252D01*
X322335Y313189D01*
X322787Y314281D01*
X322941Y315452D01*
Y327263D01*
X322787Y328435D01*
X322335Y329526D01*
X321616Y330464D01*
X320678Y331183D01*
X319587Y331635D01*
X318415Y331789D01*
D02*
G37*
G36*
X281145Y320721D02*
X276665D01*
Y310401D01*
X277454Y310505D01*
X278655Y311002D01*
X279686Y311794D01*
X280478Y312825D01*
X280975Y314026D01*
X281145Y315315D01*
Y320721D01*
D02*
G37*
G36*
X275665D02*
X271186D01*
Y315315D01*
X271355Y314026D01*
X271853Y312825D01*
X272644Y311794D01*
X273675Y311002D01*
X274876Y310505D01*
X275665Y310401D01*
Y320721D01*
D02*
G37*
G36*
X291645D02*
X286665D01*
X281686D01*
Y315315D01*
X281855Y314026D01*
X282353Y312825D01*
X283144Y311794D01*
X284175Y311002D01*
X285377Y310505D01*
X286176Y310400D01*
X286202Y310380D01*
X287065Y310022D01*
X287992Y309900D01*
X288919Y310022D01*
X289782Y310380D01*
X290524Y310949D01*
X291093Y311691D01*
X291451Y312554D01*
X291573Y313481D01*
X291488Y314124D01*
X291645Y315315D01*
Y320721D01*
D02*
G37*
G36*
X524712Y230965D02*
X524037Y230831D01*
X523592Y230534D01*
X523256Y230481D01*
X522920Y230534D01*
X522475Y230831D01*
X521800Y230965D01*
X521125Y230831D01*
X520552Y230448D01*
X520169Y229875D01*
X520035Y229200D01*
X520169Y228525D01*
X520552Y227952D01*
X521125Y227569D01*
X521209Y227553D01*
Y201098D01*
X521219Y201047D01*
X521054Y199373D01*
X520551Y197714D01*
X519733Y196185D01*
X518666Y194885D01*
X518623Y194856D01*
X515732Y191965D01*
X515720Y191977D01*
X514403Y190435D01*
X513343Y188706D01*
X512567Y186832D01*
X512094Y184861D01*
X511935Y182839D01*
X511952D01*
Y181147D01*
X511868Y181131D01*
X511295Y180748D01*
X510913Y180175D01*
X510778Y179500D01*
X510913Y178825D01*
X511295Y178252D01*
X511868Y177869D01*
X512543Y177735D01*
X513219Y177869D01*
X513663Y178166D01*
X513999Y178219D01*
X514335Y178166D01*
X514780Y177869D01*
X515455Y177735D01*
X516131Y177869D01*
X516704Y178252D01*
X517086Y178825D01*
X517220Y179500D01*
X517086Y180175D01*
X516704Y180748D01*
X516131Y181131D01*
X516047Y181147D01*
Y182832D01*
X516037Y182883D01*
X516202Y184557D01*
X516705Y186216D01*
X517522Y187745D01*
X518589Y189045D01*
X518632Y189074D01*
X521523Y191965D01*
X521536Y191953D01*
X522853Y193495D01*
X523912Y195224D01*
X524688Y197098D01*
X525162Y199070D01*
X525321Y201092D01*
X525304D01*
Y227553D01*
X525388Y227569D01*
X525960Y227952D01*
X526343Y228525D01*
X526477Y229200D01*
X526343Y229875D01*
X525960Y230448D01*
X525388Y230831D01*
X524712Y230965D01*
D02*
G37*
G36*
X512112D02*
X511437Y230831D01*
X510992Y230534D01*
X510656Y230481D01*
X510320Y230534D01*
X509875Y230831D01*
X509200Y230965D01*
X508525Y230831D01*
X507952Y230448D01*
X507569Y229875D01*
X507435Y229200D01*
X507569Y228525D01*
X507952Y227952D01*
X508525Y227569D01*
X508609Y227553D01*
Y204198D01*
X508619Y204147D01*
X508454Y202473D01*
X507951Y200814D01*
X507133Y199285D01*
X506066Y197985D01*
X506023Y197956D01*
X490494Y182427D01*
X490135Y182079D01*
X490135Y182079D01*
X489367Y181143D01*
X488797Y180076D01*
X488446Y178917D01*
X488350Y177951D01*
X488250Y177931D01*
X487677Y177548D01*
X487295Y176975D01*
X487161Y176300D01*
X487295Y175625D01*
X487677Y175052D01*
X488250Y174669D01*
X488926Y174535D01*
X489601Y174669D01*
X490046Y174966D01*
X490382Y175019D01*
X490718Y174966D01*
X491162Y174669D01*
X491838Y174535D01*
X492513Y174669D01*
X493086Y175052D01*
X493469Y175625D01*
X493603Y176300D01*
X493469Y176975D01*
X493086Y177548D01*
X492513Y177931D01*
X492463Y177941D01*
X492577Y178510D01*
X493015Y179166D01*
X493043Y179185D01*
X508923Y195065D01*
X508923Y195065D01*
X508936Y195053D01*
X510253Y196595D01*
X511312Y198324D01*
X512088Y200198D01*
X512562Y202170D01*
X512721Y204191D01*
X512704D01*
Y227553D01*
X512788Y227569D01*
X513360Y227952D01*
X513743Y228525D01*
X513877Y229200D01*
X513743Y229875D01*
X513360Y230448D01*
X512788Y230831D01*
X512112Y230965D01*
D02*
G37*
G36*
X499512D02*
X498837Y230831D01*
X498392Y230534D01*
X498056Y230481D01*
X497720Y230534D01*
X497275Y230831D01*
X496600Y230965D01*
X495925Y230831D01*
X495352Y230448D01*
X494969Y229875D01*
X494835Y229200D01*
X494969Y228525D01*
X495352Y227952D01*
X495925Y227569D01*
X496009Y227553D01*
Y209298D01*
X496019Y209247D01*
X495854Y207573D01*
X495351Y205914D01*
X494533Y204385D01*
X493466Y203085D01*
X493423Y203056D01*
X474366Y184000D01*
X474362Y184004D01*
X473606Y183084D01*
X473045Y182033D01*
X472699Y180894D01*
X472606Y179951D01*
X472505Y179931D01*
X471933Y179548D01*
X471550Y178975D01*
X471416Y178300D01*
X471550Y177625D01*
X471933Y177052D01*
X472505Y176669D01*
X473180Y176535D01*
X473856Y176669D01*
X474429Y177052D01*
X474845D01*
X475417Y176669D01*
X476093Y176535D01*
X476768Y176669D01*
X477341Y177052D01*
X477723Y177625D01*
X477858Y178300D01*
X477723Y178975D01*
X477341Y179548D01*
X476768Y179931D01*
X476720Y179940D01*
X476825Y180467D01*
X476994Y180720D01*
X477266Y181108D01*
X477614Y181456D01*
X496323Y200165D01*
X496323Y200165D01*
X496336Y200153D01*
X497653Y201695D01*
X498712Y203424D01*
X499488Y205298D01*
X499962Y207270D01*
X500121Y209292D01*
X500104D01*
Y227553D01*
X500188Y227569D01*
X500760Y227952D01*
X501143Y228525D01*
X501277Y229200D01*
X501143Y229875D01*
X500760Y230448D01*
X500188Y230831D01*
X499512Y230965D01*
D02*
G37*
G36*
X549912D02*
X549237Y230831D01*
X548664Y230448D01*
X548248D01*
X547675Y230831D01*
X547000Y230965D01*
X546325Y230831D01*
X545752Y230448D01*
X545369Y229875D01*
X545235Y229200D01*
X545369Y228525D01*
X545752Y227952D01*
X546325Y227569D01*
X546409Y227553D01*
Y184714D01*
X546411Y184704D01*
X546289Y184091D01*
X545941Y183572D01*
X545933Y183566D01*
X544985Y182618D01*
X544953Y182618D01*
X544953Y182618D01*
X544121Y181533D01*
X543598Y180271D01*
X543450Y179149D01*
X543358Y179131D01*
X542785Y178748D01*
X542403Y178175D01*
X542268Y177500D01*
X542403Y176825D01*
X542785Y176252D01*
X543358Y175869D01*
X544033Y175735D01*
X544709Y175869D01*
X545281Y176252D01*
X545697D01*
X546270Y175869D01*
X546946Y175735D01*
X547621Y175869D01*
X548194Y176252D01*
X548576Y176825D01*
X548711Y177500D01*
X548576Y178175D01*
X548194Y178748D01*
X547884Y178955D01*
X547783Y179566D01*
X547787Y179576D01*
X547877Y179711D01*
X547873Y179715D01*
X548485Y180327D01*
X548857Y180662D01*
X548857Y180662D01*
X549765Y181845D01*
X550335Y183222D01*
X550530Y184700D01*
X550504D01*
Y227553D01*
X550588Y227569D01*
X551160Y227952D01*
X551543Y228525D01*
X551677Y229200D01*
X551543Y229875D01*
X551160Y230448D01*
X550588Y230831D01*
X549912Y230965D01*
D02*
G37*
G36*
X487012D02*
X486337Y230831D01*
X485764Y230448D01*
X485348D01*
X484775Y230831D01*
X484100Y230965D01*
X483425Y230831D01*
X482852Y230448D01*
X482469Y229875D01*
X482335Y229200D01*
X482469Y228525D01*
X482852Y227952D01*
X483425Y227569D01*
X483509Y227553D01*
Y219098D01*
X483519Y219047D01*
X483354Y217373D01*
X482851Y215714D01*
X482033Y214185D01*
X480966Y212885D01*
X480923Y212856D01*
X460624Y192557D01*
X460612Y192570D01*
X459295Y191027D01*
X458235Y189298D01*
X457459Y187425D01*
X456986Y185453D01*
X456836Y183546D01*
X456760Y183531D01*
X456187Y183148D01*
X455805Y182575D01*
X455670Y181900D01*
X455805Y181225D01*
X456187Y180652D01*
X456760Y180269D01*
X457435Y180135D01*
X458111Y180269D01*
X458555Y180566D01*
X458891Y180619D01*
X459228Y180566D01*
X459672Y180269D01*
X460348Y180135D01*
X461023Y180269D01*
X461596Y180652D01*
X461978Y181225D01*
X462113Y181900D01*
X461978Y182575D01*
X461596Y183148D01*
X461023Y183531D01*
X460936Y183548D01*
X461094Y185150D01*
X461597Y186808D01*
X462414Y188337D01*
X463482Y189638D01*
X463525Y189666D01*
X483823Y209965D01*
X483823Y209965D01*
X483836Y209953D01*
X485153Y211495D01*
X486212Y213224D01*
X486988Y215098D01*
X487462Y217070D01*
X487621Y219092D01*
X487604D01*
Y227553D01*
X487688Y227569D01*
X488260Y227952D01*
X488643Y228525D01*
X488777Y229200D01*
X488643Y229875D01*
X488260Y230448D01*
X487688Y230831D01*
X487012Y230965D01*
D02*
G37*
G36*
X474172Y230899D02*
X473497Y230765D01*
X472924Y230382D01*
X472508D01*
X471935Y230765D01*
X471260Y230899D01*
X470584Y230765D01*
X470012Y230382D01*
X469629Y229809D01*
X469495Y229134D01*
X469629Y228458D01*
X470012Y227886D01*
X470584Y227503D01*
X470668Y227486D01*
Y222946D01*
X470679Y222895D01*
X470514Y221221D01*
X470010Y219562D01*
X469193Y218034D01*
X468126Y216733D01*
X468083Y216704D01*
X439273Y187894D01*
X438915Y187545D01*
X438915Y187545D01*
X438168Y186635D01*
X437613Y185597D01*
X437272Y184471D01*
X437180Y183541D01*
X437079Y183520D01*
X436506Y183138D01*
X436123Y182565D01*
X435989Y181890D01*
X436123Y181214D01*
X436506Y180642D01*
X437079Y180259D01*
X437754Y180125D01*
X438429Y180259D01*
X438874Y180556D01*
X439210Y180609D01*
X439546Y180556D01*
X439991Y180259D01*
X440666Y180125D01*
X441342Y180259D01*
X441914Y180642D01*
X442297Y181214D01*
X442431Y181890D01*
X442297Y182565D01*
X441914Y183138D01*
X441342Y183520D01*
X441304Y183576D01*
X441395Y184031D01*
X441549Y184262D01*
X441820Y184650D01*
X442164Y184994D01*
X470983Y213813D01*
X470996Y213801D01*
X472313Y215343D01*
X473372Y217072D01*
X474148Y218946D01*
X474622Y220918D01*
X474781Y222939D01*
X474763D01*
Y227486D01*
X474848Y227503D01*
X475420Y227886D01*
X475803Y228458D01*
X475937Y229134D01*
X475803Y229809D01*
X475420Y230382D01*
X474848Y230765D01*
X474172Y230899D01*
D02*
G37*
G36*
X562691Y230865D02*
X562015Y230731D01*
X561443Y230348D01*
X561026D01*
X560454Y230731D01*
X559778Y230865D01*
X559103Y230731D01*
X558530Y230348D01*
X558148Y229775D01*
X558013Y229100D01*
X558148Y228425D01*
X558530Y227852D01*
X559103Y227469D01*
X559187Y227453D01*
Y183147D01*
X559103Y183131D01*
X558530Y182748D01*
X558148Y182175D01*
X558013Y181500D01*
X558148Y180825D01*
X558530Y180252D01*
X559103Y179869D01*
X559778Y179735D01*
X560454Y179869D01*
X561026Y180252D01*
X561443D01*
X562015Y179869D01*
X562691Y179735D01*
X563366Y179869D01*
X563939Y180252D01*
X564321Y180825D01*
X564456Y181500D01*
X564321Y182175D01*
X563939Y182748D01*
X563366Y183131D01*
X563282Y183147D01*
Y227453D01*
X563366Y227469D01*
X563939Y227852D01*
X564321Y228425D01*
X564456Y229100D01*
X564321Y229775D01*
X563939Y230348D01*
X563366Y230731D01*
X562691Y230865D01*
D02*
G37*
G36*
X537312Y230765D02*
X536637Y230631D01*
X536064Y230248D01*
X535648D01*
X535075Y230631D01*
X534400Y230765D01*
X533725Y230631D01*
X533152Y230248D01*
X532769Y229675D01*
X532635Y229000D01*
X532769Y228325D01*
X533152Y227752D01*
X533725Y227369D01*
X533809Y227353D01*
Y193398D01*
X533819Y193347D01*
X533654Y191673D01*
X533151Y190014D01*
X532333Y188485D01*
X531266Y187185D01*
X531223Y187156D01*
X530045Y185978D01*
X529684Y185632D01*
X529684Y185632D01*
X528836Y184598D01*
X528206Y183419D01*
X527818Y182140D01*
X527710Y181050D01*
X527613Y181031D01*
X527040Y180648D01*
X526658Y180075D01*
X526523Y179400D01*
X526658Y178725D01*
X527040Y178152D01*
X527613Y177769D01*
X528288Y177635D01*
X528964Y177769D01*
X529536Y178152D01*
X529952D01*
X530525Y177769D01*
X531201Y177635D01*
X531876Y177769D01*
X532448Y178152D01*
X532831Y178725D01*
X532966Y179400D01*
X532831Y180075D01*
X532448Y180648D01*
X531876Y181031D01*
X531827Y181040D01*
X531889Y181508D01*
X532161Y182166D01*
X532594Y182730D01*
X532945Y183087D01*
X534123Y184265D01*
X534136Y184253D01*
X535453Y185795D01*
X536512Y187524D01*
X537288Y189398D01*
X537762Y191370D01*
X537921Y193392D01*
X537904D01*
Y227353D01*
X537988Y227369D01*
X538560Y227752D01*
X538943Y228325D01*
X539077Y229000D01*
X538943Y229675D01*
X538560Y230248D01*
X537988Y230631D01*
X537312Y230765D01*
D02*
G37*
G36*
X430600Y229565D02*
X429925Y229431D01*
X429352Y229048D01*
X428969Y228475D01*
X428835Y227800D01*
X428836Y227794D01*
X426871Y225829D01*
X426617Y225449D01*
X426528Y225000D01*
Y198486D01*
X422589Y194547D01*
X422500Y194565D01*
X421825Y194431D01*
X421252Y194048D01*
X420869Y193475D01*
X420735Y192800D01*
X420869Y192125D01*
X421252Y191552D01*
X421825Y191169D01*
X422500Y191035D01*
X423175Y191169D01*
X423748Y191552D01*
X424131Y192125D01*
X424265Y192800D01*
X424247Y192889D01*
X428529Y197171D01*
X428783Y197551D01*
X428872Y198000D01*
Y224514D01*
X430428Y226069D01*
X430600Y226035D01*
X431275Y226169D01*
X431848Y226552D01*
X432231Y227125D01*
X432365Y227800D01*
X432231Y228475D01*
X431848Y229048D01*
X431275Y229431D01*
X430600Y229565D01*
D02*
G37*
G36*
X581889Y229726D02*
X581061Y229561D01*
X580358Y229092D01*
X579888Y228389D01*
X579723Y227560D01*
X579888Y226731D01*
X580358Y226028D01*
X581061Y225558D01*
X581889Y225393D01*
X582719Y225558D01*
X583421Y226028D01*
X583891Y226731D01*
X584056Y227560D01*
X583891Y228389D01*
X583421Y229092D01*
X582719Y229561D01*
X581889Y229726D01*
D02*
G37*
G36*
X376378Y230497D02*
X375617Y230397D01*
X374909Y230103D01*
X374301Y229637D01*
X373834Y229028D01*
X373540Y228320D01*
X373440Y227560D01*
X373540Y226799D01*
X373834Y226091D01*
X374301Y225483D01*
X374909Y225016D01*
X375617Y224722D01*
X376378Y224622D01*
X377138Y224722D01*
X377846Y225016D01*
X378454Y225483D01*
X378921Y226091D01*
X379215Y226799D01*
X379315Y227560D01*
X379215Y228320D01*
X378921Y229028D01*
X378454Y229637D01*
X377846Y230103D01*
X377138Y230397D01*
X376378Y230497D01*
D02*
G37*
G36*
X350900Y241255D02*
X348511Y241067D01*
X346181Y240507D01*
X343967Y239590D01*
X341924Y238338D01*
X340102Y236782D01*
X338546Y234960D01*
X337294Y232917D01*
X336377Y230703D01*
X335818Y228373D01*
X335630Y225984D01*
X335818Y223595D01*
X336377Y221266D01*
X337294Y219052D01*
X338546Y217009D01*
X340102Y215187D01*
X341924Y213630D01*
X343967Y212378D01*
X346181Y211461D01*
X348511Y210902D01*
X350900Y210714D01*
X353289Y210902D01*
X355619Y211461D01*
X357833Y212378D01*
X359876Y213630D01*
X361698Y215187D01*
X363254Y217009D01*
X364506Y219052D01*
X365423Y221266D01*
X365982Y223595D01*
X366170Y225984D01*
X365982Y228373D01*
X365423Y230703D01*
X364506Y232917D01*
X363254Y234960D01*
X361698Y236782D01*
X359876Y238338D01*
X357833Y239590D01*
X355619Y240507D01*
X353289Y241067D01*
X350900Y241255D01*
D02*
G37*
G36*
X350894Y356700D02*
X337295D01*
Y345663D01*
X339056D01*
Y344017D01*
X326271Y331232D01*
X326152Y331183D01*
X325215Y330464D01*
X325049Y330246D01*
X324992Y330203D01*
X324223Y329200D01*
X323739Y328033D01*
X323574Y326780D01*
Y321358D01*
Y302785D01*
X323739Y301532D01*
X324223Y300364D01*
X324992Y299361D01*
X387559Y236795D01*
Y210600D01*
X387239Y210537D01*
X386594Y210106D01*
X386163Y209461D01*
X386012Y208700D01*
X386163Y207939D01*
X386594Y207294D01*
X387143Y206927D01*
X387188Y206699D01*
Y206600D01*
X387143Y206372D01*
X386594Y206006D01*
X386163Y205361D01*
X386012Y204600D01*
X386163Y203839D01*
X386594Y203194D01*
X387239Y202763D01*
X388000Y202612D01*
X388179Y202647D01*
X388207Y202579D01*
X388977Y201577D01*
X389979Y200807D01*
X391147Y200324D01*
X392400Y200159D01*
X393653Y200324D01*
X394821Y200807D01*
X395823Y201577D01*
X396593Y202579D01*
X396621Y202647D01*
X396800Y202612D01*
X397561Y202763D01*
X398206Y203194D01*
X398637Y203839D01*
X398788Y204600D01*
X398637Y205361D01*
X398206Y206006D01*
X397732Y206322D01*
X397728Y206334D01*
Y206866D01*
X397732Y206878D01*
X398206Y207194D01*
X398637Y207839D01*
X398788Y208600D01*
X398637Y209361D01*
X398206Y210006D01*
X397561Y210437D01*
X397241Y210500D01*
Y238800D01*
X397077Y240053D01*
X396593Y241221D01*
X395823Y242223D01*
X333257Y304790D01*
Y321358D01*
Y324524D01*
X347321Y338588D01*
X348090Y339591D01*
X348574Y340759D01*
X348739Y342012D01*
Y345663D01*
X350894D01*
Y356700D01*
D02*
G37*
G36*
X454200Y178224D02*
Y176600D01*
X455824D01*
X455755Y176951D01*
X455272Y177673D01*
X454551Y178155D01*
X454200Y178224D01*
D02*
G37*
G36*
X453200D02*
X452849Y178155D01*
X452128Y177673D01*
X451645Y176951D01*
X451576Y176600D01*
X453200D01*
Y178224D01*
D02*
G37*
G36*
X455824Y175600D02*
X454200D01*
Y173976D01*
X454551Y174046D01*
X455272Y174528D01*
X455755Y175249D01*
X455824Y175600D01*
D02*
G37*
G36*
X453200D02*
X451576D01*
X451645Y175249D01*
X452128Y174528D01*
X452849Y174046D01*
X453200Y173976D01*
Y175600D01*
D02*
G37*
%LPD*%
G36*
X340350Y379292D02*
X349959Y370807D01*
X350332Y370701D01*
X337857Y364725D01*
X337786Y365347D01*
X337574Y366053D01*
X337220Y366843D01*
X336725Y367715D01*
X336089Y368671D01*
X335311Y369710D01*
X333331Y372039D01*
X330785Y374701D01*
X338321Y381307D01*
X340350Y379292D01*
D02*
G37*
D11*
X378244Y165288D02*
Y205644D01*
X382600Y210000D01*
X378153Y165197D02*
X378244Y165288D01*
D13*
X452987Y162632D02*
D03*
X449051D02*
D03*
X445115D02*
D03*
X441178D02*
D03*
X437242D02*
D03*
X433306D02*
D03*
X429369D02*
D03*
X417558D02*
D03*
X413622D02*
D03*
X409685D02*
D03*
X405748D02*
D03*
X401811D02*
D03*
X397873D02*
D03*
X393936D02*
D03*
X389999D02*
D03*
X386062D02*
D03*
X382125D02*
D03*
X456923D02*
D03*
X460860D02*
D03*
X464796D02*
D03*
X468732D02*
D03*
X472669D02*
D03*
X476605D02*
D03*
X480541D02*
D03*
X484477D02*
D03*
X488414D02*
D03*
X492350D02*
D03*
X496286D02*
D03*
X500222D02*
D03*
X508095D02*
D03*
X512031D02*
D03*
X515968D02*
D03*
X519904D02*
D03*
X523840D02*
D03*
X527776D02*
D03*
X531712D02*
D03*
X535649D02*
D03*
X539585D02*
D03*
X543521D02*
D03*
X547458D02*
D03*
X551394D02*
D03*
X555330D02*
D03*
X559266D02*
D03*
X563203D02*
D03*
X567139D02*
D03*
X504159D02*
D03*
X571075D02*
D03*
X575011D02*
D03*
D34*
X450278Y178863D02*
G03*
X450500Y179400I-537J537D01*
G01*
X450278Y178863D02*
G03*
X449919Y177997I866J-866D01*
G01*
X449245Y176370D02*
G03*
X449919Y177997I-1627J1627D01*
G01*
X449245Y176370D02*
G03*
X447958Y173262I3108J-3108D01*
G01*
X447958Y172098D02*
G03*
X448504Y170779I1866J0D01*
G01*
X449051Y169459D02*
G03*
X448504Y170779I-1866J0D01*
G01*
X447786Y178922D02*
G03*
X447588Y179400I-677J0D01*
G01*
X447500Y177100D02*
G03*
X447786Y177790I-690J690D01*
G01*
X447500Y177100D02*
G03*
X446208Y173980I3120J-3120D01*
G01*
X445661Y170778D02*
G03*
X446208Y172098I-1319J1319D01*
G01*
X445661Y170778D02*
G03*
X445115Y169459I1319J-1319D01*
G01*
X436149Y172098D02*
G03*
X436695Y170779I1866J0D01*
G01*
X437242Y169459D02*
G03*
X436695Y170779I-1866J0D01*
G01*
X436149Y172496D02*
G03*
X434937Y175421I-4137J0D01*
G01*
X433100Y179851D02*
G03*
X434933Y175425I6260J0D01*
G01*
X461522Y228695D02*
G03*
X461231Y227993I701J-701D01*
G01*
X433891Y196891D02*
G03*
X433100Y194982I1909J-1909D01*
G01*
X433564Y172522D02*
G03*
X432527Y175357I-3571J301D01*
G01*
X431350Y178198D02*
G03*
X432527Y175357I4017J0D01*
G01*
X459121Y228764D02*
G03*
X459122Y228763I538J536D01*
G01*
X458900Y229300D02*
G03*
X459121Y228764I759J0D01*
G01*
X459481Y227993D02*
G03*
X459191Y228695I-992J0D01*
G01*
X432648Y198122D02*
G03*
X431350Y194990I3133J-3133D01*
G01*
X458262Y223737D02*
G03*
X459481Y226680I-2943J2943D01*
G01*
X461590Y228763D02*
G03*
X461812Y229300I-537J537D01*
G01*
X459756Y222756D02*
G03*
X461231Y226318I-3562J3562D01*
G01*
X554528Y173995D02*
G03*
X554237Y173293I701J-701D01*
G01*
X554237Y172098D02*
G03*
X554784Y170779I1866J0D01*
G01*
X555330Y169459D02*
G03*
X554784Y170779I-1866J0D01*
G01*
X552127Y174064D02*
G03*
X552128Y174063I538J536D01*
G01*
X551906Y174600D02*
G03*
X552127Y174064I759J0D01*
G01*
X552487Y173293D02*
G03*
X552197Y173995I-992J0D01*
G01*
X551940Y170779D02*
G03*
X552487Y172098I-1319J1319D01*
G01*
X551940Y170779D02*
G03*
X551394Y169459I1319J-1319D01*
G01*
X554596Y174063D02*
G03*
X554818Y174600I-537J537D01*
G01*
X562400Y228495D02*
G03*
X562110Y227794I701J-701D01*
G01*
X562110Y182903D02*
G03*
X562468Y182037I1225J0D01*
G01*
X562691Y181500D02*
G03*
X562468Y182037I-759J0D01*
G01*
X560000Y228564D02*
G03*
X560001Y228563I538J536D01*
G01*
X559778Y229100D02*
G03*
X560000Y228564I759J0D01*
G01*
X560360Y227794D02*
G03*
X560069Y228495I-992J0D01*
G01*
X560001Y182037D02*
G03*
X560360Y182903I-866J866D01*
G01*
X560001Y182037D02*
G03*
X559778Y181500I537J-537D01*
G01*
X562468Y228563D02*
G03*
X562691Y229100I-537J537D01*
G01*
X538783Y174295D02*
G03*
X538492Y173593I701J-701D01*
G01*
X538492Y172098D02*
G03*
X539039Y170779I1866J0D01*
G01*
X539585Y169459D02*
G03*
X539039Y170779I-1866J0D01*
G01*
X536382Y174364D02*
G03*
X536383Y174363I538J536D01*
G01*
X536161Y174900D02*
G03*
X536382Y174364I759J0D01*
G01*
X536742Y173593D02*
G03*
X536451Y174295I-992J0D01*
G01*
X536195Y170779D02*
G03*
X536742Y172098I-1319J1319D01*
G01*
X536195Y170779D02*
G03*
X535649Y169459I1319J-1319D01*
G01*
X538851Y174363D02*
G03*
X539073Y174900I-537J537D01*
G01*
X523037Y182595D02*
G03*
X522747Y181894I701J-701D01*
G01*
X522747Y172098D02*
G03*
X523293Y170779I1866J0D01*
G01*
X523840Y169459D02*
G03*
X523293Y170779I-1866J0D01*
G01*
X520637Y182664D02*
G03*
X520638Y182663I538J536D01*
G01*
X520416Y183200D02*
G03*
X520637Y182664I759J0D01*
G01*
X520997Y181894D02*
G03*
X520706Y182595I-992J0D01*
G01*
X520450Y170779D02*
G03*
X520997Y172098I-1319J1319D01*
G01*
X520450Y170779D02*
G03*
X519904Y169459I1319J-1319D01*
G01*
X523106Y182663D02*
G03*
X523328Y183200I-537J537D01*
G01*
X502107Y177576D02*
G03*
X501950Y177196I382J-381D01*
G01*
X502108Y177577D02*
G03*
X502107Y177576I381J-381D01*
G01*
X499626Y173226D02*
G03*
X499129Y172027I1199J-1199D01*
G01*
X499625Y170829D02*
G03*
X499626Y170829I1199J1198D01*
G01*
X499129Y172027D02*
G03*
X499625Y170829I1695J0D01*
G01*
X500222Y169459D02*
G03*
X499676Y170779I-1866J0D01*
G01*
X500200Y177200D02*
G03*
X500045Y177574I-528J0D01*
G01*
X499546Y175621D02*
G03*
X500200Y177200I-1579J1579D01*
G01*
X498337Y174412D02*
G03*
X497379Y172098I2316J-2314D01*
G01*
X498338Y174413D02*
G03*
X498337Y174412I2315J-2315D01*
G01*
X496833Y170779D02*
G03*
X497379Y172098I-1319J1319D01*
G01*
X496833Y170779D02*
G03*
X496286Y169459I1319J-1319D01*
G01*
X500786Y174386D02*
G03*
X501950Y177196I-2809J2809D01*
G01*
X484600Y180700D02*
G03*
X483384Y177765I2935J-2935D01*
G01*
X483384Y172098D02*
G03*
X483931Y170779I1866J0D01*
G01*
X484477Y169459D02*
G03*
X483931Y170779I-1866J0D01*
G01*
X483355Y181930D02*
G03*
X481634Y177776I4154J-4154D01*
G01*
X481088Y170779D02*
G03*
X481634Y172098I-1319J1319D01*
G01*
X481088Y170779D02*
G03*
X480541Y169459I1319J-1319D01*
G01*
X467555Y186430D02*
G03*
X465889Y182408I4022J-4022D01*
G01*
X465343Y170779D02*
G03*
X465889Y172098I-1319J1319D01*
G01*
X465343Y170779D02*
G03*
X464796Y169459I1319J-1319D01*
G01*
X468800Y185200D02*
G03*
X467639Y182397I2803J-2803D01*
G01*
X467639Y172098D02*
G03*
X468186Y170779I1866J0D01*
G01*
X468732Y169459D02*
G03*
X468186Y170779I-1866J0D01*
G01*
X546946Y177500D02*
G03*
X546723Y178037I-759J0D01*
G01*
X546364Y178903D02*
G03*
X546723Y178037I1225J0D01*
G01*
X549622Y228595D02*
G03*
X549331Y227893I701J-701D01*
G01*
X548009Y181509D02*
G03*
X549331Y184700I-3191J3191D01*
G01*
X547044Y180544D02*
G03*
X546364Y178903I1641J-1641D01*
G01*
X544256Y178037D02*
G03*
X544033Y177500I537J-537D01*
G01*
X547221Y228664D02*
G03*
X547222Y228663I538J536D01*
G01*
X547000Y229200D02*
G03*
X547221Y228664I759J0D01*
G01*
X547581Y227893D02*
G03*
X547291Y228595I-992J0D01*
G01*
X546763Y182737D02*
G03*
X547581Y184714I-1976J1976D01*
G01*
X545798Y181773D02*
G03*
X544615Y178916I2857J-2857D01*
G01*
X549690Y228663D02*
G03*
X549912Y229200I-537J537D01*
G01*
X537022Y228395D02*
G03*
X536731Y227694I701J-701D01*
G01*
X531762Y183562D02*
G03*
X530619Y180803I2760J-2760D01*
G01*
D02*
G03*
X530978Y179937I1225J0D01*
G01*
X531201Y179400D02*
G03*
X530978Y179937I-759J0D01*
G01*
X534621Y228464D02*
G03*
X534622Y228463I538J536D01*
G01*
X534400Y229000D02*
G03*
X534621Y228464I759J0D01*
G01*
X534981Y227694D02*
G03*
X534691Y228395I-992J0D01*
G01*
X532052Y186327D02*
G03*
X534981Y193398I-7071J7071D01*
G01*
X530520Y184795D02*
G03*
X528869Y180810I3986J-3986D01*
G01*
X528511Y179937D02*
G03*
X528869Y180803I-866J866D01*
G01*
X528511Y179937D02*
G03*
X528288Y179400I537J-537D01*
G01*
X537090Y228463D02*
G03*
X537312Y229000I-537J537D01*
G01*
X533294Y185094D02*
G03*
X536731Y193392I-8297J8297D01*
G01*
X524422Y228595D02*
G03*
X524131Y227893I701J-701D01*
G01*
X517803Y189903D02*
G03*
X514874Y182832I7071J-7071D01*
G01*
Y180903D02*
G03*
X515233Y180037I1225J0D01*
G01*
X515455Y179500D02*
G03*
X515233Y180037I-759J0D01*
G01*
X522021Y228664D02*
G03*
X522022Y228663I538J536D01*
G01*
X521800Y229200D02*
G03*
X522021Y228664I759J0D01*
G01*
X522381Y227893D02*
G03*
X522090Y228595I-992J0D01*
G01*
X519452Y194027D02*
G03*
X522381Y201098I-7071J7071D01*
G01*
X516561Y191136D02*
G03*
X513124Y182839I8297J-8297D01*
G01*
X512766Y180037D02*
G03*
X513124Y180903I-866J866D01*
G01*
X512766Y180037D02*
G03*
X512543Y179500I537J-537D01*
G01*
X524490Y228663D02*
G03*
X524712Y229200I-537J537D01*
G01*
X520694Y192794D02*
G03*
X524131Y201092I-8297J8297D01*
G01*
X511822Y228595D02*
G03*
X511531Y227893I701J-701D01*
G01*
X492214Y180014D02*
G03*
X491257Y177703I2311J-2311D01*
G01*
X491257D02*
G03*
X491615Y176837I1225J0D01*
G01*
X491838Y176300D02*
G03*
X491615Y176837I-759J0D01*
G01*
X509421Y228664D02*
G03*
X509422Y228663I538J536D01*
G01*
X509200Y229200D02*
G03*
X509421Y228664I759J0D01*
G01*
X509781Y227893D02*
G03*
X509490Y228595I-992J0D01*
G01*
X506852Y197127D02*
G03*
X509781Y204198I-7071J7071D01*
G01*
X490970Y181244D02*
G03*
X489507Y177713I3531J-3531D01*
G01*
X489148Y176837D02*
G03*
X489507Y177703I-866J866D01*
G01*
X489148Y176837D02*
G03*
X488926Y176300I537J-537D01*
G01*
X511890Y228663D02*
G03*
X512112Y229200I-537J537D01*
G01*
X508094Y195894D02*
G03*
X511531Y204191I-8297J8297D01*
G01*
X499222Y228595D02*
G03*
X498931Y227893I701J-701D01*
G01*
X476437Y181937D02*
G03*
X475512Y179703I2234J-2234D01*
G01*
X475512D02*
G03*
X475870Y178837I1225J0D01*
G01*
X476093Y178300D02*
G03*
X475870Y178837I-759J0D01*
G01*
X496821Y228664D02*
G03*
X496822Y228663I538J536D01*
G01*
X496600Y229200D02*
G03*
X496821Y228664I759J0D01*
G01*
X497181Y227893D02*
G03*
X496890Y228595I-992J0D01*
G01*
X494252Y202227D02*
G03*
X497181Y209298I-7071J7071D01*
G01*
X475196Y183170D02*
G03*
X473762Y179709I3462J-3462D01*
G01*
X473403Y178837D02*
G03*
X473762Y179703I-866J866D01*
G01*
X473403Y178837D02*
G03*
X473180Y178300I537J-537D01*
G01*
X499290Y228663D02*
G03*
X499512Y229200I-537J537D01*
G01*
X495494Y200994D02*
G03*
X498931Y209292I-8297J8297D01*
G01*
X486722Y228595D02*
G03*
X486431Y227893I701J-701D01*
G01*
X462696Y190496D02*
G03*
X459766Y183424I7071J-7071D01*
G01*
Y183303D02*
G03*
X460125Y182437I1225J0D01*
G01*
X460348Y181900D02*
G03*
X460125Y182437I-759J0D01*
G01*
X484321Y228664D02*
G03*
X484322Y228663I538J536D01*
G01*
X484100Y229200D02*
G03*
X484321Y228664I759J0D01*
G01*
X484681Y227893D02*
G03*
X484390Y228595I-992J0D01*
G01*
X481752Y212027D02*
G03*
X484681Y219098I-7071J7071D01*
G01*
X461453Y191728D02*
G03*
X458016Y183431I8297J-8297D01*
G01*
X457658Y182437D02*
G03*
X458016Y183303I-866J866D01*
G01*
X457658Y182437D02*
G03*
X457435Y181900I537J-537D01*
G01*
X486790Y228663D02*
G03*
X487012Y229200I-537J537D01*
G01*
X482994Y210794D02*
G03*
X486431Y219092I-8297J8297D01*
G01*
X473881Y228529D02*
G03*
X473591Y227827I701J-701D01*
G01*
X440991Y185479D02*
G03*
X440085Y183293I2186J-2186D01*
G01*
D02*
G03*
X440444Y182427I1225J0D01*
G01*
X440666Y181890D02*
G03*
X440444Y182427I-759J0D01*
G01*
X471481Y228598D02*
G03*
X471482Y228597I538J536D01*
G01*
X471260Y229134D02*
G03*
X471481Y228598I759J0D01*
G01*
X471841Y227827D02*
G03*
X471550Y228529I-992J0D01*
G01*
X468912Y215875D02*
G03*
X471841Y222946I-7071J7071D01*
G01*
X439749Y186712D02*
G03*
X438335Y183299I3412J-3412D01*
G01*
X437977Y182427D02*
G03*
X438335Y183293I-866J866D01*
G01*
X437977Y182427D02*
G03*
X437754Y181890I537J-537D01*
G01*
X473950Y228597D02*
G03*
X474172Y229134I-537J537D01*
G01*
X470154Y214642D02*
G03*
X473591Y222939I-8297J8297D01*
G01*
X450278Y178863D02*
X450278Y178863D01*
X449919Y177997D02*
X449919D01*
X449245Y176370D02*
X449245Y176370D01*
X449051Y162632D02*
Y169459D01*
X447958Y172098D02*
Y173262D01*
X447786Y177790D02*
Y178922D01*
X447500Y177100D02*
X447500Y177100D01*
X445661Y170779D02*
X445661Y170778D01*
X445115Y162632D02*
Y169459D01*
X417558Y192859D02*
X422348Y197648D01*
X417558Y162632D02*
Y192859D01*
X567651Y186785D02*
Y187100D01*
Y186785D02*
X568232Y186204D01*
Y175258D02*
Y186204D01*
X568232Y175258D02*
X568232Y175258D01*
X568232Y171325D02*
Y175258D01*
X567139Y170232D02*
X568232Y171325D01*
X567139Y162632D02*
Y170232D01*
X570563Y186785D02*
Y187100D01*
X569982Y186204D02*
X570563Y186785D01*
X569982Y174533D02*
Y186204D01*
X569982Y171325D02*
X571075Y170232D01*
Y162632D02*
Y170232D01*
X569982Y171325D02*
Y174533D01*
X569982Y174533D01*
X427700Y225000D02*
X430500Y227800D01*
X430600D01*
X427700Y198000D02*
Y225000D01*
X422500Y192800D02*
X427700Y198000D01*
X417558Y162482D02*
Y162632D01*
X417523Y162447D02*
X417558Y162482D01*
X436149Y172098D02*
Y172496D01*
X437242Y162632D02*
Y169459D01*
X433100Y179851D02*
Y194982D01*
X434933Y175425D02*
X434937Y175421D01*
X461522Y228695D02*
X461590Y228763D01*
X461231Y226318D02*
Y227993D01*
X433306Y169459D02*
X433564Y172522D01*
X459122Y228763D02*
X459191Y228695D01*
X459121Y228764D02*
X459122Y228763D01*
X459481Y226680D02*
Y227993D01*
X431350Y178198D02*
Y194990D01*
X433306Y162632D02*
Y169459D01*
X432648Y198122D02*
X458262Y223737D01*
X461812Y229300D02*
X461812D01*
X433891Y196891D02*
X459756Y222756D01*
X554528Y173995D02*
X554596Y174063D01*
X554237Y172098D02*
Y173293D01*
X555330Y162632D02*
Y169459D01*
X552128Y174063D02*
X552197Y173995D01*
X552127Y174064D02*
X552128Y174063D01*
X552487Y172098D02*
Y173293D01*
X551940Y170779D02*
X551940Y170778D01*
X554818Y174600D02*
X554818D01*
X551394Y162632D02*
Y169459D01*
X562400Y228495D02*
X562468Y228563D01*
X562110Y182903D02*
Y227794D01*
X560001Y228563D02*
X560069Y228495D01*
X560000Y228564D02*
X560001Y228563D01*
X560360Y182903D02*
Y227794D01*
X560001Y182037D02*
X560001Y182037D01*
X559778Y181500D02*
X559778D01*
X562691Y229100D02*
X562691D01*
X538783Y174295D02*
X538851Y174363D01*
X538492Y172098D02*
Y173593D01*
X539585Y162632D02*
Y169459D01*
X536383Y174363D02*
X536451Y174295D01*
X536382Y174364D02*
X536383Y174363D01*
X536742Y172098D02*
Y173593D01*
X536195Y170779D02*
X536195Y170778D01*
X539073Y174900D02*
X539073D01*
X535649Y162632D02*
Y169459D01*
X523037Y182595D02*
X523106Y182663D01*
X522747Y172098D02*
Y181894D01*
X523840Y162632D02*
Y169459D01*
X520638Y182663D02*
X520706Y182595D01*
X520637Y182664D02*
X520638Y182663D01*
X520997Y172098D02*
Y181894D01*
X520450Y170779D02*
X520450Y170778D01*
X523328Y183200D02*
X523328D01*
X519904Y162632D02*
Y169459D01*
X502108Y177577D02*
X502531Y178000D01*
X502107Y177576D02*
X502108Y177577D01*
X499129Y172027D02*
X499129D01*
X499626Y170829D02*
X499676Y170779D01*
X499625Y170829D02*
X499626Y170829D01*
X500222Y162632D02*
Y169459D01*
X499619Y178000D02*
X500045Y177574D01*
X498338Y174413D02*
X499546Y175621D01*
X498337Y174412D02*
X498338Y174413D01*
X496833Y170779D02*
X496833Y170778D01*
X499626Y173226D02*
X500786Y174386D01*
X496286Y162632D02*
Y169459D01*
X484600Y180700D02*
X485011Y180289D01*
X483384Y172098D02*
Y177765D01*
X484477Y162632D02*
Y169459D01*
X483355Y181930D02*
X483363Y181937D01*
X482952Y182348D02*
X483363Y181937D01*
X481634Y172098D02*
Y177776D01*
X480541Y162632D02*
Y169459D01*
X467555Y186430D02*
X467563Y186437D01*
X468800Y185200D02*
X469211Y184789D01*
X467639Y172098D02*
Y182397D01*
X468732Y162632D02*
Y169459D01*
X467152Y186848D02*
X467563Y186437D01*
X465889Y172098D02*
Y182408D01*
X464796Y162632D02*
Y169459D01*
X446208Y172098D02*
Y173980D01*
X450500Y179400D02*
X450500D01*
X549622Y228595D02*
X549690Y228663D01*
X549331Y184700D02*
Y227893D01*
X547044Y180544D02*
X548009Y181509D01*
X546364Y178903D02*
X546364D01*
X544256Y178037D02*
X544256Y178037D01*
X544033Y177500D02*
X544033D01*
X547222Y228663D02*
X547291Y228595D01*
X547221Y228664D02*
X547222Y228663D01*
X547581Y184714D02*
Y227893D01*
X546763Y182737D02*
X546763Y182737D01*
X545798Y181773D02*
X546763Y182737D01*
X544615Y178903D02*
Y178916D01*
X549912Y229200D02*
X549912D01*
X537022Y228395D02*
X537090Y228463D01*
X536731Y193392D02*
Y227694D01*
X534622Y228463D02*
X534691Y228395D01*
X534621Y228464D02*
X534622Y228463D01*
X534981Y193398D02*
Y227694D01*
X530520Y184795D02*
X532052Y186327D01*
X528869Y180803D02*
Y180810D01*
X528511Y179937D02*
X528511Y179937D01*
X528288Y179400D02*
X528288D01*
X537312Y229000D02*
X537312D01*
X531762Y183563D02*
X533294Y185094D01*
X524422Y228595D02*
X524490Y228663D01*
X524131Y201092D02*
Y227893D01*
X514874Y180903D02*
Y182832D01*
X522022Y228663D02*
X522090Y228595D01*
X522021Y228664D02*
X522022Y228663D01*
X522381Y201098D02*
Y227893D01*
X516561Y191136D02*
X519452Y194027D01*
X513124Y180903D02*
Y182839D01*
X512766Y180037D02*
X512766Y180037D01*
X512543Y179500D02*
X512543D01*
X524712Y229200D02*
X524712D01*
X517803Y189903D02*
X520694Y192794D01*
X511822Y228595D02*
X511890Y228663D01*
X511531Y204191D02*
Y227893D01*
X491257Y177703D02*
X491257D01*
X509422Y228663D02*
X509490Y228595D01*
X509421Y228664D02*
X509422Y228663D01*
X509781Y204198D02*
Y227893D01*
X490970Y181244D02*
X506852Y197127D01*
X489507Y177703D02*
Y177713D01*
X489148Y176837D02*
X489148Y176837D01*
X488926Y176300D02*
X488926D01*
X512112Y229200D02*
X512112D01*
X492214Y180014D02*
X508094Y195894D01*
X476437Y181937D02*
X495494Y200994D01*
X499222Y228595D02*
X499290Y228663D01*
X498931Y209292D02*
Y227893D01*
X475512Y179703D02*
X475512D01*
X496822Y228663D02*
X496890Y228595D01*
X496821Y228664D02*
X496822Y228663D01*
X497181Y209298D02*
Y227893D01*
X475196Y183170D02*
X494252Y202227D01*
X473762Y179703D02*
Y179709D01*
X473403Y178837D02*
X473403Y178837D01*
X473180Y178300D02*
X473180D01*
X499512Y229200D02*
X499512D01*
X486722Y228595D02*
X486790Y228663D01*
X486431Y219092D02*
Y227893D01*
X459766Y183303D02*
Y183424D01*
X484322Y228663D02*
X484390Y228595D01*
X484321Y228664D02*
X484322Y228663D01*
X484681Y219098D02*
Y227893D01*
X461453Y191728D02*
X481752Y212027D01*
X458016Y183303D02*
Y183431D01*
X457658Y182437D02*
X457658Y182437D01*
X457435Y181900D02*
X457435D01*
X487012Y229200D02*
X487012D01*
X462696Y190496D02*
X482994Y210794D01*
X473881Y228529D02*
X473950Y228597D01*
X473591Y222939D02*
Y227827D01*
X471482Y228597D02*
X471550Y228529D01*
X471481Y228598D02*
X471482Y228597D01*
X471841Y222946D02*
Y227827D01*
X439749Y186712D02*
X468912Y215875D01*
X438335Y183293D02*
Y183299D01*
X437977Y182427D02*
X437977Y182427D01*
X437754Y181890D02*
X437754D01*
X474172Y229134D02*
X474172D01*
X440991Y185479D02*
X470154Y214642D01*
D35*
X328665Y383892D02*
Y395661D01*
Y383892D02*
X344094Y368463D01*
Y367713D02*
Y368463D01*
D40*
X392400Y205000D02*
Y238800D01*
X328415Y302785D02*
X392400Y238800D01*
X328415Y302785D02*
Y321358D01*
Y326780D01*
X343898Y342012D02*
Y349016D01*
X344094Y349213D01*
X328665Y326780D02*
X343898Y342012D01*
D41*
X385877Y162597D02*
X386027Y162447D01*
X382090D02*
X382240Y162597D01*
D45*
X219602Y174094D02*
D03*
X245823D02*
D03*
D46*
X376378Y227560D02*
D03*
D47*
X581889D02*
D03*
D48*
X451000Y405500D02*
D03*
X576984D02*
D03*
Y279516D02*
D03*
X451000D02*
D03*
X350900Y225984D02*
D03*
X439483Y442404D02*
D03*
D49*
X356693Y411417D02*
D03*
X356914Y332505D02*
D03*
D50*
X364567Y411417D02*
D03*
X364789Y332505D02*
D03*
D51*
X381339Y411024D02*
D03*
X381693Y332677D02*
D03*
D52*
X391339Y411024D02*
D03*
X391693Y332677D02*
D03*
D53*
X318415Y395660D02*
D03*
X318665Y326780D02*
D03*
X328665D02*
D03*
X286665D02*
D03*
X276165D02*
D03*
X328665Y395661D02*
D03*
X286665D02*
D03*
X276665D02*
D03*
D54*
X422348Y197648D02*
D03*
X382600Y210000D02*
D03*
X385700Y227500D02*
D03*
X567651Y187100D02*
D03*
X570563D02*
D03*
X453700Y176100D02*
D03*
X430600Y227800D02*
D03*
X422500Y192800D02*
D03*
X458900Y229300D02*
D03*
X461812D02*
D03*
X554818Y174600D02*
D03*
X551906D02*
D03*
X562691Y229100D02*
D03*
X559778D02*
D03*
X562691Y181500D02*
D03*
X559778D02*
D03*
X539073Y174900D02*
D03*
X536161D02*
D03*
X523328Y183200D02*
D03*
X520416D02*
D03*
X499619Y178000D02*
D03*
X502531D02*
D03*
X485011Y180289D02*
D03*
X482952Y182348D02*
D03*
X469211Y184789D02*
D03*
X467152Y186848D02*
D03*
X450500Y179400D02*
D03*
X447588D02*
D03*
X546946Y177500D02*
D03*
X544033D02*
D03*
X547000Y229200D02*
D03*
X549912D02*
D03*
X534400Y229000D02*
D03*
X537312D02*
D03*
X531201Y179400D02*
D03*
X528288D02*
D03*
X521800Y229200D02*
D03*
X524712D02*
D03*
X515455Y179500D02*
D03*
X512543D02*
D03*
X509200Y229200D02*
D03*
X512112D02*
D03*
X488926Y176300D02*
D03*
X491838D02*
D03*
X496600Y229200D02*
D03*
X499512D02*
D03*
X476093Y178300D02*
D03*
X473180D02*
D03*
X471260Y229134D02*
D03*
X484100Y229200D02*
D03*
X487012D02*
D03*
X460348Y181900D02*
D03*
X457435D02*
D03*
X474172Y229134D02*
D03*
X440666Y181890D02*
D03*
X437754D02*
D03*
X381693Y184449D02*
D03*
Y181299D02*
D03*
Y178150D02*
D03*
Y175000D02*
D03*
X386221D02*
D03*
Y178150D02*
D03*
Y181299D02*
D03*
Y184449D02*
D03*
X403740Y180315D02*
D03*
Y183465D02*
D03*
Y186417D02*
D03*
D55*
X438900Y194100D02*
D03*
X450900Y206200D02*
D03*
X424400Y187500D02*
D03*
X448000Y227700D02*
D03*
X576000Y203900D02*
D03*
X575800Y227600D02*
D03*
X388000Y204600D02*
D03*
X396800D02*
D03*
Y208600D02*
D03*
X392400Y204600D02*
D03*
X392500Y208600D02*
D03*
X388000Y208700D02*
D03*
X410000Y203300D02*
D03*
X413800Y207000D02*
D03*
X417700Y210700D02*
D03*
Y207000D02*
D03*
X413800Y203300D02*
D03*
X414466Y259800D02*
D03*
X417600Y203400D02*
D03*
X450230Y259800D02*
D03*
X489600D02*
D03*
X525266D02*
D03*
X560866D02*
D03*
D56*
X378188Y165382D02*
D03*
D57*
X308213Y421260D02*
D03*
X299213D02*
D03*
X308213Y433071D02*
D03*
X299213D02*
D03*
D58*
X328415Y401358D02*
D03*
X318415D02*
D03*
X286415D02*
D03*
X276665Y401221D02*
D03*
X328415Y321358D02*
D03*
X318415D02*
D03*
X286665Y321220D02*
D03*
X276165D02*
D03*
D59*
X344094Y351181D02*
D03*
Y365744D02*
D03*
D60*
X384099Y170079D02*
Y183902D01*
X411614Y202514D02*
X416700Y207600D01*
X403740Y183465D02*
X411614D01*
Y202514D01*
Y170472D02*
Y183465D01*
D61*
X299128Y409663D02*
Y433071D01*
X303279Y405512D02*
X326772D01*
X299128Y409663D02*
X303279Y405512D01*
D62*
X286665Y314808D02*
Y321220D01*
Y314808D02*
X287992Y313481D01*
M02*
