M48
;Layer_Color=9474304
;FILE_FORMAT=2:5
INCH,LZ
;TYPE=PLATED
T1F00S00C0.01181
T2F00S00C0.01600
T3F00S00C0.03200
T4F00S00C0.03543
T5F00S00C0.03937
;TYPE=NON_PLATED
T6F00S00C0.03150
T7F00S00C0.04724
T8F00S00C0.08268
T9F00S00C0.12205
%
T01
X047318Y01783
X0476093
X0485011Y0180289
X0482952Y0182348
X0488926Y01763
X0491838
X0499619Y0178
X0502531
X0512543Y01795
X0515455
X0520416Y01832
X0523328
X0528288Y01794
X0531201
X0536161Y01749
X0539073
X0544033Y01775
X0546946
X0551906Y01746
X0554818
X0559778Y01815
X0562691
X0567651Y01871
X0570563
X0562691Y02291
X0559778
X0549912Y02292
X0547
X0537312Y0229
X05344
X0524712Y02292
X05218
X0512112
X05092
X0499512
X04966
X0487012
X04841
X0474172Y0229134
X047126
X0469211Y0184789
X0467152Y0186848
X0460348Y01819
X0457435
X04505Y01794
X0447588
X0440666Y018189
X0437754
X04537Y01761
X04225Y01928
X0422348Y0197648
X040374Y0186417
Y0183465
Y0180315
X0386221Y0181299
Y017815
Y0175
X0381693
Y017815
Y0181299
Y0184449
X0386221
X03826Y021
X03857Y02275
X04306Y02278
X04589Y02293
X0461812
T02
X04896Y02598
X0525266
X0560866
X05758Y02276
X0576Y02039
X04509Y02062
X04389Y01941
X04244Y01875
X04176Y02034
X04177Y0207
Y02107
X04138Y0207
Y02033
X041
X03968Y02046
Y02086
X03925
X03924Y02046
X0388
Y02087
X0414466Y02598
X045023
X0448Y02277
T03
X0381693Y0332677
X0391693
X0391339Y0411024
X0381339
T04
X0356914Y0332505
X0364789
X0364567Y0411417
X0356693
T05
X0276165Y032678
X0286665
Y0395661
X0276665
X0318415Y039566
X0328665Y0395661
Y032678
X0318665
T06
X0581889Y022756
T07
X0376378Y022756
T08
X0219602Y0174094
X0245823
T09
X0576984Y0279516
X0451
X03509Y0225984
X0451Y04055
X0439483Y0442404
X0576984Y04055
M30
